  0
SECTION
  2
BLOCKS
  0
ENDSEC
  0
SECTION
  2
ENTITIES
  0
LINE
  8
0
 10
0
 11
0
 20
-158
 21
-101
  0
LINE
  8
0
 10
0
 11
3.5
 20
-101
 21
-101
  0
LINE
  8
0
 10
3.5
 11
3.998
 20
-101
 21
-100.964
  0
LINE
  8
0
 10
3.998
 11
4.486
 20
-100.964
 21
-100.858
  0
LINE
  8
0
 10
4.486
 11
4.954
 20
-100.858
 21
-100.684
  0
LINE
  8
0
 10
4.954
 11
5.392
 20
-100.684
 21
-100.444
  0
LINE
  8
0
 10
5.392
 11
5.792
 20
-100.444
 21
-100.145
  0
LINE
  8
0
 10
5.792
 11
6.145
 20
-100.145
 21
-99.792
  0
LINE
  8
0
 10
6.145
 11
6.444
 20
-99.792
 21
-99.392
  0
LINE
  8
0
 10
6.444
 11
6.684
 20
-99.392
 21
-98.954
  0
LINE
  8
0
 10
6.684
 11
6.858
 20
-98.954
 21
-98.486
  0
LINE
  8
0
 10
6.858
 11
6.964
 20
-98.486
 21
-97.998
  0
LINE
  8
0
 10
6.964
 11
7
 20
-97.998
 21
-97.5
  0
LINE
  8
0
 10
7
 11
6.964
 20
-97.5
 21
-97.002
  0
LINE
  8
0
 10
6.964
 11
6.858
 20
-97.002
 21
-96.514
  0
LINE
  8
0
 10
6.858
 11
6.684
 20
-96.514
 21
-96.046
  0
LINE
  8
0
 10
6.684
 11
6.444
 20
-96.046
 21
-95.608
  0
LINE
  8
0
 10
6.444
 11
6.145
 20
-95.608
 21
-95.208
  0
LINE
  8
0
 10
6.145
 11
5.792
 20
-95.208
 21
-94.855
  0
LINE
  8
0
 10
5.792
 11
5.392
 20
-94.855
 21
-94.556
  0
LINE
  8
0
 10
5.392
 11
4.954
 20
-94.556
 21
-94.316
  0
LINE
  8
0
 10
4.954
 11
4.486
 20
-94.316
 21
-94.142
  0
LINE
  8
0
 10
4.486
 11
3.998
 20
-94.142
 21
-94.036
  0
LINE
  8
0
 10
3.998
 11
3.5
 20
-94.036
 21
-94
  0
LINE
  8
0
 10
3.5
 11
0
 20
-94
 21
-94
  0
LINE
  8
0
 10
0
 11
0
 20
-94
 21
-86.885
  0
LINE
  8
0
 10
0
 11
2.241
 20
-86.885
 21
-86.885
  0
LINE
  8
0
 10
2.241
 11
2.709
 20
-86.885
 21
-86.77
  0
LINE
  8
0
 10
2.709
 11
3.136
 20
-86.77
 21
-86.546
  0
LINE
  8
0
 10
3.136
 11
3.497
 20
-86.546
 21
-86.226
  0
LINE
  8
0
 10
3.497
 11
3.771
 20
-86.226
 21
-85.829
  0
LINE
  8
0
 10
3.771
 11
3.942
 20
-85.829
 21
-85.379
  0
LINE
  8
0
 10
3.942
 11
4
 20
-85.379
 21
-84.9
  0
LINE
  8
0
 10
4
 11
3.942
 20
-84.9
 21
-84.421
  0
LINE
  8
0
 10
3.942
 11
3.771
 20
-84.421
 21
-83.971
  0
LINE
  8
0
 10
3.771
 11
3.497
 20
-83.971
 21
-83.574
  0
LINE
  8
0
 10
3.497
 11
3.136
 20
-83.574
 21
-83.254
  0
LINE
  8
0
 10
3.136
 11
2.709
 20
-83.254
 21
-83.03
  0
LINE
  8
0
 10
2.709
 11
2.241
 20
-83.03
 21
-82.915
  0
LINE
  8
0
 10
2.241
 11
0
 20
-82.915
 21
-82.915
  0
LINE
  8
0
 10
0
 11
0
 20
-82.915
 21
-28.385
  0
LINE
  8
0
 10
0
 11
2.241
 20
-28.385
 21
-28.385
  0
LINE
  8
0
 10
2.241
 11
2.709
 20
-28.385
 21
-28.27
  0
LINE
  8
0
 10
2.709
 11
3.136
 20
-28.27
 21
-28.046
  0
LINE
  8
0
 10
3.136
 11
3.497
 20
-28.046
 21
-27.726
  0
LINE
  8
0
 10
3.497
 11
3.771
 20
-27.726
 21
-27.329
  0
LINE
  8
0
 10
3.771
 11
3.942
 20
-27.329
 21
-26.879
  0
LINE
  8
0
 10
3.942
 11
4
 20
-26.879
 21
-26.4
  0
LINE
  8
0
 10
4
 11
3.942
 20
-26.4
 21
-25.921
  0
LINE
  8
0
 10
3.942
 11
3.771
 20
-25.921
 21
-25.471
  0
LINE
  8
0
 10
3.771
 11
3.497
 20
-25.471
 21
-25.074
  0
LINE
  8
0
 10
3.497
 11
3.136
 20
-25.074
 21
-24.754
  0
LINE
  8
0
 10
3.136
 11
2.709
 20
-24.754
 21
-24.53
  0
LINE
  8
0
 10
2.709
 11
2.241
 20
-24.53
 21
-24.415
  0
LINE
  8
0
 10
2.241
 11
0
 20
-24.415
 21
-24.415
  0
LINE
  8
0
 10
0
 11
0
 20
-24.415
 21
-19.4
  0
LINE
  8
0
 10
0
 11
2.5
 20
-19.4
 21
-19.4
  0
LINE
  8
0
 10
2.5
 11
2.988
 20
-19.4
 21
-19.352
  0
LINE
  8
0
 10
2.988
 11
3.457
 20
-19.352
 21
-19.21
  0
LINE
  8
0
 10
3.457
 11
3.889
 20
-19.21
 21
-18.979
  0
LINE
  8
0
 10
3.889
 11
4.268
 20
-18.979
 21
-18.668
  0
LINE
  8
0
 10
4.268
 11
4.579
 20
-18.668
 21
-18.289
  0
LINE
  8
0
 10
4.579
 11
4.81
 20
-18.289
 21
-17.857
  0
LINE
  8
0
 10
4.81
 11
4.952
 20
-17.857
 21
-17.388
  0
LINE
  8
0
 10
4.952
 11
5
 20
-17.388
 21
-16.9
  0
LINE
  8
0
 10
5
 11
4.952
 20
-16.9
 21
-16.412
  0
LINE
  8
0
 10
4.952
 11
4.81
 20
-16.412
 21
-15.943
  0
LINE
  8
0
 10
4.81
 11
4.579
 20
-15.943
 21
-15.511
  0
LINE
  8
0
 10
4.579
 11
4.268
 20
-15.511
 21
-15.132
  0
LINE
  8
0
 10
4.268
 11
3.889
 20
-15.132
 21
-14.821
  0
LINE
  8
0
 10
3.889
 11
3.457
 20
-14.821
 21
-14.59
  0
LINE
  8
0
 10
3.457
 11
2.988
 20
-14.59
 21
-14.448
  0
LINE
  8
0
 10
2.988
 11
2.5
 20
-14.448
 21
-14.4
  0
LINE
  8
0
 10
2.5
 11
0
 20
-14.4
 21
-14.4
  0
LINE
  8
0
 10
0
 11
0
 20
-14.4
 21
0
  0
LINE
  8
0
 10
0
 11
314.69
 20
0
 21
0
  0
LINE
  8
0
 10
314.69
 11
314.69
 20
0
 21
-3.248
  0
LINE
  8
0
 10
314.69
 11
314.772
 20
-3.248
 21
-3.736
  0
LINE
  8
0
 10
314.772
 11
314.933
 20
-3.736
 21
-4.205
  0
LINE
  8
0
 10
314.933
 11
315.169
 20
-4.205
 21
-4.641
  0
LINE
  8
0
 10
315.169
 11
315.473
 20
-4.641
 21
-5.032
  0
LINE
  8
0
 10
315.473
 11
315.837
 20
-5.032
 21
-5.367
  0
LINE
  8
0
 10
315.837
 11
316.252
 20
-5.367
 21
-5.638
  0
LINE
  8
0
 10
316.252
 11
316.706
 20
-5.638
 21
-5.837
  0
LINE
  8
0
 10
316.706
 11
317.186
 20
-5.837
 21
-5.959
  0
LINE
  8
0
 10
317.186
 11
317.68
 20
-5.959
 21
-6
  0
LINE
  8
0
 10
317.68
 11
318.174
 20
-6
 21
-5.959
  0
LINE
  8
0
 10
318.174
 11
318.654
 20
-5.959
 21
-5.837
  0
LINE
  8
0
 10
318.654
 11
319.108
 20
-5.837
 21
-5.638
  0
LINE
  8
0
 10
319.108
 11
319.523
 20
-5.638
 21
-5.367
  0
LINE
  8
0
 10
319.523
 11
319.887
 20
-5.367
 21
-5.032
  0
LINE
  8
0
 10
319.887
 11
320.191
 20
-5.032
 21
-4.641
  0
LINE
  8
0
 10
320.191
 11
320.427
 20
-4.641
 21
-4.205
  0
LINE
  8
0
 10
320.427
 11
320.588
 20
-4.205
 21
-3.736
  0
LINE
  8
0
 10
320.588
 11
320.67
 20
-3.736
 21
-3.248
  0
LINE
  8
0
 10
320.67
 11
320.67
 20
-3.248
 21
0
  0
LINE
  8
0
 10
320.67
 11
327.595
 20
0
 21
0
  0
LINE
  8
0
 10
327.595
 11
327.595
 20
0
 21
-2.241
  0
LINE
  8
0
 10
327.595
 11
327.71
 20
-2.241
 21
-2.709
  0
LINE
  8
0
 10
327.71
 11
327.934
 20
-2.709
 21
-3.136
  0
LINE
  8
0
 10
327.934
 11
328.254
 20
-3.136
 21
-3.497
  0
LINE
  8
0
 10
328.254
 11
328.651
 20
-3.497
 21
-3.771
  0
LINE
  8
0
 10
328.651
 11
329.101
 20
-3.771
 21
-3.942
  0
LINE
  8
0
 10
329.101
 11
329.58
 20
-3.942
 21
-4
  0
LINE
  8
0
 10
329.58
 11
330.059
 20
-4
 21
-3.942
  0
LINE
  8
0
 10
330.059
 11
330.509
 20
-3.942
 21
-3.771
  0
LINE
  8
0
 10
330.509
 11
330.906
 20
-3.771
 21
-3.497
  0
LINE
  8
0
 10
330.906
 11
331.226
 20
-3.497
 21
-3.136
  0
LINE
  8
0
 10
331.226
 11
331.45
 20
-3.136
 21
-2.709
  0
LINE
  8
0
 10
331.45
 11
331.565
 20
-2.709
 21
-2.241
  0
LINE
  8
0
 10
331.565
 11
331.565
 20
-2.241
 21
0
  0
LINE
  8
0
 10
331.565
 11
386
 20
0
 21
0
  0
LINE
  8
0
 10
386
 11
386
 20
0
 21
-133
  0
LINE
  8
0
 10
386
 11
385.905
 20
-133
 21
-135.179
  0
LINE
  8
0
 10
385.905
 11
385.62
 20
-135.179
 21
-137.341
  0
LINE
  8
0
 10
385.62
 11
385.148
 20
-137.341
 21
-139.47
  0
LINE
  8
0
 10
385.148
 11
384.492
 20
-139.47
 21
-141.551
  0
LINE
  8
0
 10
384.492
 11
383.658
 20
-141.551
 21
-143.565
  0
LINE
  8
0
 10
383.658
 11
382.651
 20
-143.565
 21
-145.5
  0
LINE
  8
0
 10
382.651
 11
381.479
 20
-145.5
 21
-147.339
  0
LINE
  8
0
 10
381.479
 11
380.151
 20
-147.339
 21
-149.07
  0
LINE
  8
0
 10
380.151
 11
378.678
 20
-149.07
 21
-150.678
  0
LINE
  8
0
 10
378.678
 11
377.07
 20
-150.678
 21
-152.151
  0
LINE
  8
0
 10
377.07
 11
375.339
 20
-152.151
 21
-153.479
  0
LINE
  8
0
 10
375.339
 11
373.5
 20
-153.479
 21
-154.651
  0
LINE
  8
0
 10
373.5
 11
371.565
 20
-154.651
 21
-155.658
  0
LINE
  8
0
 10
371.565
 11
369.551
 20
-155.658
 21
-156.492
  0
LINE
  8
0
 10
369.551
 11
367.47
 20
-156.492
 21
-157.148
  0
LINE
  8
0
 10
367.47
 11
365.341
 20
-157.148
 21
-157.62
  0
LINE
  8
0
 10
365.341
 11
363.179
 20
-157.62
 21
-157.905
  0
LINE
  8
0
 10
363.179
 11
361
 20
-157.905
 21
-158
  0
LINE
  8
0
 10
361
 11
0
 20
-158
 21
-158
  0
LINE
  8
0
 10
5
 11
5.055
 20
-149.3
 21
-148.81
  0
LINE
  8
0
 10
5.055
 11
5.218
 20
-148.81
 21
-148.345
  0
LINE
  8
0
 10
5.218
 11
5.48
 20
-148.345
 21
-147.928
  0
LINE
  8
0
 10
5.48
 11
5.828
 20
-147.928
 21
-147.58
  0
LINE
  8
0
 10
5.828
 11
6.245
 20
-147.58
 21
-147.318
  0
LINE
  8
0
 10
6.245
 11
6.71
 20
-147.318
 21
-147.155
  0
LINE
  8
0
 10
6.71
 11
7.2
 20
-147.155
 21
-147.1
  0
LINE
  8
0
 10
7.2
 11
7.69
 20
-147.1
 21
-147.155
  0
LINE
  8
0
 10
7.69
 11
8.155
 20
-147.155
 21
-147.318
  0
LINE
  8
0
 10
8.155
 11
8.572
 20
-147.318
 21
-147.58
  0
LINE
  8
0
 10
8.572
 11
8.92
 20
-147.58
 21
-147.928
  0
LINE
  8
0
 10
8.92
 11
9.182
 20
-147.928
 21
-148.345
  0
LINE
  8
0
 10
9.182
 11
9.345
 20
-148.345
 21
-148.81
  0
LINE
  8
0
 10
9.345
 11
9.4
 20
-148.81
 21
-149.3
  0
LINE
  8
0
 10
9.4
 11
9.345
 20
-149.3
 21
-149.79
  0
LINE
  8
0
 10
9.345
 11
9.182
 20
-149.79
 21
-150.255
  0
LINE
  8
0
 10
9.182
 11
8.92
 20
-150.255
 21
-150.672
  0
LINE
  8
0
 10
8.92
 11
8.572
 20
-150.672
 21
-151.02
  0
LINE
  8
0
 10
8.572
 11
8.155
 20
-151.02
 21
-151.282
  0
LINE
  8
0
 10
8.155
 11
7.69
 20
-151.282
 21
-151.445
  0
LINE
  8
0
 10
7.69
 11
7.2
 20
-151.445
 21
-151.5
  0
LINE
  8
0
 10
7.2
 11
6.71
 20
-151.5
 21
-151.445
  0
LINE
  8
0
 10
6.71
 11
6.245
 20
-151.445
 21
-151.282
  0
LINE
  8
0
 10
6.245
 11
5.828
 20
-151.282
 21
-151.02
  0
LINE
  8
0
 10
5.828
 11
5.48
 20
-151.02
 21
-150.672
  0
LINE
  8
0
 10
5.48
 11
5.218
 20
-150.672
 21
-150.255
  0
LINE
  8
0
 10
5.218
 11
5.055
 20
-150.255
 21
-149.79
  0
LINE
  8
0
 10
5.055
 11
5
 20
-149.79
 21
-149.3
  0
LINE
  8
0
 10
5
 11
5.055
 20
-128.08
 21
-127.59
  0
LINE
  8
0
 10
5.055
 11
5.218
 20
-127.59
 21
-127.125
  0
LINE
  8
0
 10
5.218
 11
5.48
 20
-127.125
 21
-126.708
  0
LINE
  8
0
 10
5.48
 11
5.828
 20
-126.708
 21
-126.36
  0
LINE
  8
0
 10
5.828
 11
6.245
 20
-126.36
 21
-126.098
  0
LINE
  8
0
 10
6.245
 11
6.71
 20
-126.098
 21
-125.935
  0
LINE
  8
0
 10
6.71
 11
7.2
 20
-125.935
 21
-125.88
  0
LINE
  8
0
 10
7.2
 11
7.69
 20
-125.88
 21
-125.935
  0
LINE
  8
0
 10
7.69
 11
8.155
 20
-125.935
 21
-126.098
  0
LINE
  8
0
 10
8.155
 11
8.572
 20
-126.098
 21
-126.36
  0
LINE
  8
0
 10
8.572
 11
8.92
 20
-126.36
 21
-126.708
  0
LINE
  8
0
 10
8.92
 11
9.182
 20
-126.708
 21
-127.125
  0
LINE
  8
0
 10
9.182
 11
9.345
 20
-127.125
 21
-127.59
  0
LINE
  8
0
 10
9.345
 11
9.4
 20
-127.59
 21
-128.08
  0
LINE
  8
0
 10
9.4
 11
9.345
 20
-128.08
 21
-128.57
  0
LINE
  8
0
 10
9.345
 11
9.182
 20
-128.57
 21
-129.035
  0
LINE
  8
0
 10
9.182
 11
8.92
 20
-129.035
 21
-129.452
  0
LINE
  8
0
 10
8.92
 11
8.572
 20
-129.452
 21
-129.8
  0
LINE
  8
0
 10
8.572
 11
8.155
 20
-129.8
 21
-130.062
  0
LINE
  8
0
 10
8.155
 11
7.69
 20
-130.062
 21
-130.225
  0
LINE
  8
0
 10
7.69
 11
7.2
 20
-130.225
 21
-130.28
  0
LINE
  8
0
 10
7.2
 11
6.71
 20
-130.28
 21
-130.225
  0
LINE
  8
0
 10
6.71
 11
6.245
 20
-130.225
 21
-130.062
  0
LINE
  8
0
 10
6.245
 11
5.828
 20
-130.062
 21
-129.8
  0
LINE
  8
0
 10
5.828
 11
5.48
 20
-129.8
 21
-129.452
  0
LINE
  8
0
 10
5.48
 11
5.218
 20
-129.452
 21
-129.035
  0
LINE
  8
0
 10
5.218
 11
5.055
 20
-129.035
 21
-128.57
  0
LINE
  8
0
 10
5.055
 11
5
 20
-128.57
 21
-128.08
  0
LINE
  8
0
 10
20.9
 11
20.955
 20
-7.2
 21
-6.71
  0
LINE
  8
0
 10
20.955
 11
21.118
 20
-6.71
 21
-6.245
  0
LINE
  8
0
 10
21.118
 11
21.38
 20
-6.245
 21
-5.828
  0
LINE
  8
0
 10
21.38
 11
21.728
 20
-5.828
 21
-5.48
  0
LINE
  8
0
 10
21.728
 11
22.145
 20
-5.48
 21
-5.218
  0
LINE
  8
0
 10
22.145
 11
22.61
 20
-5.218
 21
-5.055
  0
LINE
  8
0
 10
22.61
 11
23.1
 20
-5.055
 21
-5
  0
LINE
  8
0
 10
23.1
 11
23.59
 20
-5
 21
-5.055
  0
LINE
  8
0
 10
23.59
 11
24.055
 20
-5.055
 21
-5.218
  0
LINE
  8
0
 10
24.055
 11
24.472
 20
-5.218
 21
-5.48
  0
LINE
  8
0
 10
24.472
 11
24.82
 20
-5.48
 21
-5.828
  0
LINE
  8
0
 10
24.82
 11
25.082
 20
-5.828
 21
-6.245
  0
LINE
  8
0
 10
25.082
 11
25.245
 20
-6.245
 21
-6.71
  0
LINE
  8
0
 10
25.245
 11
25.3
 20
-6.71
 21
-7.2
  0
LINE
  8
0
 10
25.3
 11
25.245
 20
-7.2
 21
-7.69
  0
LINE
  8
0
 10
25.245
 11
25.082
 20
-7.69
 21
-8.155
  0
LINE
  8
0
 10
25.082
 11
24.82
 20
-8.155
 21
-8.572
  0
LINE
  8
0
 10
24.82
 11
24.472
 20
-8.572
 21
-8.92
  0
LINE
  8
0
 10
24.472
 11
24.055
 20
-8.92
 21
-9.182
  0
LINE
  8
0
 10
24.055
 11
23.59
 20
-9.182
 21
-9.345
  0
LINE
  8
0
 10
23.59
 11
23.1
 20
-9.345
 21
-9.4
  0
LINE
  8
0
 10
23.1
 11
22.61
 20
-9.4
 21
-9.345
  0
LINE
  8
0
 10
22.61
 11
22.145
 20
-9.345
 21
-9.182
  0
LINE
  8
0
 10
22.145
 11
21.728
 20
-9.182
 21
-8.92
  0
LINE
  8
0
 10
21.728
 11
21.38
 20
-8.92
 21
-8.572
  0
LINE
  8
0
 10
21.38
 11
21.118
 20
-8.572
 21
-8.155
  0
LINE
  8
0
 10
21.118
 11
20.955
 20
-8.155
 21
-7.69
  0
LINE
  8
0
 10
20.955
 11
20.9
 20
-7.69
 21
-7.2
  0
LINE
  8
0
 10
29.55
 11
29.605
 20
-151.15
 21
-150.66
  0
LINE
  8
0
 10
29.605
 11
29.768
 20
-150.66
 21
-150.195
  0
LINE
  8
0
 10
29.768
 11
30.03
 20
-150.195
 21
-149.778
  0
LINE
  8
0
 10
30.03
 11
30.378
 20
-149.778
 21
-149.43
  0
LINE
  8
0
 10
30.378
 11
30.795
 20
-149.43
 21
-149.168
  0
LINE
  8
0
 10
30.795
 11
31.26
 20
-149.168
 21
-149.005
  0
LINE
  8
0
 10
31.26
 11
31.75
 20
-149.005
 21
-148.95
  0
LINE
  8
0
 10
31.75
 11
32.24
 20
-148.95
 21
-149.005
  0
LINE
  8
0
 10
32.24
 11
32.705
 20
-149.005
 21
-149.168
  0
LINE
  8
0
 10
32.705
 11
33.122
 20
-149.168
 21
-149.43
  0
LINE
  8
0
 10
33.122
 11
33.47
 20
-149.43
 21
-149.778
  0
LINE
  8
0
 10
33.47
 11
33.732
 20
-149.778
 21
-150.195
  0
LINE
  8
0
 10
33.732
 11
33.895
 20
-150.195
 21
-150.66
  0
LINE
  8
0
 10
33.895
 11
33.95
 20
-150.66
 21
-151.15
  0
LINE
  8
0
 10
33.95
 11
33.895
 20
-151.15
 21
-151.64
  0
LINE
  8
0
 10
33.895
 11
33.732
 20
-151.64
 21
-152.105
  0
LINE
  8
0
 10
33.732
 11
33.47
 20
-152.105
 21
-152.522
  0
LINE
  8
0
 10
33.47
 11
33.122
 20
-152.522
 21
-152.87
  0
LINE
  8
0
 10
33.122
 11
32.705
 20
-152.87
 21
-153.132
  0
LINE
  8
0
 10
32.705
 11
32.24
 20
-153.132
 21
-153.295
  0
LINE
  8
0
 10
32.24
 11
31.75
 20
-153.295
 21
-153.35
  0
LINE
  8
0
 10
31.75
 11
31.26
 20
-153.35
 21
-153.295
  0
LINE
  8
0
 10
31.26
 11
30.795
 20
-153.295
 21
-153.132
  0
LINE
  8
0
 10
30.795
 11
30.378
 20
-153.132
 21
-152.87
  0
LINE
  8
0
 10
30.378
 11
30.03
 20
-152.87
 21
-152.522
  0
LINE
  8
0
 10
30.03
 11
29.768
 20
-152.522
 21
-152.105
  0
LINE
  8
0
 10
29.768
 11
29.605
 20
-152.105
 21
-151.64
  0
LINE
  8
0
 10
29.605
 11
29.55
 20
-151.64
 21
-151.15
  0
LINE
  8
0
 10
42.12
 11
42.175
 20
-7.2
 21
-6.71
  0
LINE
  8
0
 10
42.175
 11
42.338
 20
-6.71
 21
-6.245
  0
LINE
  8
0
 10
42.338
 11
42.6
 20
-6.245
 21
-5.828
  0
LINE
  8
0
 10
42.6
 11
42.948
 20
-5.828
 21
-5.48
  0
LINE
  8
0
 10
42.948
 11
43.365
 20
-5.48
 21
-5.218
  0
LINE
  8
0
 10
43.365
 11
43.83
 20
-5.218
 21
-5.055
  0
LINE
  8
0
 10
43.83
 11
44.32
 20
-5.055
 21
-5
  0
LINE
  8
0
 10
44.32
 11
44.81
 20
-5
 21
-5.055
  0
LINE
  8
0
 10
44.81
 11
45.275
 20
-5.055
 21
-5.218
  0
LINE
  8
0
 10
45.275
 11
45.692
 20
-5.218
 21
-5.48
  0
LINE
  8
0
 10
45.692
 11
46.04
 20
-5.48
 21
-5.828
  0
LINE
  8
0
 10
46.04
 11
46.302
 20
-5.828
 21
-6.245
  0
LINE
  8
0
 10
46.302
 11
46.465
 20
-6.245
 21
-6.71
  0
LINE
  8
0
 10
46.465
 11
46.52
 20
-6.71
 21
-7.2
  0
LINE
  8
0
 10
46.52
 11
46.465
 20
-7.2
 21
-7.69
  0
LINE
  8
0
 10
46.465
 11
46.302
 20
-7.69
 21
-8.155
  0
LINE
  8
0
 10
46.302
 11
46.04
 20
-8.155
 21
-8.572
  0
LINE
  8
0
 10
46.04
 11
45.692
 20
-8.572
 21
-8.92
  0
LINE
  8
0
 10
45.692
 11
45.275
 20
-8.92
 21
-9.182
  0
LINE
  8
0
 10
45.275
 11
44.81
 20
-9.182
 21
-9.345
  0
LINE
  8
0
 10
44.81
 11
44.32
 20
-9.345
 21
-9.4
  0
LINE
  8
0
 10
44.32
 11
43.83
 20
-9.4
 21
-9.345
  0
LINE
  8
0
 10
43.83
 11
43.365
 20
-9.345
 21
-9.182
  0
LINE
  8
0
 10
43.365
 11
42.948
 20
-9.182
 21
-8.92
  0
LINE
  8
0
 10
42.948
 11
42.6
 20
-8.92
 21
-8.572
  0
LINE
  8
0
 10
42.6
 11
42.338
 20
-8.572
 21
-8.155
  0
LINE
  8
0
 10
42.338
 11
42.175
 20
-8.155
 21
-7.69
  0
LINE
  8
0
 10
42.175
 11
42.12
 20
-7.69
 21
-7.2
  0
LINE
  8
0
 10
120.85
 11
120.905
 20
-151.15
 21
-150.66
  0
LINE
  8
0
 10
120.905
 11
121.068
 20
-150.66
 21
-150.195
  0
LINE
  8
0
 10
121.068
 11
121.33
 20
-150.195
 21
-149.778
  0
LINE
  8
0
 10
121.33
 11
121.678
 20
-149.778
 21
-149.43
  0
LINE
  8
0
 10
121.678
 11
122.095
 20
-149.43
 21
-149.168
  0
LINE
  8
0
 10
122.095
 11
122.56
 20
-149.168
 21
-149.005
  0
LINE
  8
0
 10
122.56
 11
123.05
 20
-149.005
 21
-148.95
  0
LINE
  8
0
 10
123.05
 11
123.54
 20
-148.95
 21
-149.005
  0
LINE
  8
0
 10
123.54
 11
124.005
 20
-149.005
 21
-149.168
  0
LINE
  8
0
 10
124.005
 11
124.422
 20
-149.168
 21
-149.43
  0
LINE
  8
0
 10
124.422
 11
124.77
 20
-149.43
 21
-149.778
  0
LINE
  8
0
 10
124.77
 11
125.032
 20
-149.778
 21
-150.195
  0
LINE
  8
0
 10
125.032
 11
125.195
 20
-150.195
 21
-150.66
  0
LINE
  8
0
 10
125.195
 11
125.25
 20
-150.66
 21
-151.15
  0
LINE
  8
0
 10
125.25
 11
125.195
 20
-151.15
 21
-151.64
  0
LINE
  8
0
 10
125.195
 11
125.032
 20
-151.64
 21
-152.105
  0
LINE
  8
0
 10
125.032
 11
124.77
 20
-152.105
 21
-152.522
  0
LINE
  8
0
 10
124.77
 11
124.422
 20
-152.522
 21
-152.87
  0
LINE
  8
0
 10
124.422
 11
124.005
 20
-152.87
 21
-153.132
  0
LINE
  8
0
 10
124.005
 11
123.54
 20
-153.132
 21
-153.295
  0
LINE
  8
0
 10
123.54
 11
123.05
 20
-153.295
 21
-153.35
  0
LINE
  8
0
 10
123.05
 11
122.56
 20
-153.35
 21
-153.295
  0
LINE
  8
0
 10
122.56
 11
122.095
 20
-153.295
 21
-153.132
  0
LINE
  8
0
 10
122.095
 11
121.678
 20
-153.132
 21
-152.87
  0
LINE
  8
0
 10
121.678
 11
121.33
 20
-152.87
 21
-152.522
  0
LINE
  8
0
 10
121.33
 11
121.068
 20
-152.522
 21
-152.105
  0
LINE
  8
0
 10
121.068
 11
120.905
 20
-152.105
 21
-151.64
  0
LINE
  8
0
 10
120.905
 11
120.85
 20
-151.64
 21
-151.15
  0
LINE
  8
0
 10
173.225
 11
173.261
 20
-100.078
 21
-99.588
  0
LINE
  8
0
 10
173.261
 11
173.441
 20
-99.588
 21
-99.13
  0
LINE
  8
0
 10
173.441
 11
173.748
 20
-99.13
 21
-98.745
  0
LINE
  8
0
 10
173.748
 11
174.154
 20
-98.745
 21
-98.468
  0
LINE
  8
0
 10
174.154
 11
174.624
 20
-98.468
 21
-98.323
  0
LINE
  8
0
 10
174.624
 11
175.116
 20
-98.323
 21
-98.323
  0
LINE
  8
0
 10
175.116
 11
175.586
 20
-98.323
 21
-98.468
  0
LINE
  8
0
 10
175.586
 11
175.992
 20
-98.468
 21
-98.745
  0
LINE
  8
0
 10
175.992
 11
176.299
 20
-98.745
 21
-99.13
  0
LINE
  8
0
 10
176.299
 11
176.479
 20
-99.13
 21
-99.588
  0
LINE
  8
0
 10
176.479
 11
176.515
 20
-99.588
 21
-100.078
  0
LINE
  8
0
 10
176.515
 11
176.406
 20
-100.078
 21
-100.558
  0
LINE
  8
0
 10
176.406
 11
176.16
 20
-100.558
 21
-100.984
  0
LINE
  8
0
 10
176.16
 11
175.799
 20
-100.984
 21
-101.318
  0
LINE
  8
0
 10
175.799
 11
175.356
 20
-101.318
 21
-101.532
  0
LINE
  8
0
 10
175.356
 11
174.87
 20
-101.532
 21
-101.605
  0
LINE
  8
0
 10
174.87
 11
174.384
 20
-101.605
 21
-101.532
  0
LINE
  8
0
 10
174.384
 11
173.941
 20
-101.532
 21
-101.318
  0
LINE
  8
0
 10
173.941
 11
173.58
 20
-101.318
 21
-100.984
  0
LINE
  8
0
 10
173.58
 11
173.334
 20
-100.984
 21
-100.558
  0
LINE
  8
0
 10
173.334
 11
173.225
 20
-100.558
 21
-100.078
  0
LINE
  8
0
 10
173.225
 11
173.261
 20
-58.168
 21
-57.678
  0
LINE
  8
0
 10
173.261
 11
173.441
 20
-57.678
 21
-57.22
  0
LINE
  8
0
 10
173.441
 11
173.748
 20
-57.22
 21
-56.835
  0
LINE
  8
0
 10
173.748
 11
174.154
 20
-56.835
 21
-56.558
  0
LINE
  8
0
 10
174.154
 11
174.624
 20
-56.558
 21
-56.413
  0
LINE
  8
0
 10
174.624
 11
175.116
 20
-56.413
 21
-56.413
  0
LINE
  8
0
 10
175.116
 11
175.586
 20
-56.413
 21
-56.558
  0
LINE
  8
0
 10
175.586
 11
175.992
 20
-56.558
 21
-56.835
  0
LINE
  8
0
 10
175.992
 11
176.299
 20
-56.835
 21
-57.22
  0
LINE
  8
0
 10
176.299
 11
176.479
 20
-57.22
 21
-57.678
  0
LINE
  8
0
 10
176.479
 11
176.515
 20
-57.678
 21
-58.168
  0
LINE
  8
0
 10
176.515
 11
176.406
 20
-58.168
 21
-58.648
  0
LINE
  8
0
 10
176.406
 11
176.16
 20
-58.648
 21
-59.074
  0
LINE
  8
0
 10
176.16
 11
175.799
 20
-59.074
 21
-59.408
  0
LINE
  8
0
 10
175.799
 11
175.356
 20
-59.408
 21
-59.622
  0
LINE
  8
0
 10
175.356
 11
174.87
 20
-59.622
 21
-59.695
  0
LINE
  8
0
 10
174.87
 11
174.384
 20
-59.695
 21
-59.622
  0
LINE
  8
0
 10
174.384
 11
173.941
 20
-59.622
 21
-59.408
  0
LINE
  8
0
 10
173.941
 11
173.58
 20
-59.408
 21
-59.074
  0
LINE
  8
0
 10
173.58
 11
173.334
 20
-59.074
 21
-58.648
  0
LINE
  8
0
 10
173.334
 11
173.225
 20
-58.648
 21
-58.168
  0
LINE
  8
0
 10
188.65
 11
188.734
 20
-142.75
 21
-142.271
  0
LINE
  8
0
 10
188.734
 11
188.978
 20
-142.271
 21
-141.85
  0
LINE
  8
0
 10
188.978
 11
189.35
 20
-141.85
 21
-141.538
  0
LINE
  8
0
 10
189.35
 11
189.807
 20
-141.538
 21
-141.371
  0
LINE
  8
0
 10
189.807
 11
190.293
 20
-141.371
 21
-141.371
  0
LINE
  8
0
 10
190.293
 11
190.75
 20
-141.371
 21
-141.538
  0
LINE
  8
0
 10
190.75
 11
191.122
 20
-141.538
 21
-141.85
  0
LINE
  8
0
 10
191.122
 11
191.366
 20
-141.85
 21
-142.271
  0
LINE
  8
0
 10
191.366
 11
191.45
 20
-142.271
 21
-142.75
  0
LINE
  8
0
 10
191.45
 11
191.366
 20
-142.75
 21
-143.229
  0
LINE
  8
0
 10
191.366
 11
191.122
 20
-143.229
 21
-143.65
  0
LINE
  8
0
 10
191.122
 11
190.75
 20
-143.65
 21
-143.962
  0
LINE
  8
0
 10
190.75
 11
190.293
 20
-143.962
 21
-144.129
  0
LINE
  8
0
 10
190.293
 11
189.807
 20
-144.129
 21
-144.129
  0
LINE
  8
0
 10
189.807
 11
189.35
 20
-144.129
 21
-143.962
  0
LINE
  8
0
 10
189.35
 11
188.978
 20
-143.962
 21
-143.65
  0
LINE
  8
0
 10
188.978
 11
188.734
 20
-143.65
 21
-143.229
  0
LINE
  8
0
 10
188.734
 11
188.65
 20
-143.229
 21
-142.75
  0
LINE
  8
0
 10
202.95
 11
203.034
 20
-126.85
 21
-126.371
  0
LINE
  8
0
 10
203.034
 11
203.278
 20
-126.371
 21
-125.95
  0
LINE
  8
0
 10
203.278
 11
203.65
 20
-125.95
 21
-125.638
  0
LINE
  8
0
 10
203.65
 11
204.107
 20
-125.638
 21
-125.471
  0
LINE
  8
0
 10
204.107
 11
204.593
 20
-125.471
 21
-125.471
  0
LINE
  8
0
 10
204.593
 11
205.05
 20
-125.471
 21
-125.638
  0
LINE
  8
0
 10
205.05
 11
205.422
 20
-125.638
 21
-125.95
  0
LINE
  8
0
 10
205.422
 11
205.666
 20
-125.95
 21
-126.371
  0
LINE
  8
0
 10
205.666
 11
205.75
 20
-126.371
 21
-126.85
  0
LINE
  8
0
 10
205.75
 11
205.666
 20
-126.85
 21
-127.329
  0
LINE
  8
0
 10
205.666
 11
205.422
 20
-127.329
 21
-127.75
  0
LINE
  8
0
 10
205.422
 11
205.05
 20
-127.75
 21
-128.062
  0
LINE
  8
0
 10
205.05
 11
204.593
 20
-128.062
 21
-128.229
  0
LINE
  8
0
 10
204.593
 11
204.107
 20
-128.229
 21
-128.229
  0
LINE
  8
0
 10
204.107
 11
203.65
 20
-128.229
 21
-128.062
  0
LINE
  8
0
 10
203.65
 11
203.278
 20
-128.062
 21
-127.75
  0
LINE
  8
0
 10
203.278
 11
203.034
 20
-127.75
 21
-127.329
  0
LINE
  8
0
 10
203.034
 11
202.95
 20
-127.329
 21
-126.85
  0
LINE
  8
0
 10
239.25
 11
239.334
 20
-142.75
 21
-142.271
  0
LINE
  8
0
 10
239.334
 11
239.578
 20
-142.271
 21
-141.85
  0
LINE
  8
0
 10
239.578
 11
239.95
 20
-141.85
 21
-141.538
  0
LINE
  8
0
 10
239.95
 11
240.407
 20
-141.538
 21
-141.371
  0
LINE
  8
0
 10
240.407
 11
240.893
 20
-141.371
 21
-141.371
  0
LINE
  8
0
 10
240.893
 11
241.35
 20
-141.371
 21
-141.538
  0
LINE
  8
0
 10
241.35
 11
241.722
 20
-141.538
 21
-141.85
  0
LINE
  8
0
 10
241.722
 11
241.966
 20
-141.85
 21
-142.271
  0
LINE
  8
0
 10
241.966
 11
242.05
 20
-142.271
 21
-142.75
  0
LINE
  8
0
 10
242.05
 11
241.966
 20
-142.75
 21
-143.229
  0
LINE
  8
0
 10
241.966
 11
241.722
 20
-143.229
 21
-143.65
  0
LINE
  8
0
 10
241.722
 11
241.35
 20
-143.65
 21
-143.962
  0
LINE
  8
0
 10
241.35
 11
240.893
 20
-143.962
 21
-144.129
  0
LINE
  8
0
 10
240.893
 11
240.407
 20
-144.129
 21
-144.129
  0
LINE
  8
0
 10
240.407
 11
239.95
 20
-144.129
 21
-143.962
  0
LINE
  8
0
 10
239.95
 11
239.578
 20
-143.962
 21
-143.65
  0
LINE
  8
0
 10
239.578
 11
239.334
 20
-143.65
 21
-143.229
  0
LINE
  8
0
 10
239.334
 11
239.25
 20
-143.229
 21
-142.75
  0
LINE
  8
0
 10
253.55
 11
253.634
 20
-126.85
 21
-126.371
  0
LINE
  8
0
 10
253.634
 11
253.878
 20
-126.371
 21
-125.95
  0
LINE
  8
0
 10
253.878
 11
254.25
 20
-125.95
 21
-125.638
  0
LINE
  8
0
 10
254.25
 11
254.707
 20
-125.638
 21
-125.471
  0
LINE
  8
0
 10
254.707
 11
255.193
 20
-125.471
 21
-125.471
  0
LINE
  8
0
 10
255.193
 11
255.65
 20
-125.471
 21
-125.638
  0
LINE
  8
0
 10
255.65
 11
256.022
 20
-125.638
 21
-125.95
  0
LINE
  8
0
 10
256.022
 11
256.266
 20
-125.95
 21
-126.371
  0
LINE
  8
0
 10
256.266
 11
256.35
 20
-126.371
 21
-126.85
  0
LINE
  8
0
 10
256.35
 11
256.266
 20
-126.85
 21
-127.329
  0
LINE
  8
0
 10
256.266
 11
256.022
 20
-127.329
 21
-127.75
  0
LINE
  8
0
 10
256.022
 11
255.65
 20
-127.75
 21
-128.062
  0
LINE
  8
0
 10
255.65
 11
255.193
 20
-128.062
 21
-128.229
  0
LINE
  8
0
 10
255.193
 11
254.707
 20
-128.229
 21
-128.229
  0
LINE
  8
0
 10
254.707
 11
254.25
 20
-128.229
 21
-128.062
  0
LINE
  8
0
 10
254.25
 11
253.878
 20
-128.062
 21
-127.75
  0
LINE
  8
0
 10
253.878
 11
253.634
 20
-127.75
 21
-127.329
  0
LINE
  8
0
 10
253.634
 11
253.55
 20
-127.329
 21
-126.85
  0
LINE
  8
0
 10
286.862
 11
286.917
 20
-31.65
 21
-31.16
  0
LINE
  8
0
 10
286.917
 11
287.079
 20
-31.16
 21
-30.695
  0
LINE
  8
0
 10
287.079
 11
287.342
 20
-30.695
 21
-30.278
  0
LINE
  8
0
 10
287.342
 11
287.69
 20
-30.278
 21
-29.93
  0
LINE
  8
0
 10
287.69
 11
288.107
 20
-29.93
 21
-29.668
  0
LINE
  8
0
 10
288.107
 11
288.572
 20
-29.668
 21
-29.505
  0
LINE
  8
0
 10
288.572
 11
289.062
 20
-29.505
 21
-29.45
  0
LINE
  8
0
 10
289.062
 11
289.551
 20
-29.45
 21
-29.505
  0
LINE
  8
0
 10
289.551
 11
290.016
 20
-29.505
 21
-29.668
  0
LINE
  8
0
 10
290.016
 11
290.433
 20
-29.668
 21
-29.93
  0
LINE
  8
0
 10
290.433
 11
290.782
 20
-29.93
 21
-30.278
  0
LINE
  8
0
 10
290.782
 11
291.044
 20
-30.278
 21
-30.695
  0
LINE
  8
0
 10
291.044
 11
291.206
 20
-30.695
 21
-31.16
  0
LINE
  8
0
 10
291.206
 11
291.262
 20
-31.16
 21
-31.65
  0
LINE
  8
0
 10
291.262
 11
291.206
 20
-31.65
 21
-32.14
  0
LINE
  8
0
 10
291.206
 11
291.044
 20
-32.14
 21
-32.605
  0
LINE
  8
0
 10
291.044
 11
290.782
 20
-32.605
 21
-33.022
  0
LINE
  8
0
 10
290.782
 11
290.433
 20
-33.022
 21
-33.37
  0
LINE
  8
0
 10
290.433
 11
290.016
 20
-33.37
 21
-33.632
  0
LINE
  8
0
 10
290.016
 11
289.551
 20
-33.632
 21
-33.795
  0
LINE
  8
0
 10
289.551
 11
289.062
 20
-33.795
 21
-33.85
  0
LINE
  8
0
 10
289.062
 11
288.572
 20
-33.85
 21
-33.795
  0
LINE
  8
0
 10
288.572
 11
288.107
 20
-33.795
 21
-33.632
  0
LINE
  8
0
 10
288.107
 11
287.69
 20
-33.632
 21
-33.37
  0
LINE
  8
0
 10
287.69
 11
287.342
 20
-33.37
 21
-33.022
  0
LINE
  8
0
 10
287.342
 11
287.079
 20
-33.022
 21
-32.605
  0
LINE
  8
0
 10
287.079
 11
286.917
 20
-32.605
 21
-32.14
  0
LINE
  8
0
 10
286.917
 11
286.862
 20
-32.14
 21
-31.65
  0
LINE
  8
0
 10
339.48
 11
339.535
 20
-7.2
 21
-6.71
  0
LINE
  8
0
 10
339.535
 11
339.698
 20
-6.71
 21
-6.245
  0
LINE
  8
0
 10
339.698
 11
339.96
 20
-6.245
 21
-5.828
  0
LINE
  8
0
 10
339.96
 11
340.308
 20
-5.828
 21
-5.48
  0
LINE
  8
0
 10
340.308
 11
340.725
 20
-5.48
 21
-5.218
  0
LINE
  8
0
 10
340.725
 11
341.19
 20
-5.218
 21
-5.055
  0
LINE
  8
0
 10
341.19
 11
341.68
 20
-5.055
 21
-5
  0
LINE
  8
0
 10
341.68
 11
342.17
 20
-5
 21
-5.055
  0
LINE
  8
0
 10
342.17
 11
342.635
 20
-5.055
 21
-5.218
  0
LINE
  8
0
 10
342.635
 11
343.052
 20
-5.218
 21
-5.48
  0
LINE
  8
0
 10
343.052
 11
343.4
 20
-5.48
 21
-5.828
  0
LINE
  8
0
 10
343.4
 11
343.662
 20
-5.828
 21
-6.245
  0
LINE
  8
0
 10
343.662
 11
343.825
 20
-6.245
 21
-6.71
  0
LINE
  8
0
 10
343.825
 11
343.88
 20
-6.71
 21
-7.2
  0
LINE
  8
0
 10
343.88
 11
343.825
 20
-7.2
 21
-7.69
  0
LINE
  8
0
 10
343.825
 11
343.662
 20
-7.69
 21
-8.155
  0
LINE
  8
0
 10
343.662
 11
343.4
 20
-8.155
 21
-8.572
  0
LINE
  8
0
 10
343.4
 11
343.052
 20
-8.572
 21
-8.92
  0
LINE
  8
0
 10
343.052
 11
342.635
 20
-8.92
 21
-9.182
  0
LINE
  8
0
 10
342.635
 11
342.17
 20
-9.182
 21
-9.345
  0
LINE
  8
0
 10
342.17
 11
341.68
 20
-9.345
 21
-9.4
  0
LINE
  8
0
 10
341.68
 11
341.19
 20
-9.4
 21
-9.345
  0
LINE
  8
0
 10
341.19
 11
340.725
 20
-9.345
 21
-9.182
  0
LINE
  8
0
 10
340.725
 11
340.308
 20
-9.182
 21
-8.92
  0
LINE
  8
0
 10
340.308
 11
339.96
 20
-8.92
 21
-8.572
  0
LINE
  8
0
 10
339.96
 11
339.698
 20
-8.572
 21
-8.155
  0
LINE
  8
0
 10
339.698
 11
339.535
 20
-8.155
 21
-7.69
  0
LINE
  8
0
 10
339.535
 11
339.48
 20
-7.69
 21
-7.2
  0
LINE
  8
0
 10
360.7
 11
360.755
 20
-7.2
 21
-6.71
  0
LINE
  8
0
 10
360.755
 11
360.918
 20
-6.71
 21
-6.245
  0
LINE
  8
0
 10
360.918
 11
361.18
 20
-6.245
 21
-5.828
  0
LINE
  8
0
 10
361.18
 11
361.528
 20
-5.828
 21
-5.48
  0
LINE
  8
0
 10
361.528
 11
361.945
 20
-5.48
 21
-5.218
  0
LINE
  8
0
 10
361.945
 11
362.41
 20
-5.218
 21
-5.055
  0
LINE
  8
0
 10
362.41
 11
362.9
 20
-5.055
 21
-5
  0
LINE
  8
0
 10
362.9
 11
363.39
 20
-5
 21
-5.055
  0
LINE
  8
0
 10
363.39
 11
363.855
 20
-5.055
 21
-5.218
  0
LINE
  8
0
 10
363.855
 11
364.272
 20
-5.218
 21
-5.48
  0
LINE
  8
0
 10
364.272
 11
364.62
 20
-5.48
 21
-5.828
  0
LINE
  8
0
 10
364.62
 11
364.882
 20
-5.828
 21
-6.245
  0
LINE
  8
0
 10
364.882
 11
365.045
 20
-6.245
 21
-6.71
  0
LINE
  8
0
 10
365.045
 11
365.1
 20
-6.71
 21
-7.2
  0
LINE
  8
0
 10
365.1
 11
365.045
 20
-7.2
 21
-7.69
  0
LINE
  8
0
 10
365.045
 11
364.882
 20
-7.69
 21
-8.155
  0
LINE
  8
0
 10
364.882
 11
364.62
 20
-8.155
 21
-8.572
  0
LINE
  8
0
 10
364.62
 11
364.272
 20
-8.572
 21
-8.92
  0
LINE
  8
0
 10
364.272
 11
363.855
 20
-8.92
 21
-9.182
  0
LINE
  8
0
 10
363.855
 11
363.39
 20
-9.182
 21
-9.345
  0
LINE
  8
0
 10
363.39
 11
362.9
 20
-9.345
 21
-9.4
  0
LINE
  8
0
 10
362.9
 11
362.41
 20
-9.4
 21
-9.345
  0
LINE
  8
0
 10
362.41
 11
361.945
 20
-9.345
 21
-9.182
  0
LINE
  8
0
 10
361.945
 11
361.528
 20
-9.182
 21
-8.92
  0
LINE
  8
0
 10
361.528
 11
361.18
 20
-8.92
 21
-8.572
  0
LINE
  8
0
 10
361.18
 11
360.918
 20
-8.572
 21
-8.155
  0
LINE
  8
0
 10
360.918
 11
360.755
 20
-8.155
 21
-7.69
  0
LINE
  8
0
 10
360.755
 11
360.7
 20
-7.69
 21
-7.2
  0
LINE
  8
0
 10
373.885
 11
373.921
 20
-100.078
 21
-99.588
  0
LINE
  8
0
 10
373.921
 11
374.101
 20
-99.588
 21
-99.13
  0
LINE
  8
0
 10
374.101
 11
374.408
 20
-99.13
 21
-98.745
  0
LINE
  8
0
 10
374.408
 11
374.814
 20
-98.745
 21
-98.468
  0
LINE
  8
0
 10
374.814
 11
375.284
 20
-98.468
 21
-98.323
  0
LINE
  8
0
 10
375.284
 11
375.776
 20
-98.323
 21
-98.323
  0
LINE
  8
0
 10
375.776
 11
376.246
 20
-98.323
 21
-98.468
  0
LINE
  8
0
 10
376.246
 11
376.652
 20
-98.468
 21
-98.745
  0
LINE
  8
0
 10
376.652
 11
376.959
 20
-98.745
 21
-99.13
  0
LINE
  8
0
 10
376.959
 11
377.139
 20
-99.13
 21
-99.588
  0
LINE
  8
0
 10
377.139
 11
377.175
 20
-99.588
 21
-100.078
  0
LINE
  8
0
 10
377.175
 11
377.066
 20
-100.078
 21
-100.558
  0
LINE
  8
0
 10
377.066
 11
376.82
 20
-100.558
 21
-100.984
  0
LINE
  8
0
 10
376.82
 11
376.459
 20
-100.984
 21
-101.318
  0
LINE
  8
0
 10
376.459
 11
376.016
 20
-101.318
 21
-101.532
  0
LINE
  8
0
 10
376.016
 11
375.53
 20
-101.532
 21
-101.605
  0
LINE
  8
0
 10
375.53
 11
375.044
 20
-101.605
 21
-101.532
  0
LINE
  8
0
 10
375.044
 11
374.601
 20
-101.532
 21
-101.318
  0
LINE
  8
0
 10
374.601
 11
374.24
 20
-101.318
 21
-100.984
  0
LINE
  8
0
 10
374.24
 11
373.994
 20
-100.984
 21
-100.558
  0
LINE
  8
0
 10
373.994
 11
373.885
 20
-100.558
 21
-100.078
  0
LINE
  8
0
 10
373.885
 11
373.921
 20
-58.168
 21
-57.678
  0
LINE
  8
0
 10
373.921
 11
374.101
 20
-57.678
 21
-57.22
  0
LINE
  8
0
 10
374.101
 11
374.408
 20
-57.22
 21
-56.835
  0
LINE
  8
0
 10
374.408
 11
374.814
 20
-56.835
 21
-56.558
  0
LINE
  8
0
 10
374.814
 11
375.284
 20
-56.558
 21
-56.413
  0
LINE
  8
0
 10
375.284
 11
375.776
 20
-56.413
 21
-56.413
  0
LINE
  8
0
 10
375.776
 11
376.246
 20
-56.413
 21
-56.558
  0
LINE
  8
0
 10
376.246
 11
376.652
 20
-56.558
 21
-56.835
  0
LINE
  8
0
 10
376.652
 11
376.959
 20
-56.835
 21
-57.22
  0
LINE
  8
0
 10
376.959
 11
377.139
 20
-57.22
 21
-57.678
  0
LINE
  8
0
 10
377.139
 11
377.175
 20
-57.678
 21
-58.168
  0
LINE
  8
0
 10
377.175
 11
377.066
 20
-58.168
 21
-58.648
  0
LINE
  8
0
 10
377.066
 11
376.82
 20
-58.648
 21
-59.074
  0
LINE
  8
0
 10
376.82
 11
376.459
 20
-59.074
 21
-59.408
  0
LINE
  8
0
 10
376.459
 11
376.016
 20
-59.408
 21
-59.622
  0
LINE
  8
0
 10
376.016
 11
375.53
 20
-59.622
 21
-59.695
  0
LINE
  8
0
 10
375.53
 11
375.044
 20
-59.695
 21
-59.622
  0
LINE
  8
0
 10
375.044
 11
374.601
 20
-59.622
 21
-59.408
  0
LINE
  8
0
 10
374.601
 11
374.24
 20
-59.408
 21
-59.074
  0
LINE
  8
0
 10
374.24
 11
373.994
 20
-59.074
 21
-58.648
  0
LINE
  8
0
 10
373.994
 11
373.885
 20
-58.648
 21
-58.168
  0
ENDSEC
  0
SECTION
  2
OBJECTS
  0
DICTIONARY
  0
ENDSEC
  0
EOF
