  0
SECTION
  2
BLOCKS
  0
ENDSEC
  0
SECTION
  2
ENTITIES
  0
LINE
  8
0
 10
0
 11
0
 20
-162
 21
-105
  0
LINE
  8
0
 10
0
 11
3.5
 20
-105
 21
-105
  0
LINE
  8
0
 10
3.5
 11
3.998
 20
-105
 21
-104.964
  0
LINE
  8
0
 10
3.998
 11
4.486
 20
-104.964
 21
-104.858
  0
LINE
  8
0
 10
4.486
 11
4.954
 20
-104.858
 21
-104.684
  0
LINE
  8
0
 10
4.954
 11
5.392
 20
-104.684
 21
-104.444
  0
LINE
  8
0
 10
5.392
 11
5.792
 20
-104.444
 21
-104.145
  0
LINE
  8
0
 10
5.792
 11
6.145
 20
-104.145
 21
-103.792
  0
LINE
  8
0
 10
6.145
 11
6.444
 20
-103.792
 21
-103.392
  0
LINE
  8
0
 10
6.444
 11
6.684
 20
-103.392
 21
-102.954
  0
LINE
  8
0
 10
6.684
 11
6.858
 20
-102.954
 21
-102.486
  0
LINE
  8
0
 10
6.858
 11
6.964
 20
-102.486
 21
-101.998
  0
LINE
  8
0
 10
6.964
 11
7
 20
-101.998
 21
-101.5
  0
LINE
  8
0
 10
7
 11
6.964
 20
-101.5
 21
-101.002
  0
LINE
  8
0
 10
6.964
 11
6.858
 20
-101.002
 21
-100.514
  0
LINE
  8
0
 10
6.858
 11
6.684
 20
-100.514
 21
-100.046
  0
LINE
  8
0
 10
6.684
 11
6.444
 20
-100.046
 21
-99.608
  0
LINE
  8
0
 10
6.444
 11
6.145
 20
-99.608
 21
-99.208
  0
LINE
  8
0
 10
6.145
 11
5.792
 20
-99.208
 21
-98.855
  0
LINE
  8
0
 10
5.792
 11
5.392
 20
-98.855
 21
-98.556
  0
LINE
  8
0
 10
5.392
 11
4.954
 20
-98.556
 21
-98.316
  0
LINE
  8
0
 10
4.954
 11
4.486
 20
-98.316
 21
-98.142
  0
LINE
  8
0
 10
4.486
 11
3.998
 20
-98.142
 21
-98.036
  0
LINE
  8
0
 10
3.998
 11
3.5
 20
-98.036
 21
-98
  0
LINE
  8
0
 10
3.5
 11
0
 20
-98
 21
-98
  0
LINE
  8
0
 10
0
 11
0
 20
-98
 21
-90.885
  0
LINE
  8
0
 10
0
 11
2.241
 20
-90.885
 21
-90.885
  0
LINE
  8
0
 10
2.241
 11
2.709
 20
-90.885
 21
-90.77
  0
LINE
  8
0
 10
2.709
 11
3.136
 20
-90.77
 21
-90.546
  0
LINE
  8
0
 10
3.136
 11
3.497
 20
-90.546
 21
-90.226
  0
LINE
  8
0
 10
3.497
 11
3.771
 20
-90.226
 21
-89.829
  0
LINE
  8
0
 10
3.771
 11
3.942
 20
-89.829
 21
-89.379
  0
LINE
  8
0
 10
3.942
 11
4
 20
-89.379
 21
-88.9
  0
LINE
  8
0
 10
4
 11
3.942
 20
-88.9
 21
-88.421
  0
LINE
  8
0
 10
3.942
 11
3.771
 20
-88.421
 21
-87.971
  0
LINE
  8
0
 10
3.771
 11
3.497
 20
-87.971
 21
-87.574
  0
LINE
  8
0
 10
3.497
 11
3.136
 20
-87.574
 21
-87.254
  0
LINE
  8
0
 10
3.136
 11
2.709
 20
-87.254
 21
-87.03
  0
LINE
  8
0
 10
2.709
 11
2.241
 20
-87.03
 21
-86.915
  0
LINE
  8
0
 10
2.241
 11
0
 20
-86.915
 21
-86.915
  0
LINE
  8
0
 10
0
 11
0
 20
-86.915
 21
-32.385
  0
LINE
  8
0
 10
0
 11
2.241
 20
-32.385
 21
-32.385
  0
LINE
  8
0
 10
2.241
 11
2.709
 20
-32.385
 21
-32.27
  0
LINE
  8
0
 10
2.709
 11
3.136
 20
-32.27
 21
-32.046
  0
LINE
  8
0
 10
3.136
 11
3.497
 20
-32.046
 21
-31.726
  0
LINE
  8
0
 10
3.497
 11
3.771
 20
-31.726
 21
-31.329
  0
LINE
  8
0
 10
3.771
 11
3.942
 20
-31.329
 21
-30.879
  0
LINE
  8
0
 10
3.942
 11
4
 20
-30.879
 21
-30.4
  0
LINE
  8
0
 10
4
 11
3.942
 20
-30.4
 21
-29.921
  0
LINE
  8
0
 10
3.942
 11
3.771
 20
-29.921
 21
-29.471
  0
LINE
  8
0
 10
3.771
 11
3.497
 20
-29.471
 21
-29.074
  0
LINE
  8
0
 10
3.497
 11
3.136
 20
-29.074
 21
-28.754
  0
LINE
  8
0
 10
3.136
 11
2.709
 20
-28.754
 21
-28.53
  0
LINE
  8
0
 10
2.709
 11
2.241
 20
-28.53
 21
-28.415
  0
LINE
  8
0
 10
2.241
 11
0
 20
-28.415
 21
-28.415
  0
LINE
  8
0
 10
0
 11
0
 20
-28.415
 21
-23.4
  0
LINE
  8
0
 10
0
 11
2.5
 20
-23.4
 21
-23.4
  0
LINE
  8
0
 10
2.5
 11
2.988
 20
-23.4
 21
-23.352
  0
LINE
  8
0
 10
2.988
 11
3.457
 20
-23.352
 21
-23.21
  0
LINE
  8
0
 10
3.457
 11
3.889
 20
-23.21
 21
-22.979
  0
LINE
  8
0
 10
3.889
 11
4.268
 20
-22.979
 21
-22.668
  0
LINE
  8
0
 10
4.268
 11
4.579
 20
-22.668
 21
-22.289
  0
LINE
  8
0
 10
4.579
 11
4.81
 20
-22.289
 21
-21.857
  0
LINE
  8
0
 10
4.81
 11
4.952
 20
-21.857
 21
-21.388
  0
LINE
  8
0
 10
4.952
 11
5
 20
-21.388
 21
-20.9
  0
LINE
  8
0
 10
5
 11
4.952
 20
-20.9
 21
-20.412
  0
LINE
  8
0
 10
4.952
 11
4.81
 20
-20.412
 21
-19.943
  0
LINE
  8
0
 10
4.81
 11
4.579
 20
-19.943
 21
-19.511
  0
LINE
  8
0
 10
4.579
 11
4.268
 20
-19.511
 21
-19.132
  0
LINE
  8
0
 10
4.268
 11
3.889
 20
-19.132
 21
-18.821
  0
LINE
  8
0
 10
3.889
 11
3.457
 20
-18.821
 21
-18.59
  0
LINE
  8
0
 10
3.457
 11
2.988
 20
-18.59
 21
-18.448
  0
LINE
  8
0
 10
2.988
 11
2.5
 20
-18.448
 21
-18.4
  0
LINE
  8
0
 10
2.5
 11
0
 20
-18.4
 21
-18.4
  0
LINE
  8
0
 10
0
 11
0
 20
-18.4
 21
-4
  0
LINE
  8
0
 10
0
 11
314.69
 20
-4
 21
-4
  0
LINE
  8
0
 10
314.69
 11
314.69
 20
-4
 21
-7.248
  0
LINE
  8
0
 10
314.69
 11
314.772
 20
-7.248
 21
-7.736
  0
LINE
  8
0
 10
314.772
 11
314.933
 20
-7.736
 21
-8.205
  0
LINE
  8
0
 10
314.933
 11
315.169
 20
-8.205
 21
-8.641
  0
LINE
  8
0
 10
315.169
 11
315.473
 20
-8.641
 21
-9.032
  0
LINE
  8
0
 10
315.473
 11
315.837
 20
-9.032
 21
-9.367
  0
LINE
  8
0
 10
315.837
 11
316.252
 20
-9.367
 21
-9.638
  0
LINE
  8
0
 10
316.252
 11
316.706
 20
-9.638
 21
-9.837
  0
LINE
  8
0
 10
316.706
 11
317.186
 20
-9.837
 21
-9.959
  0
LINE
  8
0
 10
317.186
 11
317.68
 20
-9.959
 21
-10
  0
LINE
  8
0
 10
317.68
 11
318.174
 20
-10
 21
-9.959
  0
LINE
  8
0
 10
318.174
 11
318.654
 20
-9.959
 21
-9.837
  0
LINE
  8
0
 10
318.654
 11
319.108
 20
-9.837
 21
-9.638
  0
LINE
  8
0
 10
319.108
 11
319.523
 20
-9.638
 21
-9.367
  0
LINE
  8
0
 10
319.523
 11
319.887
 20
-9.367
 21
-9.032
  0
LINE
  8
0
 10
319.887
 11
320.191
 20
-9.032
 21
-8.641
  0
LINE
  8
0
 10
320.191
 11
320.427
 20
-8.641
 21
-8.205
  0
LINE
  8
0
 10
320.427
 11
320.588
 20
-8.205
 21
-7.736
  0
LINE
  8
0
 10
320.588
 11
320.67
 20
-7.736
 21
-7.248
  0
LINE
  8
0
 10
320.67
 11
320.67
 20
-7.248
 21
-4
  0
LINE
  8
0
 10
320.67
 11
327.595
 20
-4
 21
-4
  0
LINE
  8
0
 10
327.595
 11
327.595
 20
-4
 21
-6.241
  0
LINE
  8
0
 10
327.595
 11
327.71
 20
-6.241
 21
-6.709
  0
LINE
  8
0
 10
327.71
 11
327.934
 20
-6.709
 21
-7.136
  0
LINE
  8
0
 10
327.934
 11
328.254
 20
-7.136
 21
-7.497
  0
LINE
  8
0
 10
328.254
 11
328.651
 20
-7.497
 21
-7.771
  0
LINE
  8
0
 10
328.651
 11
329.101
 20
-7.771
 21
-7.942
  0
LINE
  8
0
 10
329.101
 11
329.58
 20
-7.942
 21
-8
  0
LINE
  8
0
 10
329.58
 11
330.059
 20
-8
 21
-7.942
  0
LINE
  8
0
 10
330.059
 11
330.509
 20
-7.942
 21
-7.771
  0
LINE
  8
0
 10
330.509
 11
330.906
 20
-7.771
 21
-7.497
  0
LINE
  8
0
 10
330.906
 11
331.226
 20
-7.497
 21
-7.136
  0
LINE
  8
0
 10
331.226
 11
331.45
 20
-7.136
 21
-6.709
  0
LINE
  8
0
 10
331.45
 11
331.565
 20
-6.709
 21
-6.241
  0
LINE
  8
0
 10
331.565
 11
331.565
 20
-6.241
 21
-4
  0
LINE
  8
0
 10
331.565
 11
386
 20
-4
 21
-4
  0
LINE
  8
0
 10
386
 11
386
 20
-4
 21
-137
  0
LINE
  8
0
 10
386
 11
385.905
 20
-137
 21
-139.179
  0
LINE
  8
0
 10
385.905
 11
385.62
 20
-139.179
 21
-141.341
  0
LINE
  8
0
 10
385.62
 11
385.148
 20
-141.341
 21
-143.47
  0
LINE
  8
0
 10
385.148
 11
384.492
 20
-143.47
 21
-145.551
  0
LINE
  8
0
 10
384.492
 11
383.658
 20
-145.551
 21
-147.565
  0
LINE
  8
0
 10
383.658
 11
382.651
 20
-147.565
 21
-149.5
  0
LINE
  8
0
 10
382.651
 11
381.479
 20
-149.5
 21
-151.339
  0
LINE
  8
0
 10
381.479
 11
380.151
 20
-151.339
 21
-153.07
  0
LINE
  8
0
 10
380.151
 11
378.678
 20
-153.07
 21
-154.678
  0
LINE
  8
0
 10
378.678
 11
377.07
 20
-154.678
 21
-156.151
  0
LINE
  8
0
 10
377.07
 11
375.339
 20
-156.151
 21
-157.479
  0
LINE
  8
0
 10
375.339
 11
373.5
 20
-157.479
 21
-158.651
  0
LINE
  8
0
 10
373.5
 11
371.565
 20
-158.651
 21
-159.658
  0
LINE
  8
0
 10
371.565
 11
369.551
 20
-159.658
 21
-160.492
  0
LINE
  8
0
 10
369.551
 11
367.47
 20
-160.492
 21
-161.148
  0
LINE
  8
0
 10
367.47
 11
365.341
 20
-161.148
 21
-161.62
  0
LINE
  8
0
 10
365.341
 11
363.179
 20
-161.62
 21
-161.905
  0
LINE
  8
0
 10
363.179
 11
361
 20
-161.905
 21
-162
  0
LINE
  8
0
 10
361
 11
0
 20
-162
 21
-162
  0
LINE
  8
0
 10
0
 11
0
 20
0
 21
158
  0
LINE
  8
0
 10
0
 11
361
 20
158
 21
158
  0
LINE
  8
0
 10
361
 11
363.179
 20
158
 21
157.905
  0
LINE
  8
0
 10
363.179
 11
365.341
 20
157.905
 21
157.62
  0
LINE
  8
0
 10
365.341
 11
367.47
 20
157.62
 21
157.148
  0
LINE
  8
0
 10
367.47
 11
369.551
 20
157.148
 21
156.492
  0
LINE
  8
0
 10
369.551
 11
371.565
 20
156.492
 21
155.658
  0
LINE
  8
0
 10
371.565
 11
373.5
 20
155.658
 21
154.651
  0
LINE
  8
0
 10
373.5
 11
375.339
 20
154.651
 21
153.479
  0
LINE
  8
0
 10
375.339
 11
377.07
 20
153.479
 21
152.151
  0
LINE
  8
0
 10
377.07
 11
378.678
 20
152.151
 21
150.678
  0
LINE
  8
0
 10
378.678
 11
380.151
 20
150.678
 21
149.07
  0
LINE
  8
0
 10
380.151
 11
381.479
 20
149.07
 21
147.339
  0
LINE
  8
0
 10
381.479
 11
382.651
 20
147.339
 21
145.5
  0
LINE
  8
0
 10
382.651
 11
383.658
 20
145.5
 21
143.565
  0
LINE
  8
0
 10
383.658
 11
384.492
 20
143.565
 21
141.551
  0
LINE
  8
0
 10
384.492
 11
385.148
 20
141.551
 21
139.47
  0
LINE
  8
0
 10
385.148
 11
385.62
 20
139.47
 21
137.341
  0
LINE
  8
0
 10
385.62
 11
385.905
 20
137.341
 21
135.179
  0
LINE
  8
0
 10
385.905
 11
386
 20
135.179
 21
133
  0
LINE
  8
0
 10
386
 11
386
 20
133
 21
0
  0
LINE
  8
0
 10
386
 11
331.565
 20
0
 21
0
  0
LINE
  8
0
 10
331.565
 11
331.565
 20
0
 21
2.241
  0
LINE
  8
0
 10
331.565
 11
331.45
 20
2.241
 21
2.709
  0
LINE
  8
0
 10
331.45
 11
331.226
 20
2.709
 21
3.136
  0
LINE
  8
0
 10
331.226
 11
330.906
 20
3.136
 21
3.497
  0
LINE
  8
0
 10
330.906
 11
330.509
 20
3.497
 21
3.771
  0
LINE
  8
0
 10
330.509
 11
330.059
 20
3.771
 21
3.942
  0
LINE
  8
0
 10
330.059
 11
329.58
 20
3.942
 21
4
  0
LINE
  8
0
 10
329.58
 11
329.101
 20
4
 21
3.942
  0
LINE
  8
0
 10
329.101
 11
328.651
 20
3.942
 21
3.771
  0
LINE
  8
0
 10
328.651
 11
328.254
 20
3.771
 21
3.497
  0
LINE
  8
0
 10
328.254
 11
327.934
 20
3.497
 21
3.136
  0
LINE
  8
0
 10
327.934
 11
327.71
 20
3.136
 21
2.709
  0
LINE
  8
0
 10
327.71
 11
327.595
 20
2.709
 21
2.241
  0
LINE
  8
0
 10
327.595
 11
327.595
 20
2.241
 21
0
  0
LINE
  8
0
 10
327.595
 11
320.67
 20
0
 21
0
  0
LINE
  8
0
 10
320.67
 11
320.67
 20
0
 21
3.248
  0
LINE
  8
0
 10
320.67
 11
320.588
 20
3.248
 21
3.736
  0
LINE
  8
0
 10
320.588
 11
320.427
 20
3.736
 21
4.205
  0
LINE
  8
0
 10
320.427
 11
320.191
 20
4.205
 21
4.641
  0
LINE
  8
0
 10
320.191
 11
319.887
 20
4.641
 21
5.032
  0
LINE
  8
0
 10
319.887
 11
319.523
 20
5.032
 21
5.367
  0
LINE
  8
0
 10
319.523
 11
319.108
 20
5.367
 21
5.638
  0
LINE
  8
0
 10
319.108
 11
318.654
 20
5.638
 21
5.837
  0
LINE
  8
0
 10
318.654
 11
318.174
 20
5.837
 21
5.959
  0
LINE
  8
0
 10
318.174
 11
317.68
 20
5.959
 21
6
  0
LINE
  8
0
 10
317.68
 11
317.186
 20
6
 21
5.959
  0
LINE
  8
0
 10
317.186
 11
316.706
 20
5.959
 21
5.837
  0
LINE
  8
0
 10
316.706
 11
316.252
 20
5.837
 21
5.638
  0
LINE
  8
0
 10
316.252
 11
315.837
 20
5.638
 21
5.367
  0
LINE
  8
0
 10
315.837
 11
315.473
 20
5.367
 21
5.032
  0
LINE
  8
0
 10
315.473
 11
315.169
 20
5.032
 21
4.641
  0
LINE
  8
0
 10
315.169
 11
314.933
 20
4.641
 21
4.205
  0
LINE
  8
0
 10
314.933
 11
314.772
 20
4.205
 21
3.736
  0
LINE
  8
0
 10
314.772
 11
314.69
 20
3.736
 21
3.248
  0
LINE
  8
0
 10
314.69
 11
314.69
 20
3.248
 21
0
  0
LINE
  8
0
 10
314.69
 11
0
 20
0
 21
0
  0
LINE
  8
0
 10
5
 11
5.055
 20
-153.3
 21
-152.81
  0
LINE
  8
0
 10
5.055
 11
5.218
 20
-152.81
 21
-152.345
  0
LINE
  8
0
 10
5.218
 11
5.48
 20
-152.345
 21
-151.928
  0
LINE
  8
0
 10
5.48
 11
5.828
 20
-151.928
 21
-151.58
  0
LINE
  8
0
 10
5.828
 11
6.245
 20
-151.58
 21
-151.318
  0
LINE
  8
0
 10
6.245
 11
6.71
 20
-151.318
 21
-151.155
  0
LINE
  8
0
 10
6.71
 11
7.2
 20
-151.155
 21
-151.1
  0
LINE
  8
0
 10
7.2
 11
7.69
 20
-151.1
 21
-151.155
  0
LINE
  8
0
 10
7.69
 11
8.155
 20
-151.155
 21
-151.318
  0
LINE
  8
0
 10
8.155
 11
8.572
 20
-151.318
 21
-151.58
  0
LINE
  8
0
 10
8.572
 11
8.92
 20
-151.58
 21
-151.928
  0
LINE
  8
0
 10
8.92
 11
9.182
 20
-151.928
 21
-152.345
  0
LINE
  8
0
 10
9.182
 11
9.345
 20
-152.345
 21
-152.81
  0
LINE
  8
0
 10
9.345
 11
9.4
 20
-152.81
 21
-153.3
  0
LINE
  8
0
 10
9.4
 11
9.345
 20
-153.3
 21
-153.79
  0
LINE
  8
0
 10
9.345
 11
9.182
 20
-153.79
 21
-154.255
  0
LINE
  8
0
 10
9.182
 11
8.92
 20
-154.255
 21
-154.672
  0
LINE
  8
0
 10
8.92
 11
8.572
 20
-154.672
 21
-155.02
  0
LINE
  8
0
 10
8.572
 11
8.155
 20
-155.02
 21
-155.282
  0
LINE
  8
0
 10
8.155
 11
7.69
 20
-155.282
 21
-155.445
  0
LINE
  8
0
 10
7.69
 11
7.2
 20
-155.445
 21
-155.5
  0
LINE
  8
0
 10
7.2
 11
6.71
 20
-155.5
 21
-155.445
  0
LINE
  8
0
 10
6.71
 11
6.245
 20
-155.445
 21
-155.282
  0
LINE
  8
0
 10
6.245
 11
5.828
 20
-155.282
 21
-155.02
  0
LINE
  8
0
 10
5.828
 11
5.48
 20
-155.02
 21
-154.672
  0
LINE
  8
0
 10
5.48
 11
5.218
 20
-154.672
 21
-154.255
  0
LINE
  8
0
 10
5.218
 11
5.055
 20
-154.255
 21
-153.79
  0
LINE
  8
0
 10
5.055
 11
5
 20
-153.79
 21
-153.3
  0
LINE
  8
0
 10
5
 11
5.055
 20
-132.08
 21
-131.59
  0
LINE
  8
0
 10
5.055
 11
5.218
 20
-131.59
 21
-131.125
  0
LINE
  8
0
 10
5.218
 11
5.48
 20
-131.125
 21
-130.708
  0
LINE
  8
0
 10
5.48
 11
5.828
 20
-130.708
 21
-130.36
  0
LINE
  8
0
 10
5.828
 11
6.245
 20
-130.36
 21
-130.098
  0
LINE
  8
0
 10
6.245
 11
6.71
 20
-130.098
 21
-129.935
  0
LINE
  8
0
 10
6.71
 11
7.2
 20
-129.935
 21
-129.88
  0
LINE
  8
0
 10
7.2
 11
7.69
 20
-129.88
 21
-129.935
  0
LINE
  8
0
 10
7.69
 11
8.155
 20
-129.935
 21
-130.098
  0
LINE
  8
0
 10
8.155
 11
8.572
 20
-130.098
 21
-130.36
  0
LINE
  8
0
 10
8.572
 11
8.92
 20
-130.36
 21
-130.708
  0
LINE
  8
0
 10
8.92
 11
9.182
 20
-130.708
 21
-131.125
  0
LINE
  8
0
 10
9.182
 11
9.345
 20
-131.125
 21
-131.59
  0
LINE
  8
0
 10
9.345
 11
9.4
 20
-131.59
 21
-132.08
  0
LINE
  8
0
 10
9.4
 11
9.345
 20
-132.08
 21
-132.57
  0
LINE
  8
0
 10
9.345
 11
9.182
 20
-132.57
 21
-133.035
  0
LINE
  8
0
 10
9.182
 11
8.92
 20
-133.035
 21
-133.452
  0
LINE
  8
0
 10
8.92
 11
8.572
 20
-133.452
 21
-133.8
  0
LINE
  8
0
 10
8.572
 11
8.155
 20
-133.8
 21
-134.062
  0
LINE
  8
0
 10
8.155
 11
7.69
 20
-134.062
 21
-134.225
  0
LINE
  8
0
 10
7.69
 11
7.2
 20
-134.225
 21
-134.28
  0
LINE
  8
0
 10
7.2
 11
6.71
 20
-134.28
 21
-134.225
  0
LINE
  8
0
 10
6.71
 11
6.245
 20
-134.225
 21
-134.062
  0
LINE
  8
0
 10
6.245
 11
5.828
 20
-134.062
 21
-133.8
  0
LINE
  8
0
 10
5.828
 11
5.48
 20
-133.8
 21
-133.452
  0
LINE
  8
0
 10
5.48
 11
5.218
 20
-133.452
 21
-133.035
  0
LINE
  8
0
 10
5.218
 11
5.055
 20
-133.035
 21
-132.57
  0
LINE
  8
0
 10
5.055
 11
5
 20
-132.57
 21
-132.08
  0
LINE
  8
0
 10
5
 11
5.055
 20
128.08
 21
128.57
  0
LINE
  8
0
 10
5.055
 11
5.218
 20
128.57
 21
129.035
  0
LINE
  8
0
 10
5.218
 11
5.48
 20
129.035
 21
129.452
  0
LINE
  8
0
 10
5.48
 11
5.828
 20
129.452
 21
129.8
  0
LINE
  8
0
 10
5.828
 11
6.245
 20
129.8
 21
130.062
  0
LINE
  8
0
 10
6.245
 11
6.71
 20
130.062
 21
130.225
  0
LINE
  8
0
 10
6.71
 11
7.2
 20
130.225
 21
130.28
  0
LINE
  8
0
 10
7.2
 11
7.69
 20
130.28
 21
130.225
  0
LINE
  8
0
 10
7.69
 11
8.155
 20
130.225
 21
130.062
  0
LINE
  8
0
 10
8.155
 11
8.572
 20
130.062
 21
129.8
  0
LINE
  8
0
 10
8.572
 11
8.92
 20
129.8
 21
129.452
  0
LINE
  8
0
 10
8.92
 11
9.182
 20
129.452
 21
129.035
  0
LINE
  8
0
 10
9.182
 11
9.345
 20
129.035
 21
128.57
  0
LINE
  8
0
 10
9.345
 11
9.4
 20
128.57
 21
128.08
  0
LINE
  8
0
 10
9.4
 11
9.345
 20
128.08
 21
127.59
  0
LINE
  8
0
 10
9.345
 11
9.182
 20
127.59
 21
127.125
  0
LINE
  8
0
 10
9.182
 11
8.92
 20
127.125
 21
126.708
  0
LINE
  8
0
 10
8.92
 11
8.572
 20
126.708
 21
126.36
  0
LINE
  8
0
 10
8.572
 11
8.155
 20
126.36
 21
126.098
  0
LINE
  8
0
 10
8.155
 11
7.69
 20
126.098
 21
125.935
  0
LINE
  8
0
 10
7.69
 11
7.2
 20
125.935
 21
125.88
  0
LINE
  8
0
 10
7.2
 11
6.71
 20
125.88
 21
125.935
  0
LINE
  8
0
 10
6.71
 11
6.245
 20
125.935
 21
126.098
  0
LINE
  8
0
 10
6.245
 11
5.828
 20
126.098
 21
126.36
  0
LINE
  8
0
 10
5.828
 11
5.48
 20
126.36
 21
126.708
  0
LINE
  8
0
 10
5.48
 11
5.218
 20
126.708
 21
127.125
  0
LINE
  8
0
 10
5.218
 11
5.055
 20
127.125
 21
127.59
  0
LINE
  8
0
 10
5.055
 11
5
 20
127.59
 21
128.08
  0
LINE
  8
0
 10
5
 11
5.055
 20
149.3
 21
149.79
  0
LINE
  8
0
 10
5.055
 11
5.218
 20
149.79
 21
150.255
  0
LINE
  8
0
 10
5.218
 11
5.48
 20
150.255
 21
150.672
  0
LINE
  8
0
 10
5.48
 11
5.828
 20
150.672
 21
151.02
  0
LINE
  8
0
 10
5.828
 11
6.245
 20
151.02
 21
151.282
  0
LINE
  8
0
 10
6.245
 11
6.71
 20
151.282
 21
151.445
  0
LINE
  8
0
 10
6.71
 11
7.2
 20
151.445
 21
151.5
  0
LINE
  8
0
 10
7.2
 11
7.69
 20
151.5
 21
151.445
  0
LINE
  8
0
 10
7.69
 11
8.155
 20
151.445
 21
151.282
  0
LINE
  8
0
 10
8.155
 11
8.572
 20
151.282
 21
151.02
  0
LINE
  8
0
 10
8.572
 11
8.92
 20
151.02
 21
150.672
  0
LINE
  8
0
 10
8.92
 11
9.182
 20
150.672
 21
150.255
  0
LINE
  8
0
 10
9.182
 11
9.345
 20
150.255
 21
149.79
  0
LINE
  8
0
 10
9.345
 11
9.4
 20
149.79
 21
149.3
  0
LINE
  8
0
 10
9.4
 11
9.345
 20
149.3
 21
148.81
  0
LINE
  8
0
 10
9.345
 11
9.182
 20
148.81
 21
148.345
  0
LINE
  8
0
 10
9.182
 11
8.92
 20
148.345
 21
147.928
  0
LINE
  8
0
 10
8.92
 11
8.572
 20
147.928
 21
147.58
  0
LINE
  8
0
 10
8.572
 11
8.155
 20
147.58
 21
147.318
  0
LINE
  8
0
 10
8.155
 11
7.69
 20
147.318
 21
147.155
  0
LINE
  8
0
 10
7.69
 11
7.2
 20
147.155
 21
147.1
  0
LINE
  8
0
 10
7.2
 11
6.71
 20
147.1
 21
147.155
  0
LINE
  8
0
 10
6.71
 11
6.245
 20
147.155
 21
147.318
  0
LINE
  8
0
 10
6.245
 11
5.828
 20
147.318
 21
147.58
  0
LINE
  8
0
 10
5.828
 11
5.48
 20
147.58
 21
147.928
  0
LINE
  8
0
 10
5.48
 11
5.218
 20
147.928
 21
148.345
  0
LINE
  8
0
 10
5.218
 11
5.055
 20
148.345
 21
148.81
  0
LINE
  8
0
 10
5.055
 11
5
 20
148.81
 21
149.3
  0
LINE
  8
0
 10
20.9
 11
20.955
 20
-11.2
 21
-10.71
  0
LINE
  8
0
 10
20.955
 11
21.118
 20
-10.71
 21
-10.245
  0
LINE
  8
0
 10
21.118
 11
21.38
 20
-10.245
 21
-9.828
  0
LINE
  8
0
 10
21.38
 11
21.728
 20
-9.828
 21
-9.48
  0
LINE
  8
0
 10
21.728
 11
22.145
 20
-9.48
 21
-9.218
  0
LINE
  8
0
 10
22.145
 11
22.61
 20
-9.218
 21
-9.055
  0
LINE
  8
0
 10
22.61
 11
23.1
 20
-9.055
 21
-9
  0
LINE
  8
0
 10
23.1
 11
23.59
 20
-9
 21
-9.055
  0
LINE
  8
0
 10
23.59
 11
24.055
 20
-9.055
 21
-9.218
  0
LINE
  8
0
 10
24.055
 11
24.472
 20
-9.218
 21
-9.48
  0
LINE
  8
0
 10
24.472
 11
24.82
 20
-9.48
 21
-9.828
  0
LINE
  8
0
 10
24.82
 11
25.082
 20
-9.828
 21
-10.245
  0
LINE
  8
0
 10
25.082
 11
25.245
 20
-10.245
 21
-10.71
  0
LINE
  8
0
 10
25.245
 11
25.3
 20
-10.71
 21
-11.2
  0
LINE
  8
0
 10
25.3
 11
25.245
 20
-11.2
 21
-11.69
  0
LINE
  8
0
 10
25.245
 11
25.082
 20
-11.69
 21
-12.155
  0
LINE
  8
0
 10
25.082
 11
24.82
 20
-12.155
 21
-12.572
  0
LINE
  8
0
 10
24.82
 11
24.472
 20
-12.572
 21
-12.92
  0
LINE
  8
0
 10
24.472
 11
24.055
 20
-12.92
 21
-13.182
  0
LINE
  8
0
 10
24.055
 11
23.59
 20
-13.182
 21
-13.345
  0
LINE
  8
0
 10
23.59
 11
23.1
 20
-13.345
 21
-13.4
  0
LINE
  8
0
 10
23.1
 11
22.61
 20
-13.4
 21
-13.345
  0
LINE
  8
0
 10
22.61
 11
22.145
 20
-13.345
 21
-13.182
  0
LINE
  8
0
 10
22.145
 11
21.728
 20
-13.182
 21
-12.92
  0
LINE
  8
0
 10
21.728
 11
21.38
 20
-12.92
 21
-12.572
  0
LINE
  8
0
 10
21.38
 11
21.118
 20
-12.572
 21
-12.155
  0
LINE
  8
0
 10
21.118
 11
20.955
 20
-12.155
 21
-11.69
  0
LINE
  8
0
 10
20.955
 11
20.9
 20
-11.69
 21
-11.2
  0
LINE
  8
0
 10
20.9
 11
20.955
 20
7.2
 21
7.69
  0
LINE
  8
0
 10
20.955
 11
21.118
 20
7.69
 21
8.155
  0
LINE
  8
0
 10
21.118
 11
21.38
 20
8.155
 21
8.572
  0
LINE
  8
0
 10
21.38
 11
21.728
 20
8.572
 21
8.92
  0
LINE
  8
0
 10
21.728
 11
22.145
 20
8.92
 21
9.182
  0
LINE
  8
0
 10
22.145
 11
22.61
 20
9.182
 21
9.345
  0
LINE
  8
0
 10
22.61
 11
23.1
 20
9.345
 21
9.4
  0
LINE
  8
0
 10
23.1
 11
23.59
 20
9.4
 21
9.345
  0
LINE
  8
0
 10
23.59
 11
24.055
 20
9.345
 21
9.182
  0
LINE
  8
0
 10
24.055
 11
24.472
 20
9.182
 21
8.92
  0
LINE
  8
0
 10
24.472
 11
24.82
 20
8.92
 21
8.572
  0
LINE
  8
0
 10
24.82
 11
25.082
 20
8.572
 21
8.155
  0
LINE
  8
0
 10
25.082
 11
25.245
 20
8.155
 21
7.69
  0
LINE
  8
0
 10
25.245
 11
25.3
 20
7.69
 21
7.2
  0
LINE
  8
0
 10
25.3
 11
25.245
 20
7.2
 21
6.71
  0
LINE
  8
0
 10
25.245
 11
25.082
 20
6.71
 21
6.245
  0
LINE
  8
0
 10
25.082
 11
24.82
 20
6.245
 21
5.828
  0
LINE
  8
0
 10
24.82
 11
24.472
 20
5.828
 21
5.48
  0
LINE
  8
0
 10
24.472
 11
24.055
 20
5.48
 21
5.218
  0
LINE
  8
0
 10
24.055
 11
23.59
 20
5.218
 21
5.055
  0
LINE
  8
0
 10
23.59
 11
23.1
 20
5.055
 21
5
  0
LINE
  8
0
 10
23.1
 11
22.61
 20
5
 21
5.055
  0
LINE
  8
0
 10
22.61
 11
22.145
 20
5.055
 21
5.218
  0
LINE
  8
0
 10
22.145
 11
21.728
 20
5.218
 21
5.48
  0
LINE
  8
0
 10
21.728
 11
21.38
 20
5.48
 21
5.828
  0
LINE
  8
0
 10
21.38
 11
21.118
 20
5.828
 21
6.245
  0
LINE
  8
0
 10
21.118
 11
20.955
 20
6.245
 21
6.71
  0
LINE
  8
0
 10
20.955
 11
20.9
 20
6.71
 21
7.2
  0
LINE
  8
0
 10
29.55
 11
29.605
 20
-155.15
 21
-154.66
  0
LINE
  8
0
 10
29.605
 11
29.768
 20
-154.66
 21
-154.195
  0
LINE
  8
0
 10
29.768
 11
30.03
 20
-154.195
 21
-153.778
  0
LINE
  8
0
 10
30.03
 11
30.378
 20
-153.778
 21
-153.43
  0
LINE
  8
0
 10
30.378
 11
30.795
 20
-153.43
 21
-153.168
  0
LINE
  8
0
 10
30.795
 11
31.26
 20
-153.168
 21
-153.005
  0
LINE
  8
0
 10
31.26
 11
31.75
 20
-153.005
 21
-152.95
  0
LINE
  8
0
 10
31.75
 11
32.24
 20
-152.95
 21
-153.005
  0
LINE
  8
0
 10
32.24
 11
32.705
 20
-153.005
 21
-153.168
  0
LINE
  8
0
 10
32.705
 11
33.122
 20
-153.168
 21
-153.43
  0
LINE
  8
0
 10
33.122
 11
33.47
 20
-153.43
 21
-153.778
  0
LINE
  8
0
 10
33.47
 11
33.732
 20
-153.778
 21
-154.195
  0
LINE
  8
0
 10
33.732
 11
33.895
 20
-154.195
 21
-154.66
  0
LINE
  8
0
 10
33.895
 11
33.95
 20
-154.66
 21
-155.15
  0
LINE
  8
0
 10
33.95
 11
33.895
 20
-155.15
 21
-155.64
  0
LINE
  8
0
 10
33.895
 11
33.732
 20
-155.64
 21
-156.105
  0
LINE
  8
0
 10
33.732
 11
33.47
 20
-156.105
 21
-156.522
  0
LINE
  8
0
 10
33.47
 11
33.122
 20
-156.522
 21
-156.87
  0
LINE
  8
0
 10
33.122
 11
32.705
 20
-156.87
 21
-157.132
  0
LINE
  8
0
 10
32.705
 11
32.24
 20
-157.132
 21
-157.295
  0
LINE
  8
0
 10
32.24
 11
31.75
 20
-157.295
 21
-157.35
  0
LINE
  8
0
 10
31.75
 11
31.26
 20
-157.35
 21
-157.295
  0
LINE
  8
0
 10
31.26
 11
30.795
 20
-157.295
 21
-157.132
  0
LINE
  8
0
 10
30.795
 11
30.378
 20
-157.132
 21
-156.87
  0
LINE
  8
0
 10
30.378
 11
30.03
 20
-156.87
 21
-156.522
  0
LINE
  8
0
 10
30.03
 11
29.768
 20
-156.522
 21
-156.105
  0
LINE
  8
0
 10
29.768
 11
29.605
 20
-156.105
 21
-155.64
  0
LINE
  8
0
 10
29.605
 11
29.55
 20
-155.64
 21
-155.15
  0
LINE
  8
0
 10
42.12
 11
42.175
 20
-11.2
 21
-10.71
  0
LINE
  8
0
 10
42.175
 11
42.338
 20
-10.71
 21
-10.245
  0
LINE
  8
0
 10
42.338
 11
42.6
 20
-10.245
 21
-9.828
  0
LINE
  8
0
 10
42.6
 11
42.948
 20
-9.828
 21
-9.48
  0
LINE
  8
0
 10
42.948
 11
43.365
 20
-9.48
 21
-9.218
  0
LINE
  8
0
 10
43.365
 11
43.83
 20
-9.218
 21
-9.055
  0
LINE
  8
0
 10
43.83
 11
44.32
 20
-9.055
 21
-9
  0
LINE
  8
0
 10
44.32
 11
44.81
 20
-9
 21
-9.055
  0
LINE
  8
0
 10
44.81
 11
45.275
 20
-9.055
 21
-9.218
  0
LINE
  8
0
 10
45.275
 11
45.692
 20
-9.218
 21
-9.48
  0
LINE
  8
0
 10
45.692
 11
46.04
 20
-9.48
 21
-9.828
  0
LINE
  8
0
 10
46.04
 11
46.302
 20
-9.828
 21
-10.245
  0
LINE
  8
0
 10
46.302
 11
46.465
 20
-10.245
 21
-10.71
  0
LINE
  8
0
 10
46.465
 11
46.52
 20
-10.71
 21
-11.2
  0
LINE
  8
0
 10
46.52
 11
46.465
 20
-11.2
 21
-11.69
  0
LINE
  8
0
 10
46.465
 11
46.302
 20
-11.69
 21
-12.155
  0
LINE
  8
0
 10
46.302
 11
46.04
 20
-12.155
 21
-12.572
  0
LINE
  8
0
 10
46.04
 11
45.692
 20
-12.572
 21
-12.92
  0
LINE
  8
0
 10
45.692
 11
45.275
 20
-12.92
 21
-13.182
  0
LINE
  8
0
 10
45.275
 11
44.81
 20
-13.182
 21
-13.345
  0
LINE
  8
0
 10
44.81
 11
44.32
 20
-13.345
 21
-13.4
  0
LINE
  8
0
 10
44.32
 11
43.83
 20
-13.4
 21
-13.345
  0
LINE
  8
0
 10
43.83
 11
43.365
 20
-13.345
 21
-13.182
  0
LINE
  8
0
 10
43.365
 11
42.948
 20
-13.182
 21
-12.92
  0
LINE
  8
0
 10
42.948
 11
42.6
 20
-12.92
 21
-12.572
  0
LINE
  8
0
 10
42.6
 11
42.338
 20
-12.572
 21
-12.155
  0
LINE
  8
0
 10
42.338
 11
42.175
 20
-12.155
 21
-11.69
  0
LINE
  8
0
 10
42.175
 11
42.12
 20
-11.69
 21
-11.2
  0
LINE
  8
0
 10
42.12
 11
42.175
 20
7.2
 21
7.69
  0
LINE
  8
0
 10
42.175
 11
42.338
 20
7.69
 21
8.155
  0
LINE
  8
0
 10
42.338
 11
42.6
 20
8.155
 21
8.572
  0
LINE
  8
0
 10
42.6
 11
42.948
 20
8.572
 21
8.92
  0
LINE
  8
0
 10
42.948
 11
43.365
 20
8.92
 21
9.182
  0
LINE
  8
0
 10
43.365
 11
43.83
 20
9.182
 21
9.345
  0
LINE
  8
0
 10
43.83
 11
44.32
 20
9.345
 21
9.4
  0
LINE
  8
0
 10
44.32
 11
44.81
 20
9.4
 21
9.345
  0
LINE
  8
0
 10
44.81
 11
45.275
 20
9.345
 21
9.182
  0
LINE
  8
0
 10
45.275
 11
45.692
 20
9.182
 21
8.92
  0
LINE
  8
0
 10
45.692
 11
46.04
 20
8.92
 21
8.572
  0
LINE
  8
0
 10
46.04
 11
46.302
 20
8.572
 21
8.155
  0
LINE
  8
0
 10
46.302
 11
46.465
 20
8.155
 21
7.69
  0
LINE
  8
0
 10
46.465
 11
46.52
 20
7.69
 21
7.2
  0
LINE
  8
0
 10
46.52
 11
46.465
 20
7.2
 21
6.71
  0
LINE
  8
0
 10
46.465
 11
46.302
 20
6.71
 21
6.245
  0
LINE
  8
0
 10
46.302
 11
46.04
 20
6.245
 21
5.828
  0
LINE
  8
0
 10
46.04
 11
45.692
 20
5.828
 21
5.48
  0
LINE
  8
0
 10
45.692
 11
45.275
 20
5.48
 21
5.218
  0
LINE
  8
0
 10
45.275
 11
44.81
 20
5.218
 21
5.055
  0
LINE
  8
0
 10
44.81
 11
44.32
 20
5.055
 21
5
  0
LINE
  8
0
 10
44.32
 11
43.83
 20
5
 21
5.055
  0
LINE
  8
0
 10
43.83
 11
43.365
 20
5.055
 21
5.218
  0
LINE
  8
0
 10
43.365
 11
42.948
 20
5.218
 21
5.48
  0
LINE
  8
0
 10
42.948
 11
42.6
 20
5.48
 21
5.828
  0
LINE
  8
0
 10
42.6
 11
42.338
 20
5.828
 21
6.245
  0
LINE
  8
0
 10
42.338
 11
42.175
 20
6.245
 21
6.71
  0
LINE
  8
0
 10
42.175
 11
42.12
 20
6.71
 21
7.2
  0
LINE
  8
0
 10
51.5
 11
51.717
 20
75.4
 21
80.368
  0
LINE
  8
0
 10
51.717
 11
52.366
 20
80.368
 21
85.298
  0
LINE
  8
0
 10
52.366
 11
53.442
 20
85.298
 21
90.153
  0
LINE
  8
0
 10
53.442
 11
54.938
 20
90.153
 21
94.895
  0
LINE
  8
0
 10
54.938
 11
56.84
 20
94.895
 21
99.489
  0
LINE
  8
0
 10
56.84
 11
59.137
 20
99.489
 21
103.9
  0
LINE
  8
0
 10
59.137
 11
61.808
 20
103.9
 21
108.094
  0
LINE
  8
0
 10
61.808
 11
64.835
 20
108.094
 21
112.039
  0
LINE
  8
0
 10
64.835
 11
66.731
 20
112.039
 21
114.107
  0
LINE
  8
0
 10
66.731
 11
66.518
 20
114.107
 21
114.445
  0
LINE
  8
0
 10
66.518
 11
66.355
 20
114.445
 21
114.91
  0
LINE
  8
0
 10
66.355
 11
66.3
 20
114.91
 21
115.4
  0
LINE
  8
0
 10
66.3
 11
66.355
 20
115.4
 21
115.89
  0
LINE
  8
0
 10
66.355
 11
66.518
 20
115.89
 21
116.355
  0
LINE
  8
0
 10
66.518
 11
66.78
 20
116.355
 21
116.772
  0
LINE
  8
0
 10
66.78
 11
67.128
 20
116.772
 21
117.12
  0
LINE
  8
0
 10
67.128
 11
67.545
 20
117.12
 21
117.382
  0
LINE
  8
0
 10
67.545
 11
68.01
 20
117.382
 21
117.545
  0
LINE
  8
0
 10
68.01
 11
68.5
 20
117.545
 21
117.6
  0
LINE
  8
0
 10
68.5
 11
68.99
 20
117.6
 21
117.545
  0
LINE
  8
0
 10
68.99
 11
69.455
 20
117.545
 21
117.382
  0
LINE
  8
0
 10
69.455
 11
69.793
 20
117.382
 21
117.169
  0
LINE
  8
0
 10
69.793
 11
71.861
 20
117.169
 21
119.065
  0
LINE
  8
0
 10
71.861
 11
75.806
 20
119.065
 21
122.092
  0
LINE
  8
0
 10
75.806
 11
80
 20
122.092
 21
124.763
  0
LINE
  8
0
 10
80
 11
84.411
 20
124.763
 21
127.06
  0
LINE
  8
0
 10
84.411
 11
89.005
 20
127.06
 21
128.962
  0
LINE
  8
0
 10
89.005
 11
93.747
 20
128.962
 21
130.458
  0
LINE
  8
0
 10
93.747
 11
98.602
 20
130.458
 21
131.534
  0
LINE
  8
0
 10
98.602
 11
103.532
 20
131.534
 21
132.183
  0
LINE
  8
0
 10
103.532
 11
108.5
 20
132.183
 21
132.4
  0
LINE
  8
0
 10
108.5
 11
113.468
 20
132.4
 21
132.183
  0
LINE
  8
0
 10
113.468
 11
118.398
 20
132.183
 21
131.534
  0
LINE
  8
0
 10
118.398
 11
123.253
 20
131.534
 21
130.458
  0
LINE
  8
0
 10
123.253
 11
127.995
 20
130.458
 21
128.962
  0
LINE
  8
0
 10
127.995
 11
132.589
 20
128.962
 21
127.06
  0
LINE
  8
0
 10
132.589
 11
137
 20
127.06
 21
124.763
  0
LINE
  8
0
 10
137
 11
141.194
 20
124.763
 21
122.092
  0
LINE
  8
0
 10
141.194
 11
145.139
 20
122.092
 21
119.065
  0
LINE
  8
0
 10
145.139
 11
147.207
 20
119.065
 21
117.169
  0
LINE
  8
0
 10
147.207
 11
147.545
 20
117.169
 21
117.382
  0
LINE
  8
0
 10
147.545
 11
148.01
 20
117.382
 21
117.545
  0
LINE
  8
0
 10
148.01
 11
148.5
 20
117.545
 21
117.6
  0
LINE
  8
0
 10
148.5
 11
148.99
 20
117.6
 21
117.545
  0
LINE
  8
0
 10
148.99
 11
149.455
 20
117.545
 21
117.382
  0
LINE
  8
0
 10
149.455
 11
149.872
 20
117.382
 21
117.12
  0
LINE
  8
0
 10
149.872
 11
150.22
 20
117.12
 21
116.772
  0
LINE
  8
0
 10
150.22
 11
150.482
 20
116.772
 21
116.355
  0
LINE
  8
0
 10
150.482
 11
150.645
 20
116.355
 21
115.89
  0
LINE
  8
0
 10
150.645
 11
150.7
 20
115.89
 21
115.4
  0
LINE
  8
0
 10
150.7
 11
150.645
 20
115.4
 21
114.91
  0
LINE
  8
0
 10
150.645
 11
150.482
 20
114.91
 21
114.445
  0
LINE
  8
0
 10
150.482
 11
150.269
 20
114.445
 21
114.107
  0
LINE
  8
0
 10
150.269
 11
152.165
 20
114.107
 21
112.039
  0
LINE
  8
0
 10
152.165
 11
155.192
 20
112.039
 21
108.094
  0
LINE
  8
0
 10
155.192
 11
157.863
 20
108.094
 21
103.9
  0
LINE
  8
0
 10
157.863
 11
160.16
 20
103.9
 21
99.489
  0
LINE
  8
0
 10
160.16
 11
162.062
 20
99.489
 21
94.895
  0
LINE
  8
0
 10
162.062
 11
163.558
 20
94.895
 21
90.153
  0
LINE
  8
0
 10
163.558
 11
164.634
 20
90.153
 21
85.298
  0
LINE
  8
0
 10
164.634
 11
165.283
 20
85.298
 21
80.368
  0
LINE
  8
0
 10
165.283
 11
165.5
 20
80.368
 21
75.4
  0
LINE
  8
0
 10
165.5
 11
165.283
 20
75.4
 21
70.432
  0
LINE
  8
0
 10
165.283
 11
164.634
 20
70.432
 21
65.502
  0
LINE
  8
0
 10
164.634
 11
163.558
 20
65.502
 21
60.647
  0
LINE
  8
0
 10
163.558
 11
162.062
 20
60.647
 21
55.905
  0
LINE
  8
0
 10
162.062
 11
160.16
 20
55.905
 21
51.311
  0
LINE
  8
0
 10
160.16
 11
157.863
 20
51.311
 21
46.9
  0
LINE
  8
0
 10
157.863
 11
155.192
 20
46.9
 21
42.706
  0
LINE
  8
0
 10
155.192
 11
152.165
 20
42.706
 21
38.761
  0
LINE
  8
0
 10
152.165
 11
150.269
 20
38.761
 21
36.693
  0
LINE
  8
0
 10
150.269
 11
150.482
 20
36.693
 21
36.355
  0
LINE
  8
0
 10
150.482
 11
150.645
 20
36.355
 21
35.89
  0
LINE
  8
0
 10
150.645
 11
150.7
 20
35.89
 21
35.4
  0
LINE
  8
0
 10
150.7
 11
150.645
 20
35.4
 21
34.91
  0
LINE
  8
0
 10
150.645
 11
150.482
 20
34.91
 21
34.445
  0
LINE
  8
0
 10
150.482
 11
150.22
 20
34.445
 21
34.028
  0
LINE
  8
0
 10
150.22
 11
149.872
 20
34.028
 21
33.68
  0
LINE
  8
0
 10
149.872
 11
149.455
 20
33.68
 21
33.418
  0
LINE
  8
0
 10
149.455
 11
148.99
 20
33.418
 21
33.255
  0
LINE
  8
0
 10
148.99
 11
148.5
 20
33.255
 21
33.2
  0
LINE
  8
0
 10
148.5
 11
148.01
 20
33.2
 21
33.255
  0
LINE
  8
0
 10
148.01
 11
147.545
 20
33.255
 21
33.418
  0
LINE
  8
0
 10
147.545
 11
147.207
 20
33.418
 21
33.631
  0
LINE
  8
0
 10
147.207
 11
145.139
 20
33.631
 21
31.735
  0
LINE
  8
0
 10
145.139
 11
141.194
 20
31.735
 21
28.708
  0
LINE
  8
0
 10
141.194
 11
137
 20
28.708
 21
26.037
  0
LINE
  8
0
 10
137
 11
132.589
 20
26.037
 21
23.74
  0
LINE
  8
0
 10
132.589
 11
127.995
 20
23.74
 21
21.838
  0
LINE
  8
0
 10
127.995
 11
123.253
 20
21.838
 21
20.342
  0
LINE
  8
0
 10
123.253
 11
118.398
 20
20.342
 21
19.266
  0
LINE
  8
0
 10
118.398
 11
113.468
 20
19.266
 21
18.617
  0
LINE
  8
0
 10
113.468
 11
108.5
 20
18.617
 21
18.4
  0
LINE
  8
0
 10
108.5
 11
103.532
 20
18.4
 21
18.617
  0
LINE
  8
0
 10
103.532
 11
98.602
 20
18.617
 21
19.266
  0
LINE
  8
0
 10
98.602
 11
93.747
 20
19.266
 21
20.342
  0
LINE
  8
0
 10
93.747
 11
89.005
 20
20.342
 21
21.838
  0
LINE
  8
0
 10
89.005
 11
84.411
 20
21.838
 21
23.74
  0
LINE
  8
0
 10
84.411
 11
80
 20
23.74
 21
26.037
  0
LINE
  8
0
 10
80
 11
75.806
 20
26.037
 21
28.708
  0
LINE
  8
0
 10
75.806
 11
71.861
 20
28.708
 21
31.735
  0
LINE
  8
0
 10
71.861
 11
69.793
 20
31.735
 21
33.631
  0
LINE
  8
0
 10
69.793
 11
69.455
 20
33.631
 21
33.418
  0
LINE
  8
0
 10
69.455
 11
68.99
 20
33.418
 21
33.255
  0
LINE
  8
0
 10
68.99
 11
68.5
 20
33.255
 21
33.2
  0
LINE
  8
0
 10
68.5
 11
68.01
 20
33.2
 21
33.255
  0
LINE
  8
0
 10
68.01
 11
67.545
 20
33.255
 21
33.418
  0
LINE
  8
0
 10
67.545
 11
67.128
 20
33.418
 21
33.68
  0
LINE
  8
0
 10
67.128
 11
66.78
 20
33.68
 21
34.028
  0
LINE
  8
0
 10
66.78
 11
66.518
 20
34.028
 21
34.445
  0
LINE
  8
0
 10
66.518
 11
66.355
 20
34.445
 21
34.91
  0
LINE
  8
0
 10
66.355
 11
66.3
 20
34.91
 21
35.4
  0
LINE
  8
0
 10
66.3
 11
66.355
 20
35.4
 21
35.89
  0
LINE
  8
0
 10
66.355
 11
66.518
 20
35.89
 21
36.355
  0
LINE
  8
0
 10
66.518
 11
66.731
 20
36.355
 21
36.693
  0
LINE
  8
0
 10
66.731
 11
64.835
 20
36.693
 21
38.761
  0
LINE
  8
0
 10
64.835
 11
61.808
 20
38.761
 21
42.706
  0
LINE
  8
0
 10
61.808
 11
59.137
 20
42.706
 21
46.9
  0
LINE
  8
0
 10
59.137
 11
56.84
 20
46.9
 21
51.311
  0
LINE
  8
0
 10
56.84
 11
54.938
 20
51.311
 21
55.905
  0
LINE
  8
0
 10
54.938
 11
53.442
 20
55.905
 21
60.647
  0
LINE
  8
0
 10
53.442
 11
52.366
 20
60.647
 21
65.502
  0
LINE
  8
0
 10
52.366
 11
51.717
 20
65.502
 21
70.432
  0
LINE
  8
0
 10
51.717
 11
51.5
 20
70.432
 21
75.4
  0
LINE
  8
0
 10
120.85
 11
120.905
 20
-155.15
 21
-154.66
  0
LINE
  8
0
 10
120.905
 11
121.068
 20
-154.66
 21
-154.195
  0
LINE
  8
0
 10
121.068
 11
121.33
 20
-154.195
 21
-153.778
  0
LINE
  8
0
 10
121.33
 11
121.678
 20
-153.778
 21
-153.43
  0
LINE
  8
0
 10
121.678
 11
122.095
 20
-153.43
 21
-153.168
  0
LINE
  8
0
 10
122.095
 11
122.56
 20
-153.168
 21
-153.005
  0
LINE
  8
0
 10
122.56
 11
123.05
 20
-153.005
 21
-152.95
  0
LINE
  8
0
 10
123.05
 11
123.54
 20
-152.95
 21
-153.005
  0
LINE
  8
0
 10
123.54
 11
124.005
 20
-153.005
 21
-153.168
  0
LINE
  8
0
 10
124.005
 11
124.422
 20
-153.168
 21
-153.43
  0
LINE
  8
0
 10
124.422
 11
124.77
 20
-153.43
 21
-153.778
  0
LINE
  8
0
 10
124.77
 11
125.032
 20
-153.778
 21
-154.195
  0
LINE
  8
0
 10
125.032
 11
125.195
 20
-154.195
 21
-154.66
  0
LINE
  8
0
 10
125.195
 11
125.25
 20
-154.66
 21
-155.15
  0
LINE
  8
0
 10
125.25
 11
125.195
 20
-155.15
 21
-155.64
  0
LINE
  8
0
 10
125.195
 11
125.032
 20
-155.64
 21
-156.105
  0
LINE
  8
0
 10
125.032
 11
124.77
 20
-156.105
 21
-156.522
  0
LINE
  8
0
 10
124.77
 11
124.422
 20
-156.522
 21
-156.87
  0
LINE
  8
0
 10
124.422
 11
124.005
 20
-156.87
 21
-157.132
  0
LINE
  8
0
 10
124.005
 11
123.54
 20
-157.132
 21
-157.295
  0
LINE
  8
0
 10
123.54
 11
123.05
 20
-157.295
 21
-157.35
  0
LINE
  8
0
 10
123.05
 11
122.56
 20
-157.35
 21
-157.295
  0
LINE
  8
0
 10
122.56
 11
122.095
 20
-157.295
 21
-157.132
  0
LINE
  8
0
 10
122.095
 11
121.678
 20
-157.132
 21
-156.87
  0
LINE
  8
0
 10
121.678
 11
121.33
 20
-156.87
 21
-156.522
  0
LINE
  8
0
 10
121.33
 11
121.068
 20
-156.522
 21
-156.105
  0
LINE
  8
0
 10
121.068
 11
120.905
 20
-156.105
 21
-155.64
  0
LINE
  8
0
 10
120.905
 11
120.85
 20
-155.64
 21
-155.15
  0
LINE
  8
0
 10
173.225
 11
173.261
 20
-104.078
 21
-103.588
  0
LINE
  8
0
 10
173.261
 11
173.441
 20
-103.588
 21
-103.13
  0
LINE
  8
0
 10
173.441
 11
173.748
 20
-103.13
 21
-102.745
  0
LINE
  8
0
 10
173.748
 11
174.154
 20
-102.745
 21
-102.468
  0
LINE
  8
0
 10
174.154
 11
174.624
 20
-102.468
 21
-102.323
  0
LINE
  8
0
 10
174.624
 11
175.116
 20
-102.323
 21
-102.323
  0
LINE
  8
0
 10
175.116
 11
175.586
 20
-102.323
 21
-102.468
  0
LINE
  8
0
 10
175.586
 11
175.992
 20
-102.468
 21
-102.745
  0
LINE
  8
0
 10
175.992
 11
176.299
 20
-102.745
 21
-103.13
  0
LINE
  8
0
 10
176.299
 11
176.479
 20
-103.13
 21
-103.588
  0
LINE
  8
0
 10
176.479
 11
176.515
 20
-103.588
 21
-104.078
  0
LINE
  8
0
 10
176.515
 11
176.406
 20
-104.078
 21
-104.558
  0
LINE
  8
0
 10
176.406
 11
176.16
 20
-104.558
 21
-104.984
  0
LINE
  8
0
 10
176.16
 11
175.799
 20
-104.984
 21
-105.318
  0
LINE
  8
0
 10
175.799
 11
175.356
 20
-105.318
 21
-105.532
  0
LINE
  8
0
 10
175.356
 11
174.87
 20
-105.532
 21
-105.605
  0
LINE
  8
0
 10
174.87
 11
174.384
 20
-105.605
 21
-105.532
  0
LINE
  8
0
 10
174.384
 11
173.941
 20
-105.532
 21
-105.318
  0
LINE
  8
0
 10
173.941
 11
173.58
 20
-105.318
 21
-104.984
  0
LINE
  8
0
 10
173.58
 11
173.334
 20
-104.984
 21
-104.558
  0
LINE
  8
0
 10
173.334
 11
173.225
 20
-104.558
 21
-104.078
  0
LINE
  8
0
 10
173.225
 11
173.261
 20
-62.168
 21
-61.678
  0
LINE
  8
0
 10
173.261
 11
173.441
 20
-61.678
 21
-61.22
  0
LINE
  8
0
 10
173.441
 11
173.748
 20
-61.22
 21
-60.835
  0
LINE
  8
0
 10
173.748
 11
174.154
 20
-60.835
 21
-60.558
  0
LINE
  8
0
 10
174.154
 11
174.624
 20
-60.558
 21
-60.413
  0
LINE
  8
0
 10
174.624
 11
175.116
 20
-60.413
 21
-60.413
  0
LINE
  8
0
 10
175.116
 11
175.586
 20
-60.413
 21
-60.558
  0
LINE
  8
0
 10
175.586
 11
175.992
 20
-60.558
 21
-60.835
  0
LINE
  8
0
 10
175.992
 11
176.299
 20
-60.835
 21
-61.22
  0
LINE
  8
0
 10
176.299
 11
176.479
 20
-61.22
 21
-61.678
  0
LINE
  8
0
 10
176.479
 11
176.515
 20
-61.678
 21
-62.168
  0
LINE
  8
0
 10
176.515
 11
176.406
 20
-62.168
 21
-62.648
  0
LINE
  8
0
 10
176.406
 11
176.16
 20
-62.648
 21
-63.074
  0
LINE
  8
0
 10
176.16
 11
175.799
 20
-63.074
 21
-63.408
  0
LINE
  8
0
 10
175.799
 11
175.356
 20
-63.408
 21
-63.622
  0
LINE
  8
0
 10
175.356
 11
174.87
 20
-63.622
 21
-63.695
  0
LINE
  8
0
 10
174.87
 11
174.384
 20
-63.695
 21
-63.622
  0
LINE
  8
0
 10
174.384
 11
173.941
 20
-63.622
 21
-63.408
  0
LINE
  8
0
 10
173.941
 11
173.58
 20
-63.408
 21
-63.074
  0
LINE
  8
0
 10
173.58
 11
173.334
 20
-63.074
 21
-62.648
  0
LINE
  8
0
 10
173.334
 11
173.225
 20
-62.648
 21
-62.168
  0
LINE
  8
0
 10
188.65
 11
188.734
 20
-146.75
 21
-146.271
  0
LINE
  8
0
 10
188.734
 11
188.978
 20
-146.271
 21
-145.85
  0
LINE
  8
0
 10
188.978
 11
189.35
 20
-145.85
 21
-145.538
  0
LINE
  8
0
 10
189.35
 11
189.807
 20
-145.538
 21
-145.371
  0
LINE
  8
0
 10
189.807
 11
190.293
 20
-145.371
 21
-145.371
  0
LINE
  8
0
 10
190.293
 11
190.75
 20
-145.371
 21
-145.538
  0
LINE
  8
0
 10
190.75
 11
191.122
 20
-145.538
 21
-145.85
  0
LINE
  8
0
 10
191.122
 11
191.366
 20
-145.85
 21
-146.271
  0
LINE
  8
0
 10
191.366
 11
191.45
 20
-146.271
 21
-146.75
  0
LINE
  8
0
 10
191.45
 11
191.366
 20
-146.75
 21
-147.229
  0
LINE
  8
0
 10
191.366
 11
191.122
 20
-147.229
 21
-147.65
  0
LINE
  8
0
 10
191.122
 11
190.75
 20
-147.65
 21
-147.962
  0
LINE
  8
0
 10
190.75
 11
190.293
 20
-147.962
 21
-148.129
  0
LINE
  8
0
 10
190.293
 11
189.807
 20
-148.129
 21
-148.129
  0
LINE
  8
0
 10
189.807
 11
189.35
 20
-148.129
 21
-147.962
  0
LINE
  8
0
 10
189.35
 11
188.978
 20
-147.962
 21
-147.65
  0
LINE
  8
0
 10
188.978
 11
188.734
 20
-147.65
 21
-147.229
  0
LINE
  8
0
 10
188.734
 11
188.65
 20
-147.229
 21
-146.75
  0
LINE
  8
0
 10
202.95
 11
203.034
 20
-130.85
 21
-130.371
  0
LINE
  8
0
 10
203.034
 11
203.278
 20
-130.371
 21
-129.95
  0
LINE
  8
0
 10
203.278
 11
203.65
 20
-129.95
 21
-129.638
  0
LINE
  8
0
 10
203.65
 11
204.107
 20
-129.638
 21
-129.471
  0
LINE
  8
0
 10
204.107
 11
204.593
 20
-129.471
 21
-129.471
  0
LINE
  8
0
 10
204.593
 11
205.05
 20
-129.471
 21
-129.638
  0
LINE
  8
0
 10
205.05
 11
205.422
 20
-129.638
 21
-129.95
  0
LINE
  8
0
 10
205.422
 11
205.666
 20
-129.95
 21
-130.371
  0
LINE
  8
0
 10
205.666
 11
205.75
 20
-130.371
 21
-130.85
  0
LINE
  8
0
 10
205.75
 11
205.666
 20
-130.85
 21
-131.329
  0
LINE
  8
0
 10
205.666
 11
205.422
 20
-131.329
 21
-131.75
  0
LINE
  8
0
 10
205.422
 11
205.05
 20
-131.75
 21
-132.062
  0
LINE
  8
0
 10
205.05
 11
204.593
 20
-132.062
 21
-132.229
  0
LINE
  8
0
 10
204.593
 11
204.107
 20
-132.229
 21
-132.229
  0
LINE
  8
0
 10
204.107
 11
203.65
 20
-132.229
 21
-132.062
  0
LINE
  8
0
 10
203.65
 11
203.278
 20
-132.062
 21
-131.75
  0
LINE
  8
0
 10
203.278
 11
203.034
 20
-131.75
 21
-131.329
  0
LINE
  8
0
 10
203.034
 11
202.95
 20
-131.329
 21
-130.85
  0
LINE
  8
0
 10
239.25
 11
239.334
 20
-146.75
 21
-146.271
  0
LINE
  8
0
 10
239.334
 11
239.578
 20
-146.271
 21
-145.85
  0
LINE
  8
0
 10
239.578
 11
239.95
 20
-145.85
 21
-145.538
  0
LINE
  8
0
 10
239.95
 11
240.407
 20
-145.538
 21
-145.371
  0
LINE
  8
0
 10
240.407
 11
240.893
 20
-145.371
 21
-145.371
  0
LINE
  8
0
 10
240.893
 11
241.35
 20
-145.371
 21
-145.538
  0
LINE
  8
0
 10
241.35
 11
241.722
 20
-145.538
 21
-145.85
  0
LINE
  8
0
 10
241.722
 11
241.966
 20
-145.85
 21
-146.271
  0
LINE
  8
0
 10
241.966
 11
242.05
 20
-146.271
 21
-146.75
  0
LINE
  8
0
 10
242.05
 11
241.966
 20
-146.75
 21
-147.229
  0
LINE
  8
0
 10
241.966
 11
241.722
 20
-147.229
 21
-147.65
  0
LINE
  8
0
 10
241.722
 11
241.35
 20
-147.65
 21
-147.962
  0
LINE
  8
0
 10
241.35
 11
240.893
 20
-147.962
 21
-148.129
  0
LINE
  8
0
 10
240.893
 11
240.407
 20
-148.129
 21
-148.129
  0
LINE
  8
0
 10
240.407
 11
239.95
 20
-148.129
 21
-147.962
  0
LINE
  8
0
 10
239.95
 11
239.578
 20
-147.962
 21
-147.65
  0
LINE
  8
0
 10
239.578
 11
239.334
 20
-147.65
 21
-147.229
  0
LINE
  8
0
 10
239.334
 11
239.25
 20
-147.229
 21
-146.75
  0
LINE
  8
0
 10
253.55
 11
253.634
 20
-130.85
 21
-130.371
  0
LINE
  8
0
 10
253.634
 11
253.878
 20
-130.371
 21
-129.95
  0
LINE
  8
0
 10
253.878
 11
254.25
 20
-129.95
 21
-129.638
  0
LINE
  8
0
 10
254.25
 11
254.707
 20
-129.638
 21
-129.471
  0
LINE
  8
0
 10
254.707
 11
255.193
 20
-129.471
 21
-129.471
  0
LINE
  8
0
 10
255.193
 11
255.65
 20
-129.471
 21
-129.638
  0
LINE
  8
0
 10
255.65
 11
256.022
 20
-129.638
 21
-129.95
  0
LINE
  8
0
 10
256.022
 11
256.266
 20
-129.95
 21
-130.371
  0
LINE
  8
0
 10
256.266
 11
256.35
 20
-130.371
 21
-130.85
  0
LINE
  8
0
 10
256.35
 11
256.266
 20
-130.85
 21
-131.329
  0
LINE
  8
0
 10
256.266
 11
256.022
 20
-131.329
 21
-131.75
  0
LINE
  8
0
 10
256.022
 11
255.65
 20
-131.75
 21
-132.062
  0
LINE
  8
0
 10
255.65
 11
255.193
 20
-132.062
 21
-132.229
  0
LINE
  8
0
 10
255.193
 11
254.707
 20
-132.229
 21
-132.229
  0
LINE
  8
0
 10
254.707
 11
254.25
 20
-132.229
 21
-132.062
  0
LINE
  8
0
 10
254.25
 11
253.878
 20
-132.062
 21
-131.75
  0
LINE
  8
0
 10
253.878
 11
253.634
 20
-131.75
 21
-131.329
  0
LINE
  8
0
 10
253.634
 11
253.55
 20
-131.329
 21
-130.85
  0
LINE
  8
0
 10
286.862
 11
286.917
 20
-35.65
 21
-35.16
  0
LINE
  8
0
 10
286.917
 11
287.079
 20
-35.16
 21
-34.695
  0
LINE
  8
0
 10
287.079
 11
287.342
 20
-34.695
 21
-34.278
  0
LINE
  8
0
 10
287.342
 11
287.69
 20
-34.278
 21
-33.93
  0
LINE
  8
0
 10
287.69
 11
288.107
 20
-33.93
 21
-33.668
  0
LINE
  8
0
 10
288.107
 11
288.572
 20
-33.668
 21
-33.505
  0
LINE
  8
0
 10
288.572
 11
289.062
 20
-33.505
 21
-33.45
  0
LINE
  8
0
 10
289.062
 11
289.551
 20
-33.45
 21
-33.505
  0
LINE
  8
0
 10
289.551
 11
290.016
 20
-33.505
 21
-33.668
  0
LINE
  8
0
 10
290.016
 11
290.433
 20
-33.668
 21
-33.93
  0
LINE
  8
0
 10
290.433
 11
290.782
 20
-33.93
 21
-34.278
  0
LINE
  8
0
 10
290.782
 11
291.044
 20
-34.278
 21
-34.695
  0
LINE
  8
0
 10
291.044
 11
291.206
 20
-34.695
 21
-35.16
  0
LINE
  8
0
 10
291.206
 11
291.262
 20
-35.16
 21
-35.65
  0
LINE
  8
0
 10
291.262
 11
291.206
 20
-35.65
 21
-36.14
  0
LINE
  8
0
 10
291.206
 11
291.044
 20
-36.14
 21
-36.605
  0
LINE
  8
0
 10
291.044
 11
290.782
 20
-36.605
 21
-37.022
  0
LINE
  8
0
 10
290.782
 11
290.433
 20
-37.022
 21
-37.37
  0
LINE
  8
0
 10
290.433
 11
290.016
 20
-37.37
 21
-37.632
  0
LINE
  8
0
 10
290.016
 11
289.551
 20
-37.632
 21
-37.795
  0
LINE
  8
0
 10
289.551
 11
289.062
 20
-37.795
 21
-37.85
  0
LINE
  8
0
 10
289.062
 11
288.572
 20
-37.85
 21
-37.795
  0
LINE
  8
0
 10
288.572
 11
288.107
 20
-37.795
 21
-37.632
  0
LINE
  8
0
 10
288.107
 11
287.69
 20
-37.632
 21
-37.37
  0
LINE
  8
0
 10
287.69
 11
287.342
 20
-37.37
 21
-37.022
  0
LINE
  8
0
 10
287.342
 11
287.079
 20
-37.022
 21
-36.605
  0
LINE
  8
0
 10
287.079
 11
286.917
 20
-36.605
 21
-36.14
  0
LINE
  8
0
 10
286.917
 11
286.862
 20
-36.14
 21
-35.65
  0
LINE
  8
0
 10
286.862
 11
286.917
 20
89.35
 21
89.84
  0
LINE
  8
0
 10
286.917
 11
287.079
 20
89.84
 21
90.305
  0
LINE
  8
0
 10
287.079
 11
287.342
 20
90.305
 21
90.722
  0
LINE
  8
0
 10
287.342
 11
287.69
 20
90.722
 21
91.07
  0
LINE
  8
0
 10
287.69
 11
288.107
 20
91.07
 21
91.332
  0
LINE
  8
0
 10
288.107
 11
288.572
 20
91.332
 21
91.495
  0
LINE
  8
0
 10
288.572
 11
289.062
 20
91.495
 21
91.55
  0
LINE
  8
0
 10
289.062
 11
289.551
 20
91.55
 21
91.495
  0
LINE
  8
0
 10
289.551
 11
290.016
 20
91.495
 21
91.332
  0
LINE
  8
0
 10
290.016
 11
290.433
 20
91.332
 21
91.07
  0
LINE
  8
0
 10
290.433
 11
290.782
 20
91.07
 21
90.722
  0
LINE
  8
0
 10
290.782
 11
291.044
 20
90.722
 21
90.305
  0
LINE
  8
0
 10
291.044
 11
291.206
 20
90.305
 21
89.84
  0
LINE
  8
0
 10
291.206
 11
291.262
 20
89.84
 21
89.35
  0
LINE
  8
0
 10
291.262
 11
291.206
 20
89.35
 21
88.86
  0
LINE
  8
0
 10
291.206
 11
291.044
 20
88.86
 21
88.395
  0
LINE
  8
0
 10
291.044
 11
290.782
 20
88.395
 21
87.978
  0
LINE
  8
0
 10
290.782
 11
290.433
 20
87.978
 21
87.63
  0
LINE
  8
0
 10
290.433
 11
290.016
 20
87.63
 21
87.368
  0
LINE
  8
0
 10
290.016
 11
289.551
 20
87.368
 21
87.205
  0
LINE
  8
0
 10
289.551
 11
289.062
 20
87.205
 21
87.15
  0
LINE
  8
0
 10
289.062
 11
288.572
 20
87.15
 21
87.205
  0
LINE
  8
0
 10
288.572
 11
288.107
 20
87.205
 21
87.368
  0
LINE
  8
0
 10
288.107
 11
287.69
 20
87.368
 21
87.63
  0
LINE
  8
0
 10
287.69
 11
287.342
 20
87.63
 21
87.978
  0
LINE
  8
0
 10
287.342
 11
287.079
 20
87.978
 21
88.395
  0
LINE
  8
0
 10
287.079
 11
286.917
 20
88.395
 21
88.86
  0
LINE
  8
0
 10
286.917
 11
286.862
 20
88.86
 21
89.35
  0
LINE
  8
0
 10
339.48
 11
339.535
 20
-11.2
 21
-10.71
  0
LINE
  8
0
 10
339.535
 11
339.698
 20
-10.71
 21
-10.245
  0
LINE
  8
0
 10
339.698
 11
339.96
 20
-10.245
 21
-9.828
  0
LINE
  8
0
 10
339.96
 11
340.308
 20
-9.828
 21
-9.48
  0
LINE
  8
0
 10
340.308
 11
340.725
 20
-9.48
 21
-9.218
  0
LINE
  8
0
 10
340.725
 11
341.19
 20
-9.218
 21
-9.055
  0
LINE
  8
0
 10
341.19
 11
341.68
 20
-9.055
 21
-9
  0
LINE
  8
0
 10
341.68
 11
342.17
 20
-9
 21
-9.055
  0
LINE
  8
0
 10
342.17
 11
342.635
 20
-9.055
 21
-9.218
  0
LINE
  8
0
 10
342.635
 11
343.052
 20
-9.218
 21
-9.48
  0
LINE
  8
0
 10
343.052
 11
343.4
 20
-9.48
 21
-9.828
  0
LINE
  8
0
 10
343.4
 11
343.662
 20
-9.828
 21
-10.245
  0
LINE
  8
0
 10
343.662
 11
343.825
 20
-10.245
 21
-10.71
  0
LINE
  8
0
 10
343.825
 11
343.88
 20
-10.71
 21
-11.2
  0
LINE
  8
0
 10
343.88
 11
343.825
 20
-11.2
 21
-11.69
  0
LINE
  8
0
 10
343.825
 11
343.662
 20
-11.69
 21
-12.155
  0
LINE
  8
0
 10
343.662
 11
343.4
 20
-12.155
 21
-12.572
  0
LINE
  8
0
 10
343.4
 11
343.052
 20
-12.572
 21
-12.92
  0
LINE
  8
0
 10
343.052
 11
342.635
 20
-12.92
 21
-13.182
  0
LINE
  8
0
 10
342.635
 11
342.17
 20
-13.182
 21
-13.345
  0
LINE
  8
0
 10
342.17
 11
341.68
 20
-13.345
 21
-13.4
  0
LINE
  8
0
 10
341.68
 11
341.19
 20
-13.4
 21
-13.345
  0
LINE
  8
0
 10
341.19
 11
340.725
 20
-13.345
 21
-13.182
  0
LINE
  8
0
 10
340.725
 11
340.308
 20
-13.182
 21
-12.92
  0
LINE
  8
0
 10
340.308
 11
339.96
 20
-12.92
 21
-12.572
  0
LINE
  8
0
 10
339.96
 11
339.698
 20
-12.572
 21
-12.155
  0
LINE
  8
0
 10
339.698
 11
339.535
 20
-12.155
 21
-11.69
  0
LINE
  8
0
 10
339.535
 11
339.48
 20
-11.69
 21
-11.2
  0
LINE
  8
0
 10
339.48
 11
339.535
 20
7.2
 21
7.69
  0
LINE
  8
0
 10
339.535
 11
339.698
 20
7.69
 21
8.155
  0
LINE
  8
0
 10
339.698
 11
339.96
 20
8.155
 21
8.572
  0
LINE
  8
0
 10
339.96
 11
340.308
 20
8.572
 21
8.92
  0
LINE
  8
0
 10
340.308
 11
340.725
 20
8.92
 21
9.182
  0
LINE
  8
0
 10
340.725
 11
341.19
 20
9.182
 21
9.345
  0
LINE
  8
0
 10
341.19
 11
341.68
 20
9.345
 21
9.4
  0
LINE
  8
0
 10
341.68
 11
342.17
 20
9.4
 21
9.345
  0
LINE
  8
0
 10
342.17
 11
342.635
 20
9.345
 21
9.182
  0
LINE
  8
0
 10
342.635
 11
343.052
 20
9.182
 21
8.92
  0
LINE
  8
0
 10
343.052
 11
343.4
 20
8.92
 21
8.572
  0
LINE
  8
0
 10
343.4
 11
343.662
 20
8.572
 21
8.155
  0
LINE
  8
0
 10
343.662
 11
343.825
 20
8.155
 21
7.69
  0
LINE
  8
0
 10
343.825
 11
343.88
 20
7.69
 21
7.2
  0
LINE
  8
0
 10
343.88
 11
343.825
 20
7.2
 21
6.71
  0
LINE
  8
0
 10
343.825
 11
343.662
 20
6.71
 21
6.245
  0
LINE
  8
0
 10
343.662
 11
343.4
 20
6.245
 21
5.828
  0
LINE
  8
0
 10
343.4
 11
343.052
 20
5.828
 21
5.48
  0
LINE
  8
0
 10
343.052
 11
342.635
 20
5.48
 21
5.218
  0
LINE
  8
0
 10
342.635
 11
342.17
 20
5.218
 21
5.055
  0
LINE
  8
0
 10
342.17
 11
341.68
 20
5.055
 21
5
  0
LINE
  8
0
 10
341.68
 11
341.19
 20
5
 21
5.055
  0
LINE
  8
0
 10
341.19
 11
340.725
 20
5.055
 21
5.218
  0
LINE
  8
0
 10
340.725
 11
340.308
 20
5.218
 21
5.48
  0
LINE
  8
0
 10
340.308
 11
339.96
 20
5.48
 21
5.828
  0
LINE
  8
0
 10
339.96
 11
339.698
 20
5.828
 21
6.245
  0
LINE
  8
0
 10
339.698
 11
339.535
 20
6.245
 21
6.71
  0
LINE
  8
0
 10
339.535
 11
339.48
 20
6.71
 21
7.2
  0
LINE
  8
0
 10
360.7
 11
360.755
 20
-11.2
 21
-10.71
  0
LINE
  8
0
 10
360.755
 11
360.918
 20
-10.71
 21
-10.245
  0
LINE
  8
0
 10
360.918
 11
361.18
 20
-10.245
 21
-9.828
  0
LINE
  8
0
 10
361.18
 11
361.528
 20
-9.828
 21
-9.48
  0
LINE
  8
0
 10
361.528
 11
361.945
 20
-9.48
 21
-9.218
  0
LINE
  8
0
 10
361.945
 11
362.41
 20
-9.218
 21
-9.055
  0
LINE
  8
0
 10
362.41
 11
362.9
 20
-9.055
 21
-9
  0
LINE
  8
0
 10
362.9
 11
363.39
 20
-9
 21
-9.055
  0
LINE
  8
0
 10
363.39
 11
363.855
 20
-9.055
 21
-9.218
  0
LINE
  8
0
 10
363.855
 11
364.272
 20
-9.218
 21
-9.48
  0
LINE
  8
0
 10
364.272
 11
364.62
 20
-9.48
 21
-9.828
  0
LINE
  8
0
 10
364.62
 11
364.882
 20
-9.828
 21
-10.245
  0
LINE
  8
0
 10
364.882
 11
365.045
 20
-10.245
 21
-10.71
  0
LINE
  8
0
 10
365.045
 11
365.1
 20
-10.71
 21
-11.2
  0
LINE
  8
0
 10
365.1
 11
365.045
 20
-11.2
 21
-11.69
  0
LINE
  8
0
 10
365.045
 11
364.882
 20
-11.69
 21
-12.155
  0
LINE
  8
0
 10
364.882
 11
364.62
 20
-12.155
 21
-12.572
  0
LINE
  8
0
 10
364.62
 11
364.272
 20
-12.572
 21
-12.92
  0
LINE
  8
0
 10
364.272
 11
363.855
 20
-12.92
 21
-13.182
  0
LINE
  8
0
 10
363.855
 11
363.39
 20
-13.182
 21
-13.345
  0
LINE
  8
0
 10
363.39
 11
362.9
 20
-13.345
 21
-13.4
  0
LINE
  8
0
 10
362.9
 11
362.41
 20
-13.4
 21
-13.345
  0
LINE
  8
0
 10
362.41
 11
361.945
 20
-13.345
 21
-13.182
  0
LINE
  8
0
 10
361.945
 11
361.528
 20
-13.182
 21
-12.92
  0
LINE
  8
0
 10
361.528
 11
361.18
 20
-12.92
 21
-12.572
  0
LINE
  8
0
 10
361.18
 11
360.918
 20
-12.572
 21
-12.155
  0
LINE
  8
0
 10
360.918
 11
360.755
 20
-12.155
 21
-11.69
  0
LINE
  8
0
 10
360.755
 11
360.7
 20
-11.69
 21
-11.2
  0
LINE
  8
0
 10
360.7
 11
360.755
 20
7.2
 21
7.69
  0
LINE
  8
0
 10
360.755
 11
360.918
 20
7.69
 21
8.155
  0
LINE
  8
0
 10
360.918
 11
361.18
 20
8.155
 21
8.572
  0
LINE
  8
0
 10
361.18
 11
361.528
 20
8.572
 21
8.92
  0
LINE
  8
0
 10
361.528
 11
361.945
 20
8.92
 21
9.182
  0
LINE
  8
0
 10
361.945
 11
362.41
 20
9.182
 21
9.345
  0
LINE
  8
0
 10
362.41
 11
362.9
 20
9.345
 21
9.4
  0
LINE
  8
0
 10
362.9
 11
363.39
 20
9.4
 21
9.345
  0
LINE
  8
0
 10
363.39
 11
363.855
 20
9.345
 21
9.182
  0
LINE
  8
0
 10
363.855
 11
364.272
 20
9.182
 21
8.92
  0
LINE
  8
0
 10
364.272
 11
364.62
 20
8.92
 21
8.572
  0
LINE
  8
0
 10
364.62
 11
364.882
 20
8.572
 21
8.155
  0
LINE
  8
0
 10
364.882
 11
365.045
 20
8.155
 21
7.69
  0
LINE
  8
0
 10
365.045
 11
365.1
 20
7.69
 21
7.2
  0
LINE
  8
0
 10
365.1
 11
365.045
 20
7.2
 21
6.71
  0
LINE
  8
0
 10
365.045
 11
364.882
 20
6.71
 21
6.245
  0
LINE
  8
0
 10
364.882
 11
364.62
 20
6.245
 21
5.828
  0
LINE
  8
0
 10
364.62
 11
364.272
 20
5.828
 21
5.48
  0
LINE
  8
0
 10
364.272
 11
363.855
 20
5.48
 21
5.218
  0
LINE
  8
0
 10
363.855
 11
363.39
 20
5.218
 21
5.055
  0
LINE
  8
0
 10
363.39
 11
362.9
 20
5.055
 21
5
  0
LINE
  8
0
 10
362.9
 11
362.41
 20
5
 21
5.055
  0
LINE
  8
0
 10
362.41
 11
361.945
 20
5.055
 21
5.218
  0
LINE
  8
0
 10
361.945
 11
361.528
 20
5.218
 21
5.48
  0
LINE
  8
0
 10
361.528
 11
361.18
 20
5.48
 21
5.828
  0
LINE
  8
0
 10
361.18
 11
360.918
 20
5.828
 21
6.245
  0
LINE
  8
0
 10
360.918
 11
360.755
 20
6.245
 21
6.71
  0
LINE
  8
0
 10
360.755
 11
360.7
 20
6.71
 21
7.2
  0
LINE
  8
0
 10
373.885
 11
373.921
 20
-104.078
 21
-103.588
  0
LINE
  8
0
 10
373.921
 11
374.101
 20
-103.588
 21
-103.13
  0
LINE
  8
0
 10
374.101
 11
374.408
 20
-103.13
 21
-102.745
  0
LINE
  8
0
 10
374.408
 11
374.814
 20
-102.745
 21
-102.468
  0
LINE
  8
0
 10
374.814
 11
375.284
 20
-102.468
 21
-102.323
  0
LINE
  8
0
 10
375.284
 11
375.776
 20
-102.323
 21
-102.323
  0
LINE
  8
0
 10
375.776
 11
376.246
 20
-102.323
 21
-102.468
  0
LINE
  8
0
 10
376.246
 11
376.652
 20
-102.468
 21
-102.745
  0
LINE
  8
0
 10
376.652
 11
376.959
 20
-102.745
 21
-103.13
  0
LINE
  8
0
 10
376.959
 11
377.139
 20
-103.13
 21
-103.588
  0
LINE
  8
0
 10
377.139
 11
377.175
 20
-103.588
 21
-104.078
  0
LINE
  8
0
 10
377.175
 11
377.066
 20
-104.078
 21
-104.558
  0
LINE
  8
0
 10
377.066
 11
376.82
 20
-104.558
 21
-104.984
  0
LINE
  8
0
 10
376.82
 11
376.459
 20
-104.984
 21
-105.318
  0
LINE
  8
0
 10
376.459
 11
376.016
 20
-105.318
 21
-105.532
  0
LINE
  8
0
 10
376.016
 11
375.53
 20
-105.532
 21
-105.605
  0
LINE
  8
0
 10
375.53
 11
375.044
 20
-105.605
 21
-105.532
  0
LINE
  8
0
 10
375.044
 11
374.601
 20
-105.532
 21
-105.318
  0
LINE
  8
0
 10
374.601
 11
374.24
 20
-105.318
 21
-104.984
  0
LINE
  8
0
 10
374.24
 11
373.994
 20
-104.984
 21
-104.558
  0
LINE
  8
0
 10
373.994
 11
373.885
 20
-104.558
 21
-104.078
  0
LINE
  8
0
 10
373.885
 11
373.921
 20
-62.168
 21
-61.678
  0
LINE
  8
0
 10
373.921
 11
374.101
 20
-61.678
 21
-61.22
  0
LINE
  8
0
 10
374.101
 11
374.408
 20
-61.22
 21
-60.835
  0
LINE
  8
0
 10
374.408
 11
374.814
 20
-60.835
 21
-60.558
  0
LINE
  8
0
 10
374.814
 11
375.284
 20
-60.558
 21
-60.413
  0
LINE
  8
0
 10
375.284
 11
375.776
 20
-60.413
 21
-60.413
  0
LINE
  8
0
 10
375.776
 11
376.246
 20
-60.413
 21
-60.558
  0
LINE
  8
0
 10
376.246
 11
376.652
 20
-60.558
 21
-60.835
  0
LINE
  8
0
 10
376.652
 11
376.959
 20
-60.835
 21
-61.22
  0
LINE
  8
0
 10
376.959
 11
377.139
 20
-61.22
 21
-61.678
  0
LINE
  8
0
 10
377.139
 11
377.175
 20
-61.678
 21
-62.168
  0
LINE
  8
0
 10
377.175
 11
377.066
 20
-62.168
 21
-62.648
  0
LINE
  8
0
 10
377.066
 11
376.82
 20
-62.648
 21
-63.074
  0
LINE
  8
0
 10
376.82
 11
376.459
 20
-63.074
 21
-63.408
  0
LINE
  8
0
 10
376.459
 11
376.016
 20
-63.408
 21
-63.622
  0
LINE
  8
0
 10
376.016
 11
375.53
 20
-63.622
 21
-63.695
  0
LINE
  8
0
 10
375.53
 11
375.044
 20
-63.695
 21
-63.622
  0
LINE
  8
0
 10
375.044
 11
374.601
 20
-63.622
 21
-63.408
  0
LINE
  8
0
 10
374.601
 11
374.24
 20
-63.408
 21
-63.074
  0
LINE
  8
0
 10
374.24
 11
373.994
 20
-63.074
 21
-62.648
  0
LINE
  8
0
 10
373.994
 11
373.885
 20
-62.648
 21
-62.168
  0
ENDSEC
  0
SECTION
  2
OBJECTS
  0
DICTIONARY
  0
ENDSEC
  0
EOF
