  0
SECTION
  2
BLOCKS
  0
ENDSEC
  0
SECTION
  2
ENTITIES
  0
LINE
  8
0
 10
-235.25
 11
-235.25
 20
0
 21
361
  0
LINE
  8
0
 10
-235.25
 11
-235.155
 20
361
 21
363.179
  0
LINE
  8
0
 10
-235.155
 11
-234.87
 20
363.179
 21
365.341
  0
LINE
  8
0
 10
-234.87
 11
-234.398
 20
365.341
 21
367.47
  0
LINE
  8
0
 10
-234.398
 11
-233.742
 20
367.47
 21
369.551
  0
LINE
  8
0
 10
-233.742
 11
-232.908
 20
369.551
 21
371.565
  0
LINE
  8
0
 10
-232.908
 11
-231.901
 20
371.565
 21
373.5
  0
LINE
  8
0
 10
-231.901
 11
-230.729
 20
373.5
 21
375.339
  0
LINE
  8
0
 10
-230.729
 11
-229.401
 20
375.339
 21
377.07
  0
LINE
  8
0
 10
-229.401
 11
-227.928
 20
377.07
 21
378.678
  0
LINE
  8
0
 10
-227.928
 11
-226.32
 20
378.678
 21
380.151
  0
LINE
  8
0
 10
-226.32
 11
-224.589
 20
380.151
 21
381.479
  0
LINE
  8
0
 10
-224.589
 11
-222.75
 20
381.479
 21
382.651
  0
LINE
  8
0
 10
-222.75
 11
-220.815
 20
382.651
 21
383.658
  0
LINE
  8
0
 10
-220.815
 11
-218.801
 20
383.658
 21
384.492
  0
LINE
  8
0
 10
-218.801
 11
-216.72
 20
384.492
 21
385.148
  0
LINE
  8
0
 10
-216.72
 11
-214.591
 20
385.148
 21
385.62
  0
LINE
  8
0
 10
-214.591
 11
-212.429
 20
385.62
 21
385.905
  0
LINE
  8
0
 10
-212.429
 11
-210.25
 20
385.905
 21
386
  0
LINE
  8
0
 10
-210.25
 11
210.25
 20
386
 21
386
  0
LINE
  8
0
 10
210.25
 11
212.429
 20
386
 21
385.905
  0
LINE
  8
0
 10
212.429
 11
214.591
 20
385.905
 21
385.62
  0
LINE
  8
0
 10
214.591
 11
216.72
 20
385.62
 21
385.148
  0
LINE
  8
0
 10
216.72
 11
218.801
 20
385.148
 21
384.492
  0
LINE
  8
0
 10
218.801
 11
220.815
 20
384.492
 21
383.658
  0
LINE
  8
0
 10
220.815
 11
222.75
 20
383.658
 21
382.651
  0
LINE
  8
0
 10
222.75
 11
224.589
 20
382.651
 21
381.479
  0
LINE
  8
0
 10
224.589
 11
226.32
 20
381.479
 21
380.151
  0
LINE
  8
0
 10
226.32
 11
227.928
 20
380.151
 21
378.678
  0
LINE
  8
0
 10
227.928
 11
229.401
 20
378.678
 21
377.07
  0
LINE
  8
0
 10
229.401
 11
230.729
 20
377.07
 21
375.339
  0
LINE
  8
0
 10
230.729
 11
231.901
 20
375.339
 21
373.5
  0
LINE
  8
0
 10
231.901
 11
232.908
 20
373.5
 21
371.565
  0
LINE
  8
0
 10
232.908
 11
233.742
 20
371.565
 21
369.551
  0
LINE
  8
0
 10
233.742
 11
234.398
 20
369.551
 21
367.47
  0
LINE
  8
0
 10
234.398
 11
234.87
 20
367.47
 21
365.341
  0
LINE
  8
0
 10
234.87
 11
235.155
 20
365.341
 21
363.179
  0
LINE
  8
0
 10
235.155
 11
235.25
 20
363.179
 21
361
  0
LINE
  8
0
 10
235.25
 11
235.25
 20
361
 21
0
  0
LINE
  8
0
 10
235.25
 11
118.25
 20
0
 21
0
  0
LINE
  8
0
 10
118.25
 11
118.25
 20
0
 21
280.1
  0
LINE
  8
0
 10
118.25
 11
118.225
 20
280.1
 21
280.598
  0
LINE
  8
0
 10
118.225
 11
118.151
 20
280.598
 21
281.091
  0
LINE
  8
0
 10
118.151
 11
118.028
 20
281.091
 21
281.574
  0
LINE
  8
0
 10
118.028
 11
117.857
 20
281.574
 21
282.042
  0
LINE
  8
0
 10
117.857
 11
117.641
 20
282.042
 21
282.491
  0
LINE
  8
0
 10
117.641
 11
117.381
 20
282.491
 21
282.917
  0
LINE
  8
0
 10
117.381
 11
117.08
 20
282.917
 21
283.314
  0
LINE
  8
0
 10
117.08
 11
116.741
 20
283.314
 21
283.679
  0
LINE
  8
0
 10
116.741
 11
116.367
 20
283.679
 21
284.009
  0
LINE
  8
0
 10
116.367
 11
115.963
 20
284.009
 21
284.3
  0
LINE
  8
0
 10
115.963
 11
115.531
 20
284.3
 21
284.549
  0
LINE
  8
0
 10
115.531
 11
115.077
 20
284.549
 21
284.754
  0
LINE
  8
0
 10
115.077
 11
114.604
 20
284.754
 21
284.913
  0
LINE
  8
0
 10
114.604
 11
114.118
 20
284.913
 21
285.024
  0
LINE
  8
0
 10
114.118
 11
113.624
 20
285.024
 21
285.086
  0
LINE
  8
0
 10
113.624
 11
113.25
 20
285.086
 21
285.095
  0
LINE
  8
0
 10
113.25
 11
113.25
 20
285.095
 21
285.1
  0
LINE
  8
0
 10
113.25
 11
-126.75
 20
285.1
 21
285.1
  0
LINE
  8
0
 10
-126.75
 11
-126.75
 20
285.1
 21
285.095
  0
LINE
  8
0
 10
-126.75
 11
-126.875
 20
285.095
 21
285.098
  0
LINE
  8
0
 10
-126.875
 11
-127.372
 20
285.098
 21
285.061
  0
LINE
  8
0
 10
-127.372
 11
-127.863
 20
285.061
 21
284.975
  0
LINE
  8
0
 10
-127.863
 11
-128.342
 20
284.975
 21
284.84
  0
LINE
  8
0
 10
-128.342
 11
-128.806
 20
284.84
 21
284.658
  0
LINE
  8
0
 10
-128.806
 11
-129.25
 20
284.658
 21
284.43
  0
LINE
  8
0
 10
-129.25
 11
-129.669
 20
284.43
 21
284.16
  0
LINE
  8
0
 10
-129.669
 11
-130.058
 20
284.16
 21
283.849
  0
LINE
  8
0
 10
-130.058
 11
-130.415
 20
283.849
 21
283.501
  0
LINE
  8
0
 10
-130.415
 11
-130.736
 20
283.501
 21
283.119
  0
LINE
  8
0
 10
-130.736
 11
-131.016
 20
283.119
 21
282.707
  0
LINE
  8
0
 10
-131.016
 11
-131.255
 20
282.707
 21
282.269
  0
LINE
  8
0
 10
-131.255
 11
-131.448
 20
282.269
 21
281.81
  0
LINE
  8
0
 10
-131.448
 11
-131.595
 20
281.81
 21
281.334
  0
LINE
  8
0
 10
-131.595
 11
-131.694
 20
281.334
 21
280.845
  0
LINE
  8
0
 10
-131.694
 11
-131.744
 20
280.845
 21
280.349
  0
LINE
  8
0
 10
-131.744
 11
-131.744
 20
280.349
 21
280.1
  0
LINE
  8
0
 10
-131.744
 11
-131.75
 20
280.1
 21
280.1
  0
LINE
  8
0
 10
-131.75
 11
-131.75
 20
280.1
 21
0
  0
LINE
  8
0
 10
-131.75
 11
-191.63
 20
0
 21
0
  0
LINE
  8
0
 10
-191.63
 11
-191.63
 20
0
 21
2.5
  0
LINE
  8
0
 10
-191.63
 11
-191.678
 20
2.5
 21
2.988
  0
LINE
  8
0
 10
-191.678
 11
-191.82
 20
2.988
 21
3.457
  0
LINE
  8
0
 10
-191.82
 11
-192.051
 20
3.457
 21
3.889
  0
LINE
  8
0
 10
-192.051
 11
-192.362
 20
3.889
 21
4.268
  0
LINE
  8
0
 10
-192.362
 11
-192.741
 20
4.268
 21
4.579
  0
LINE
  8
0
 10
-192.741
 11
-193.173
 20
4.579
 21
4.81
  0
LINE
  8
0
 10
-193.173
 11
-193.642
 20
4.81
 21
4.952
  0
LINE
  8
0
 10
-193.642
 11
-194.13
 20
4.952
 21
5
  0
LINE
  8
0
 10
-194.13
 11
-194.618
 20
5
 21
4.952
  0
LINE
  8
0
 10
-194.618
 11
-195.087
 20
4.952
 21
4.81
  0
LINE
  8
0
 10
-195.087
 11
-195.519
 20
4.81
 21
4.579
  0
LINE
  8
0
 10
-195.519
 11
-195.898
 20
4.579
 21
4.268
  0
LINE
  8
0
 10
-195.898
 11
-196.209
 20
4.268
 21
3.889
  0
LINE
  8
0
 10
-196.209
 11
-196.44
 20
3.889
 21
3.457
  0
LINE
  8
0
 10
-196.44
 11
-196.582
 20
3.457
 21
2.988
  0
LINE
  8
0
 10
-196.582
 11
-196.63
 20
2.988
 21
2.5
  0
LINE
  8
0
 10
-196.63
 11
-196.63
 20
2.5
 21
0
  0
LINE
  8
0
 10
-196.63
 11
-235.25
 20
0
 21
0
  0
LINE
  8
0
 10
-229.95
 11
-229.895
 20
110.1
 21
110.59
  0
LINE
  8
0
 10
-229.895
 11
-229.732
 20
110.59
 21
111.055
  0
LINE
  8
0
 10
-229.732
 11
-229.47
 20
111.055
 21
111.472
  0
LINE
  8
0
 10
-229.47
 11
-229.122
 20
111.472
 21
111.82
  0
LINE
  8
0
 10
-229.122
 11
-228.705
 20
111.82
 21
112.082
  0
LINE
  8
0
 10
-228.705
 11
-228.24
 20
112.082
 21
112.245
  0
LINE
  8
0
 10
-228.24
 11
-227.75
 20
112.245
 21
112.3
  0
LINE
  8
0
 10
-227.75
 11
-227.26
 20
112.3
 21
112.245
  0
LINE
  8
0
 10
-227.26
 11
-226.795
 20
112.245
 21
112.082
  0
LINE
  8
0
 10
-226.795
 11
-226.378
 20
112.082
 21
111.82
  0
LINE
  8
0
 10
-226.378
 11
-226.03
 20
111.82
 21
111.472
  0
LINE
  8
0
 10
-226.03
 11
-225.768
 20
111.472
 21
111.055
  0
LINE
  8
0
 10
-225.768
 11
-225.605
 20
111.055
 21
110.59
  0
LINE
  8
0
 10
-225.605
 11
-225.55
 20
110.59
 21
110.1
  0
LINE
  8
0
 10
-225.55
 11
-225.605
 20
110.1
 21
109.61
  0
LINE
  8
0
 10
-225.605
 11
-225.768
 20
109.61
 21
109.145
  0
LINE
  8
0
 10
-225.768
 11
-226.03
 20
109.145
 21
108.728
  0
LINE
  8
0
 10
-226.03
 11
-226.378
 20
108.728
 21
108.38
  0
LINE
  8
0
 10
-226.378
 11
-226.795
 20
108.38
 21
108.118
  0
LINE
  8
0
 10
-226.795
 11
-227.26
 20
108.118
 21
107.955
  0
LINE
  8
0
 10
-227.26
 11
-227.75
 20
107.955
 21
107.9
  0
LINE
  8
0
 10
-227.75
 11
-228.24
 20
107.9
 21
107.955
  0
LINE
  8
0
 10
-228.24
 11
-228.705
 20
107.955
 21
108.118
  0
LINE
  8
0
 10
-228.705
 11
-229.122
 20
108.118
 21
108.38
  0
LINE
  8
0
 10
-229.122
 11
-229.47
 20
108.38
 21
108.728
  0
LINE
  8
0
 10
-229.47
 11
-229.732
 20
108.728
 21
109.145
  0
LINE
  8
0
 10
-229.732
 11
-229.895
 20
109.145
 21
109.61
  0
LINE
  8
0
 10
-229.895
 11
-229.95
 20
109.61
 21
110.1
  0
LINE
  8
0
 10
-229.95
 11
-229.895
 20
151.5
 21
151.99
  0
LINE
  8
0
 10
-229.895
 11
-229.732
 20
151.99
 21
152.455
  0
LINE
  8
0
 10
-229.732
 11
-229.47
 20
152.455
 21
152.872
  0
LINE
  8
0
 10
-229.47
 11
-229.122
 20
152.872
 21
153.22
  0
LINE
  8
0
 10
-229.122
 11
-228.705
 20
153.22
 21
153.482
  0
LINE
  8
0
 10
-228.705
 11
-228.24
 20
153.482
 21
153.645
  0
LINE
  8
0
 10
-228.24
 11
-227.75
 20
153.645
 21
153.7
  0
LINE
  8
0
 10
-227.75
 11
-227.26
 20
153.7
 21
153.645
  0
LINE
  8
0
 10
-227.26
 11
-226.795
 20
153.645
 21
153.482
  0
LINE
  8
0
 10
-226.795
 11
-226.378
 20
153.482
 21
153.22
  0
LINE
  8
0
 10
-226.378
 11
-226.03
 20
153.22
 21
152.872
  0
LINE
  8
0
 10
-226.03
 11
-225.768
 20
152.872
 21
152.455
  0
LINE
  8
0
 10
-225.768
 11
-225.605
 20
152.455
 21
151.99
  0
LINE
  8
0
 10
-225.605
 11
-225.55
 20
151.99
 21
151.5
  0
LINE
  8
0
 10
-225.55
 11
-225.605
 20
151.5
 21
151.01
  0
LINE
  8
0
 10
-225.605
 11
-225.768
 20
151.01
 21
150.545
  0
LINE
  8
0
 10
-225.768
 11
-226.03
 20
150.545
 21
150.128
  0
LINE
  8
0
 10
-226.03
 11
-226.378
 20
150.128
 21
149.78
  0
LINE
  8
0
 10
-226.378
 11
-226.795
 20
149.78
 21
149.518
  0
LINE
  8
0
 10
-226.795
 11
-227.26
 20
149.518
 21
149.355
  0
LINE
  8
0
 10
-227.26
 11
-227.75
 20
149.355
 21
149.3
  0
LINE
  8
0
 10
-227.75
 11
-228.24
 20
149.3
 21
149.355
  0
LINE
  8
0
 10
-228.24
 11
-228.705
 20
149.355
 21
149.518
  0
LINE
  8
0
 10
-228.705
 11
-229.122
 20
149.518
 21
149.78
  0
LINE
  8
0
 10
-229.122
 11
-229.47
 20
149.78
 21
150.128
  0
LINE
  8
0
 10
-229.47
 11
-229.732
 20
150.128
 21
150.545
  0
LINE
  8
0
 10
-229.732
 11
-229.895
 20
150.545
 21
151.01
  0
LINE
  8
0
 10
-229.895
 11
-229.95
 20
151.01
 21
151.5
  0
LINE
  8
0
 10
-228.75
 11
-228.695
 20
7.2
 21
7.69
  0
LINE
  8
0
 10
-228.695
 11
-228.532
 20
7.69
 21
8.155
  0
LINE
  8
0
 10
-228.532
 11
-228.27
 20
8.155
 21
8.572
  0
LINE
  8
0
 10
-228.27
 11
-227.922
 20
8.572
 21
8.92
  0
LINE
  8
0
 10
-227.922
 11
-227.505
 20
8.92
 21
9.182
  0
LINE
  8
0
 10
-227.505
 11
-227.04
 20
9.182
 21
9.345
  0
LINE
  8
0
 10
-227.04
 11
-226.55
 20
9.345
 21
9.4
  0
LINE
  8
0
 10
-226.55
 11
-226.06
 20
9.4
 21
9.345
  0
LINE
  8
0
 10
-226.06
 11
-225.595
 20
9.345
 21
9.182
  0
LINE
  8
0
 10
-225.595
 11
-225.178
 20
9.182
 21
8.92
  0
LINE
  8
0
 10
-225.178
 11
-224.83
 20
8.92
 21
8.572
  0
LINE
  8
0
 10
-224.83
 11
-224.568
 20
8.572
 21
8.155
  0
LINE
  8
0
 10
-224.568
 11
-224.405
 20
8.155
 21
7.69
  0
LINE
  8
0
 10
-224.405
 11
-224.35
 20
7.69
 21
7.2
  0
LINE
  8
0
 10
-224.35
 11
-224.405
 20
7.2
 21
6.71
  0
LINE
  8
0
 10
-224.405
 11
-224.568
 20
6.71
 21
6.245
  0
LINE
  8
0
 10
-224.568
 11
-224.83
 20
6.245
 21
5.828
  0
LINE
  8
0
 10
-224.83
 11
-225.178
 20
5.828
 21
5.48
  0
LINE
  8
0
 10
-225.178
 11
-225.595
 20
5.48
 21
5.218
  0
LINE
  8
0
 10
-225.595
 11
-226.06
 20
5.218
 21
5.055
  0
LINE
  8
0
 10
-226.06
 11
-226.55
 20
5.055
 21
5
  0
LINE
  8
0
 10
-226.55
 11
-227.04
 20
5
 21
5.055
  0
LINE
  8
0
 10
-227.04
 11
-227.505
 20
5.055
 21
5.218
  0
LINE
  8
0
 10
-227.505
 11
-227.922
 20
5.218
 21
5.48
  0
LINE
  8
0
 10
-227.922
 11
-228.27
 20
5.48
 21
5.828
  0
LINE
  8
0
 10
-228.27
 11
-228.532
 20
5.828
 21
6.245
  0
LINE
  8
0
 10
-228.532
 11
-228.695
 20
6.245
 21
6.71
  0
LINE
  8
0
 10
-228.695
 11
-228.75
 20
6.71
 21
7.2
  0
LINE
  8
0
 10
-223
 11
-223
 20
56.5
 21
65.5
  0
LINE
  8
0
 10
-223
 11
-222.945
 20
65.5
 21
65.99
  0
LINE
  8
0
 10
-222.945
 11
-222.782
 20
65.99
 21
66.455
  0
LINE
  8
0
 10
-222.782
 11
-222.52
 20
66.455
 21
66.872
  0
LINE
  8
0
 10
-222.52
 11
-222.172
 20
66.872
 21
67.22
  0
LINE
  8
0
 10
-222.172
 11
-221.755
 20
67.22
 21
67.482
  0
LINE
  8
0
 10
-221.755
 11
-221.29
 20
67.482
 21
67.645
  0
LINE
  8
0
 10
-221.29
 11
-220.8
 20
67.645
 21
67.7
  0
LINE
  8
0
 10
-220.8
 11
-220.31
 20
67.7
 21
67.645
  0
LINE
  8
0
 10
-220.31
 11
-219.845
 20
67.645
 21
67.482
  0
LINE
  8
0
 10
-219.845
 11
-219.428
 20
67.482
 21
67.22
  0
LINE
  8
0
 10
-219.428
 11
-219.08
 20
67.22
 21
66.872
  0
LINE
  8
0
 10
-219.08
 11
-218.818
 20
66.872
 21
66.455
  0
LINE
  8
0
 10
-218.818
 11
-218.655
 20
66.455
 21
65.99
  0
LINE
  8
0
 10
-218.655
 11
-218.6
 20
65.99
 21
65.5
  0
LINE
  8
0
 10
-218.6
 11
-218.6
 20
65.5
 21
56.5
  0
LINE
  8
0
 10
-218.6
 11
-218.655
 20
56.5
 21
56.01
  0
LINE
  8
0
 10
-218.655
 11
-218.818
 20
56.01
 21
55.545
  0
LINE
  8
0
 10
-218.818
 11
-219.08
 20
55.545
 21
55.128
  0
LINE
  8
0
 10
-219.08
 11
-219.428
 20
55.128
 21
54.78
  0
LINE
  8
0
 10
-219.428
 11
-219.845
 20
54.78
 21
54.518
  0
LINE
  8
0
 10
-219.845
 11
-220.31
 20
54.518
 21
54.355
  0
LINE
  8
0
 10
-220.31
 11
-220.8
 20
54.355
 21
54.3
  0
LINE
  8
0
 10
-220.8
 11
-221.29
 20
54.3
 21
54.355
  0
LINE
  8
0
 10
-221.29
 11
-221.755
 20
54.355
 21
54.518
  0
LINE
  8
0
 10
-221.755
 11
-222.172
 20
54.518
 21
54.78
  0
LINE
  8
0
 10
-222.172
 11
-222.52
 20
54.78
 21
55.128
  0
LINE
  8
0
 10
-222.52
 11
-222.782
 20
55.128
 21
55.545
  0
LINE
  8
0
 10
-222.782
 11
-222.945
 20
55.545
 21
56.01
  0
LINE
  8
0
 10
-222.945
 11
-223
 20
56.01
 21
56.5
  0
LINE
  8
0
 10
-207.75
 11
-207.692
 20
73
 21
73.479
  0
LINE
  8
0
 10
-207.692
 11
-207.521
 20
73.479
 21
73.929
  0
LINE
  8
0
 10
-207.521
 11
-207.247
 20
73.929
 21
74.326
  0
LINE
  8
0
 10
-207.247
 11
-206.886
 20
74.326
 21
74.646
  0
LINE
  8
0
 10
-206.886
 11
-206.459
 20
74.646
 21
74.87
  0
LINE
  8
0
 10
-206.459
 11
-205.991
 20
74.87
 21
74.985
  0
LINE
  8
0
 10
-205.991
 11
-205.509
 20
74.985
 21
74.985
  0
LINE
  8
0
 10
-205.509
 11
-205.041
 20
74.985
 21
74.87
  0
LINE
  8
0
 10
-205.041
 11
-204.614
 20
74.87
 21
74.646
  0
LINE
  8
0
 10
-204.614
 11
-204.253
 20
74.646
 21
74.326
  0
LINE
  8
0
 10
-204.253
 11
-203.979
 20
74.326
 21
73.929
  0
LINE
  8
0
 10
-203.979
 11
-203.808
 20
73.929
 21
73.479
  0
LINE
  8
0
 10
-203.808
 11
-203.75
 20
73.479
 21
73
  0
LINE
  8
0
 10
-203.75
 11
-203.808
 20
73
 21
72.521
  0
LINE
  8
0
 10
-203.808
 11
-203.979
 20
72.521
 21
72.071
  0
LINE
  8
0
 10
-203.979
 11
-204.253
 20
72.071
 21
71.674
  0
LINE
  8
0
 10
-204.253
 11
-204.614
 20
71.674
 21
71.354
  0
LINE
  8
0
 10
-204.614
 11
-205.041
 20
71.354
 21
71.13
  0
LINE
  8
0
 10
-205.041
 11
-205.509
 20
71.13
 21
71.015
  0
LINE
  8
0
 10
-205.509
 11
-205.991
 20
71.015
 21
71.015
  0
LINE
  8
0
 10
-205.991
 11
-206.459
 20
71.015
 21
71.13
  0
LINE
  8
0
 10
-206.459
 11
-206.886
 20
71.13
 21
71.354
  0
LINE
  8
0
 10
-206.886
 11
-207.247
 20
71.354
 21
71.674
  0
LINE
  8
0
 10
-207.247
 11
-207.521
 20
71.674
 21
72.071
  0
LINE
  8
0
 10
-207.521
 11
-207.692
 20
72.071
 21
72.521
  0
LINE
  8
0
 10
-207.692
 11
-207.75
 20
72.521
 21
73
  0
LINE
  8
0
 10
-207.53
 11
-207.475
 20
7.2
 21
7.69
  0
LINE
  8
0
 10
-207.475
 11
-207.312
 20
7.69
 21
8.155
  0
LINE
  8
0
 10
-207.312
 11
-207.05
 20
8.155
 21
8.572
  0
LINE
  8
0
 10
-207.05
 11
-206.702
 20
8.572
 21
8.92
  0
LINE
  8
0
 10
-206.702
 11
-206.285
 20
8.92
 21
9.182
  0
LINE
  8
0
 10
-206.285
 11
-205.82
 20
9.182
 21
9.345
  0
LINE
  8
0
 10
-205.82
 11
-205.33
 20
9.345
 21
9.4
  0
LINE
  8
0
 10
-205.33
 11
-204.84
 20
9.4
 21
9.345
  0
LINE
  8
0
 10
-204.84
 11
-204.375
 20
9.345
 21
9.182
  0
LINE
  8
0
 10
-204.375
 11
-203.958
 20
9.182
 21
8.92
  0
LINE
  8
0
 10
-203.958
 11
-203.61
 20
8.92
 21
8.572
  0
LINE
  8
0
 10
-203.61
 11
-203.348
 20
8.572
 21
8.155
  0
LINE
  8
0
 10
-203.348
 11
-203.185
 20
8.155
 21
7.69
  0
LINE
  8
0
 10
-203.185
 11
-203.13
 20
7.69
 21
7.2
  0
LINE
  8
0
 10
-203.13
 11
-203.185
 20
7.2
 21
6.71
  0
LINE
  8
0
 10
-203.185
 11
-203.348
 20
6.71
 21
6.245
  0
LINE
  8
0
 10
-203.348
 11
-203.61
 20
6.245
 21
5.828
  0
LINE
  8
0
 10
-203.61
 11
-203.958
 20
5.828
 21
5.48
  0
LINE
  8
0
 10
-203.958
 11
-204.375
 20
5.48
 21
5.218
  0
LINE
  8
0
 10
-204.375
 11
-204.84
 20
5.218
 21
5.055
  0
LINE
  8
0
 10
-204.84
 11
-205.33
 20
5.055
 21
5
  0
LINE
  8
0
 10
-205.33
 11
-205.82
 20
5
 21
5.055
  0
LINE
  8
0
 10
-205.82
 11
-206.285
 20
5.055
 21
5.218
  0
LINE
  8
0
 10
-206.285
 11
-206.702
 20
5.218
 21
5.48
  0
LINE
  8
0
 10
-206.702
 11
-207.05
 20
5.48
 21
5.828
  0
LINE
  8
0
 10
-207.05
 11
-207.312
 20
5.828
 21
6.245
  0
LINE
  8
0
 10
-207.312
 11
-207.475
 20
6.245
 21
6.71
  0
LINE
  8
0
 10
-207.475
 11
-207.53
 20
6.71
 21
7.2
  0
LINE
  8
0
 10
-201.75
 11
-201.692
 20
369
 21
369.479
  0
LINE
  8
0
 10
-201.692
 11
-201.521
 20
369.479
 21
369.929
  0
LINE
  8
0
 10
-201.521
 11
-201.247
 20
369.929
 21
370.326
  0
LINE
  8
0
 10
-201.247
 11
-200.886
 20
370.326
 21
370.646
  0
LINE
  8
0
 10
-200.886
 11
-200.459
 20
370.646
 21
370.87
  0
LINE
  8
0
 10
-200.459
 11
-199.991
 20
370.87
 21
370.985
  0
LINE
  8
0
 10
-199.991
 11
-199.509
 20
370.985
 21
370.985
  0
LINE
  8
0
 10
-199.509
 11
-199.041
 20
370.985
 21
370.87
  0
LINE
  8
0
 10
-199.041
 11
-198.614
 20
370.87
 21
370.646
  0
LINE
  8
0
 10
-198.614
 11
-198.253
 20
370.646
 21
370.326
  0
LINE
  8
0
 10
-198.253
 11
-197.979
 20
370.326
 21
369.929
  0
LINE
  8
0
 10
-197.979
 11
-197.808
 20
369.929
 21
369.479
  0
LINE
  8
0
 10
-197.808
 11
-197.75
 20
369.479
 21
369
  0
LINE
  8
0
 10
-197.75
 11
-197.808
 20
369
 21
368.521
  0
LINE
  8
0
 10
-197.808
 11
-197.979
 20
368.521
 21
368.071
  0
LINE
  8
0
 10
-197.979
 11
-198.253
 20
368.071
 21
367.674
  0
LINE
  8
0
 10
-198.253
 11
-198.614
 20
367.674
 21
367.354
  0
LINE
  8
0
 10
-198.614
 11
-199.041
 20
367.354
 21
367.13
  0
LINE
  8
0
 10
-199.041
 11
-199.509
 20
367.13
 21
367.015
  0
LINE
  8
0
 10
-199.509
 11
-199.991
 20
367.015
 21
367.015
  0
LINE
  8
0
 10
-199.991
 11
-200.459
 20
367.015
 21
367.13
  0
LINE
  8
0
 10
-200.459
 11
-200.886
 20
367.13
 21
367.354
  0
LINE
  8
0
 10
-200.886
 11
-201.247
 20
367.354
 21
367.674
  0
LINE
  8
0
 10
-201.247
 11
-201.521
 20
367.674
 21
368.071
  0
LINE
  8
0
 10
-201.521
 11
-201.692
 20
368.071
 21
368.521
  0
LINE
  8
0
 10
-201.692
 11
-201.75
 20
368.521
 21
369
  0
LINE
  8
0
 10
-200.5
 11
-200.445
 20
378.5
 21
378.99
  0
LINE
  8
0
 10
-200.445
 11
-200.282
 20
378.99
 21
379.455
  0
LINE
  8
0
 10
-200.282
 11
-200.02
 20
379.455
 21
379.872
  0
LINE
  8
0
 10
-200.02
 11
-199.672
 20
379.872
 21
380.22
  0
LINE
  8
0
 10
-199.672
 11
-199.255
 20
380.22
 21
380.482
  0
LINE
  8
0
 10
-199.255
 11
-198.79
 20
380.482
 21
380.645
  0
LINE
  8
0
 10
-198.79
 11
-198.3
 20
380.645
 21
380.7
  0
LINE
  8
0
 10
-198.3
 11
-197.81
 20
380.7
 21
380.645
  0
LINE
  8
0
 10
-197.81
 11
-197.345
 20
380.645
 21
380.482
  0
LINE
  8
0
 10
-197.345
 11
-196.928
 20
380.482
 21
380.22
  0
LINE
  8
0
 10
-196.928
 11
-196.58
 20
380.22
 21
379.872
  0
LINE
  8
0
 10
-196.58
 11
-196.318
 20
379.872
 21
379.455
  0
LINE
  8
0
 10
-196.318
 11
-196.155
 20
379.455
 21
378.99
  0
LINE
  8
0
 10
-196.155
 11
-196.1
 20
378.99
 21
378.5
  0
LINE
  8
0
 10
-196.1
 11
-196.155
 20
378.5
 21
378.01
  0
LINE
  8
0
 10
-196.155
 11
-196.318
 20
378.01
 21
377.545
  0
LINE
  8
0
 10
-196.318
 11
-196.58
 20
377.545
 21
377.128
  0
LINE
  8
0
 10
-196.58
 11
-196.928
 20
377.128
 21
376.78
  0
LINE
  8
0
 10
-196.928
 11
-197.345
 20
376.78
 21
376.518
  0
LINE
  8
0
 10
-197.345
 11
-197.81
 20
376.518
 21
376.355
  0
LINE
  8
0
 10
-197.81
 11
-198.3
 20
376.355
 21
376.3
  0
LINE
  8
0
 10
-198.3
 11
-198.79
 20
376.3
 21
376.355
  0
LINE
  8
0
 10
-198.79
 11
-199.255
 20
376.355
 21
376.518
  0
LINE
  8
0
 10
-199.255
 11
-199.672
 20
376.518
 21
376.78
  0
LINE
  8
0
 10
-199.672
 11
-200.02
 20
376.78
 21
377.128
  0
LINE
  8
0
 10
-200.02
 11
-200.282
 20
377.128
 21
377.545
  0
LINE
  8
0
 10
-200.282
 11
-200.445
 20
377.545
 21
378.01
  0
LINE
  8
0
 10
-200.445
 11
-200.5
 20
378.01
 21
378.5
  0
LINE
  8
0
 10
-192.9
 11
-192.9
 20
56.5
 21
65.5
  0
LINE
  8
0
 10
-192.9
 11
-192.845
 20
65.5
 21
65.99
  0
LINE
  8
0
 10
-192.845
 11
-192.682
 20
65.99
 21
66.455
  0
LINE
  8
0
 10
-192.682
 11
-192.42
 20
66.455
 21
66.872
  0
LINE
  8
0
 10
-192.42
 11
-192.072
 20
66.872
 21
67.22
  0
LINE
  8
0
 10
-192.072
 11
-191.655
 20
67.22
 21
67.482
  0
LINE
  8
0
 10
-191.655
 11
-191.19
 20
67.482
 21
67.645
  0
LINE
  8
0
 10
-191.19
 11
-190.7
 20
67.645
 21
67.7
  0
LINE
  8
0
 10
-190.7
 11
-190.21
 20
67.7
 21
67.645
  0
LINE
  8
0
 10
-190.21
 11
-189.745
 20
67.645
 21
67.482
  0
LINE
  8
0
 10
-189.745
 11
-189.328
 20
67.482
 21
67.22
  0
LINE
  8
0
 10
-189.328
 11
-188.98
 20
67.22
 21
66.872
  0
LINE
  8
0
 10
-188.98
 11
-188.718
 20
66.872
 21
66.455
  0
LINE
  8
0
 10
-188.718
 11
-188.555
 20
66.455
 21
65.99
  0
LINE
  8
0
 10
-188.555
 11
-188.5
 20
65.99
 21
65.5
  0
LINE
  8
0
 10
-188.5
 11
-188.5
 20
65.5
 21
56.5
  0
LINE
  8
0
 10
-188.5
 11
-188.555
 20
56.5
 21
56.01
  0
LINE
  8
0
 10
-188.555
 11
-188.718
 20
56.01
 21
55.545
  0
LINE
  8
0
 10
-188.718
 11
-188.98
 20
55.545
 21
55.128
  0
LINE
  8
0
 10
-188.98
 11
-189.328
 20
55.128
 21
54.78
  0
LINE
  8
0
 10
-189.328
 11
-189.745
 20
54.78
 21
54.518
  0
LINE
  8
0
 10
-189.745
 11
-190.21
 20
54.518
 21
54.355
  0
LINE
  8
0
 10
-190.21
 11
-190.7
 20
54.355
 21
54.3
  0
LINE
  8
0
 10
-190.7
 11
-191.19
 20
54.3
 21
54.355
  0
LINE
  8
0
 10
-191.19
 11
-191.655
 20
54.355
 21
54.518
  0
LINE
  8
0
 10
-191.655
 11
-192.072
 20
54.518
 21
54.78
  0
LINE
  8
0
 10
-192.072
 11
-192.42
 20
54.78
 21
55.128
  0
LINE
  8
0
 10
-192.42
 11
-192.682
 20
55.128
 21
55.545
  0
LINE
  8
0
 10
-192.682
 11
-192.845
 20
55.545
 21
56.01
  0
LINE
  8
0
 10
-192.845
 11
-192.9
 20
56.01
 21
56.5
  0
LINE
  8
0
 10
-173.25
 11
-173.195
 20
33.71
 21
34.2
  0
LINE
  8
0
 10
-173.195
 11
-173.032
 20
34.2
 21
34.665
  0
LINE
  8
0
 10
-173.032
 11
-172.77
 20
34.665
 21
35.082
  0
LINE
  8
0
 10
-172.77
 11
-172.422
 20
35.082
 21
35.43
  0
LINE
  8
0
 10
-172.422
 11
-172.005
 20
35.43
 21
35.692
  0
LINE
  8
0
 10
-172.005
 11
-171.54
 20
35.692
 21
35.855
  0
LINE
  8
0
 10
-171.54
 11
-171.05
 20
35.855
 21
35.91
  0
LINE
  8
0
 10
-171.05
 11
-170.56
 20
35.91
 21
35.855
  0
LINE
  8
0
 10
-170.56
 11
-170.095
 20
35.855
 21
35.692
  0
LINE
  8
0
 10
-170.095
 11
-169.678
 20
35.692
 21
35.43
  0
LINE
  8
0
 10
-169.678
 11
-169.33
 20
35.43
 21
35.082
  0
LINE
  8
0
 10
-169.33
 11
-169.068
 20
35.082
 21
34.665
  0
LINE
  8
0
 10
-169.068
 11
-168.905
 20
34.665
 21
34.2
  0
LINE
  8
0
 10
-168.905
 11
-168.85
 20
34.2
 21
33.71
  0
LINE
  8
0
 10
-168.85
 11
-168.905
 20
33.71
 21
33.22
  0
LINE
  8
0
 10
-168.905
 11
-169.068
 20
33.22
 21
32.755
  0
LINE
  8
0
 10
-169.068
 11
-169.33
 20
32.755
 21
32.338
  0
LINE
  8
0
 10
-169.33
 11
-169.678
 20
32.338
 21
31.99
  0
LINE
  8
0
 10
-169.678
 11
-170.095
 20
31.99
 21
31.728
  0
LINE
  8
0
 10
-170.095
 11
-170.56
 20
31.728
 21
31.565
  0
LINE
  8
0
 10
-170.56
 11
-171.05
 20
31.565
 21
31.51
  0
LINE
  8
0
 10
-171.05
 11
-171.54
 20
31.51
 21
31.565
  0
LINE
  8
0
 10
-171.54
 11
-172.005
 20
31.565
 21
31.728
  0
LINE
  8
0
 10
-172.005
 11
-172.422
 20
31.728
 21
31.99
  0
LINE
  8
0
 10
-172.422
 11
-172.77
 20
31.99
 21
32.338
  0
LINE
  8
0
 10
-172.77
 11
-173.032
 20
32.338
 21
32.755
  0
LINE
  8
0
 10
-173.032
 11
-173.195
 20
32.755
 21
33.22
  0
LINE
  8
0
 10
-173.195
 11
-173.25
 20
33.22
 21
33.71
  0
LINE
  8
0
 10
-173.25
 11
-173.195
 20
352.29
 21
352.78
  0
LINE
  8
0
 10
-173.195
 11
-173.032
 20
352.78
 21
353.245
  0
LINE
  8
0
 10
-173.032
 11
-172.77
 20
353.245
 21
353.662
  0
LINE
  8
0
 10
-172.77
 11
-172.422
 20
353.662
 21
354.01
  0
LINE
  8
0
 10
-172.422
 11
-172.005
 20
354.01
 21
354.272
  0
LINE
  8
0
 10
-172.005
 11
-171.54
 20
354.272
 21
354.435
  0
LINE
  8
0
 10
-171.54
 11
-171.05
 20
354.435
 21
354.49
  0
LINE
  8
0
 10
-171.05
 11
-170.56
 20
354.49
 21
354.435
  0
LINE
  8
0
 10
-170.56
 11
-170.095
 20
354.435
 21
354.272
  0
LINE
  8
0
 10
-170.095
 11
-169.678
 20
354.272
 21
354.01
  0
LINE
  8
0
 10
-169.678
 11
-169.33
 20
354.01
 21
353.662
  0
LINE
  8
0
 10
-169.33
 11
-169.068
 20
353.662
 21
353.245
  0
LINE
  8
0
 10
-169.068
 11
-168.905
 20
353.245
 21
352.78
  0
LINE
  8
0
 10
-168.905
 11
-168.85
 20
352.78
 21
352.29
  0
LINE
  8
0
 10
-168.85
 11
-168.905
 20
352.29
 21
351.8
  0
LINE
  8
0
 10
-168.905
 11
-169.068
 20
351.8
 21
351.335
  0
LINE
  8
0
 10
-169.068
 11
-169.33
 20
351.335
 21
350.918
  0
LINE
  8
0
 10
-169.33
 11
-169.678
 20
350.918
 21
350.57
  0
LINE
  8
0
 10
-169.678
 11
-170.095
 20
350.57
 21
350.308
  0
LINE
  8
0
 10
-170.095
 11
-170.56
 20
350.308
 21
350.145
  0
LINE
  8
0
 10
-170.56
 11
-171.05
 20
350.145
 21
350.09
  0
LINE
  8
0
 10
-171.05
 11
-171.54
 20
350.09
 21
350.145
  0
LINE
  8
0
 10
-171.54
 11
-172.005
 20
350.145
 21
350.308
  0
LINE
  8
0
 10
-172.005
 11
-172.422
 20
350.308
 21
350.57
  0
LINE
  8
0
 10
-172.422
 11
-172.77
 20
350.57
 21
350.918
  0
LINE
  8
0
 10
-172.77
 11
-173.032
 20
350.918
 21
351.335
  0
LINE
  8
0
 10
-173.032
 11
-173.195
 20
351.335
 21
351.8
  0
LINE
  8
0
 10
-173.195
 11
-173.25
 20
351.8
 21
352.29
  0
LINE
  8
0
 10
-169.745
 11
-169.624
 20
326.804
 21
327.283
  0
LINE
  8
0
 10
-169.624
 11
-169.354
 20
327.283
 21
327.696
  0
LINE
  8
0
 10
-169.354
 11
-168.964
 20
327.696
 21
327.999
  0
LINE
  8
0
 10
-168.964
 11
-168.497
 20
327.999
 21
328.16
  0
LINE
  8
0
 10
-168.497
 11
-168.003
 20
328.16
 21
328.16
  0
LINE
  8
0
 10
-168.003
 11
-167.536
 20
328.16
 21
327.999
  0
LINE
  8
0
 10
-167.536
 11
-167.146
 20
327.999
 21
327.696
  0
LINE
  8
0
 10
-167.146
 11
-166.876
 20
327.696
 21
327.283
  0
LINE
  8
0
 10
-166.876
 11
-166.755
 20
327.283
 21
326.804
  0
LINE
  8
0
 10
-166.755
 11
-166.796
 20
326.804
 21
326.312
  0
LINE
  8
0
 10
-166.796
 11
-166.994
 20
326.312
 21
325.86
  0
LINE
  8
0
 10
-166.994
 11
-167.329
 20
325.86
 21
325.496
  0
LINE
  8
0
 10
-167.329
 11
-167.763
 20
325.496
 21
325.261
  0
LINE
  8
0
 10
-167.763
 11
-168.25
 20
325.261
 21
325.18
  0
LINE
  8
0
 10
-168.25
 11
-168.737
 20
325.18
 21
325.261
  0
LINE
  8
0
 10
-168.737
 11
-169.171
 20
325.261
 21
325.496
  0
LINE
  8
0
 10
-169.171
 11
-169.506
 20
325.496
 21
325.86
  0
LINE
  8
0
 10
-169.506
 11
-169.704
 20
325.86
 21
326.312
  0
LINE
  8
0
 10
-169.704
 11
-169.745
 20
326.312
 21
326.804
  0
LINE
  8
0
 10
-169.745
 11
-169.624
 20
332.604
 21
333.083
  0
LINE
  8
0
 10
-169.624
 11
-169.354
 20
333.083
 21
333.496
  0
LINE
  8
0
 10
-169.354
 11
-168.964
 20
333.496
 21
333.799
  0
LINE
  8
0
 10
-168.964
 11
-168.497
 20
333.799
 21
333.96
  0
LINE
  8
0
 10
-168.497
 11
-168.003
 20
333.96
 21
333.96
  0
LINE
  8
0
 10
-168.003
 11
-167.536
 20
333.96
 21
333.799
  0
LINE
  8
0
 10
-167.536
 11
-167.146
 20
333.799
 21
333.496
  0
LINE
  8
0
 10
-167.146
 11
-166.876
 20
333.496
 21
333.083
  0
LINE
  8
0
 10
-166.876
 11
-166.755
 20
333.083
 21
332.604
  0
LINE
  8
0
 10
-166.755
 11
-166.796
 20
332.604
 21
332.112
  0
LINE
  8
0
 10
-166.796
 11
-166.994
 20
332.112
 21
331.66
  0
LINE
  8
0
 10
-166.994
 11
-167.329
 20
331.66
 21
331.296
  0
LINE
  8
0
 10
-167.329
 11
-167.763
 20
331.296
 21
331.061
  0
LINE
  8
0
 10
-167.763
 11
-168.25
 20
331.061
 21
330.98
  0
LINE
  8
0
 10
-168.25
 11
-168.737
 20
330.98
 21
331.061
  0
LINE
  8
0
 10
-168.737
 11
-169.171
 20
331.061
 21
331.296
  0
LINE
  8
0
 10
-169.171
 11
-169.506
 20
331.296
 21
331.66
  0
LINE
  8
0
 10
-169.506
 11
-169.704
 20
331.66
 21
332.112
  0
LINE
  8
0
 10
-169.704
 11
-169.745
 20
332.112
 21
332.604
  0
LINE
  8
0
 10
-166.4
 11
-166.345
 20
378.5
 21
378.99
  0
LINE
  8
0
 10
-166.345
 11
-166.182
 20
378.99
 21
379.455
  0
LINE
  8
0
 10
-166.182
 11
-165.92
 20
379.455
 21
379.872
  0
LINE
  8
0
 10
-165.92
 11
-165.572
 20
379.872
 21
380.22
  0
LINE
  8
0
 10
-165.572
 11
-165.155
 20
380.22
 21
380.482
  0
LINE
  8
0
 10
-165.155
 11
-164.69
 20
380.482
 21
380.645
  0
LINE
  8
0
 10
-164.69
 11
-164.2
 20
380.645
 21
380.7
  0
LINE
  8
0
 10
-164.2
 11
-163.71
 20
380.7
 21
380.645
  0
LINE
  8
0
 10
-163.71
 11
-163.245
 20
380.645
 21
380.482
  0
LINE
  8
0
 10
-163.245
 11
-162.828
 20
380.482
 21
380.22
  0
LINE
  8
0
 10
-162.828
 11
-162.48
 20
380.22
 21
379.872
  0
LINE
  8
0
 10
-162.48
 11
-162.218
 20
379.872
 21
379.455
  0
LINE
  8
0
 10
-162.218
 11
-162.055
 20
379.455
 21
378.99
  0
LINE
  8
0
 10
-162.055
 11
-162
 20
378.99
 21
378.5
  0
LINE
  8
0
 10
-162
 11
-162.055
 20
378.5
 21
378.01
  0
LINE
  8
0
 10
-162.055
 11
-162.218
 20
378.01
 21
377.545
  0
LINE
  8
0
 10
-162.218
 11
-162.48
 20
377.545
 21
377.128
  0
LINE
  8
0
 10
-162.48
 11
-162.828
 20
377.128
 21
376.78
  0
LINE
  8
0
 10
-162.828
 11
-163.245
 20
376.78
 21
376.518
  0
LINE
  8
0
 10
-163.245
 11
-163.71
 20
376.518
 21
376.355
  0
LINE
  8
0
 10
-163.71
 11
-164.2
 20
376.355
 21
376.3
  0
LINE
  8
0
 10
-164.2
 11
-164.69
 20
376.3
 21
376.355
  0
LINE
  8
0
 10
-164.69
 11
-165.155
 20
376.355
 21
376.518
  0
LINE
  8
0
 10
-165.155
 11
-165.572
 20
376.518
 21
376.78
  0
LINE
  8
0
 10
-165.572
 11
-165.92
 20
376.78
 21
377.128
  0
LINE
  8
0
 10
-165.92
 11
-166.182
 20
377.128
 21
377.545
  0
LINE
  8
0
 10
-166.182
 11
-166.345
 20
377.545
 21
378.01
  0
LINE
  8
0
 10
-166.345
 11
-166.4
 20
378.01
 21
378.5
  0
LINE
  8
0
 10
-164.745
 11
-164.704
 20
313.956
 21
314.448
  0
LINE
  8
0
 10
-164.704
 11
-164.506
 20
314.448
 21
314.9
  0
LINE
  8
0
 10
-164.506
 11
-164.171
 20
314.9
 21
315.264
  0
LINE
  8
0
 10
-164.171
 11
-163.737
 20
315.264
 21
315.499
  0
LINE
  8
0
 10
-163.737
 11
-163.25
 20
315.499
 21
315.58
  0
LINE
  8
0
 10
-163.25
 11
-162.763
 20
315.58
 21
315.499
  0
LINE
  8
0
 10
-162.763
 11
-162.329
 20
315.499
 21
315.264
  0
LINE
  8
0
 10
-162.329
 11
-161.994
 20
315.264
 21
314.9
  0
LINE
  8
0
 10
-161.994
 11
-161.796
 20
314.9
 21
314.448
  0
LINE
  8
0
 10
-161.796
 11
-161.755
 20
314.448
 21
313.956
  0
LINE
  8
0
 10
-161.755
 11
-161.876
 20
313.956
 21
313.477
  0
LINE
  8
0
 10
-161.876
 11
-162.146
 20
313.477
 21
313.064
  0
LINE
  8
0
 10
-162.146
 11
-162.536
 20
313.064
 21
312.761
  0
LINE
  8
0
 10
-162.536
 11
-163.003
 20
312.761
 21
312.6
  0
LINE
  8
0
 10
-163.003
 11
-163.497
 20
312.6
 21
312.6
  0
LINE
  8
0
 10
-163.497
 11
-163.964
 20
312.6
 21
312.761
  0
LINE
  8
0
 10
-163.964
 11
-164.354
 20
312.761
 21
313.064
  0
LINE
  8
0
 10
-164.354
 11
-164.624
 20
313.064
 21
313.477
  0
LINE
  8
0
 10
-164.624
 11
-164.745
 20
313.477
 21
313.956
  0
LINE
  8
0
 10
-164.745
 11
-164.704
 20
321.156
 21
321.648
  0
LINE
  8
0
 10
-164.704
 11
-164.506
 20
321.648
 21
322.1
  0
LINE
  8
0
 10
-164.506
 11
-164.171
 20
322.1
 21
322.464
  0
LINE
  8
0
 10
-164.171
 11
-163.737
 20
322.464
 21
322.699
  0
LINE
  8
0
 10
-163.737
 11
-163.25
 20
322.699
 21
322.78
  0
LINE
  8
0
 10
-163.25
 11
-162.763
 20
322.78
 21
322.699
  0
LINE
  8
0
 10
-162.763
 11
-162.329
 20
322.699
 21
322.464
  0
LINE
  8
0
 10
-162.329
 11
-161.994
 20
322.464
 21
322.1
  0
LINE
  8
0
 10
-161.994
 11
-161.796
 20
322.1
 21
321.648
  0
LINE
  8
0
 10
-161.796
 11
-161.755
 20
321.648
 21
321.156
  0
LINE
  8
0
 10
-161.755
 11
-161.876
 20
321.156
 21
320.677
  0
LINE
  8
0
 10
-161.876
 11
-162.146
 20
320.677
 21
320.264
  0
LINE
  8
0
 10
-162.146
 11
-162.536
 20
320.264
 21
319.961
  0
LINE
  8
0
 10
-162.536
 11
-163.003
 20
319.961
 21
319.8
  0
LINE
  8
0
 10
-163.003
 11
-163.497
 20
319.8
 21
319.8
  0
LINE
  8
0
 10
-163.497
 11
-163.964
 20
319.8
 21
319.961
  0
LINE
  8
0
 10
-163.964
 11
-164.354
 20
319.961
 21
320.264
  0
LINE
  8
0
 10
-164.354
 11
-164.624
 20
320.264
 21
320.677
  0
LINE
  8
0
 10
-164.624
 11
-164.745
 20
320.677
 21
321.156
  0
LINE
  8
0
 10
-163.37
 11
-163.315
 20
7.2
 21
7.69
  0
LINE
  8
0
 10
-163.315
 11
-163.152
 20
7.69
 21
8.155
  0
LINE
  8
0
 10
-163.152
 11
-162.89
 20
8.155
 21
8.572
  0
LINE
  8
0
 10
-162.89
 11
-162.542
 20
8.572
 21
8.92
  0
LINE
  8
0
 10
-162.542
 11
-162.125
 20
8.92
 21
9.182
  0
LINE
  8
0
 10
-162.125
 11
-161.66
 20
9.182
 21
9.345
  0
LINE
  8
0
 10
-161.66
 11
-161.17
 20
9.345
 21
9.4
  0
LINE
  8
0
 10
-161.17
 11
-160.68
 20
9.4
 21
9.345
  0
LINE
  8
0
 10
-160.68
 11
-160.215
 20
9.345
 21
9.182
  0
LINE
  8
0
 10
-160.215
 11
-159.798
 20
9.182
 21
8.92
  0
LINE
  8
0
 10
-159.798
 11
-159.45
 20
8.92
 21
8.572
  0
LINE
  8
0
 10
-159.45
 11
-159.188
 20
8.572
 21
8.155
  0
LINE
  8
0
 10
-159.188
 11
-159.025
 20
8.155
 21
7.69
  0
LINE
  8
0
 10
-159.025
 11
-158.97
 20
7.69
 21
7.2
  0
LINE
  8
0
 10
-158.97
 11
-159.025
 20
7.2
 21
6.71
  0
LINE
  8
0
 10
-159.025
 11
-159.188
 20
6.71
 21
6.245
  0
LINE
  8
0
 10
-159.188
 11
-159.45
 20
6.245
 21
5.828
  0
LINE
  8
0
 10
-159.45
 11
-159.798
 20
5.828
 21
5.48
  0
LINE
  8
0
 10
-159.798
 11
-160.215
 20
5.48
 21
5.218
  0
LINE
  8
0
 10
-160.215
 11
-160.68
 20
5.218
 21
5.055
  0
LINE
  8
0
 10
-160.68
 11
-161.17
 20
5.055
 21
5
  0
LINE
  8
0
 10
-161.17
 11
-161.66
 20
5
 21
5.055
  0
LINE
  8
0
 10
-161.66
 11
-162.125
 20
5.055
 21
5.218
  0
LINE
  8
0
 10
-162.125
 11
-162.542
 20
5.218
 21
5.48
  0
LINE
  8
0
 10
-162.542
 11
-162.89
 20
5.48
 21
5.828
  0
LINE
  8
0
 10
-162.89
 11
-163.152
 20
5.828
 21
6.245
  0
LINE
  8
0
 10
-163.152
 11
-163.315
 20
6.245
 21
6.71
  0
LINE
  8
0
 10
-163.315
 11
-163.37
 20
6.71
 21
7.2
  0
LINE
  8
0
 10
-142.15
 11
-142.095
 20
7.2
 21
7.69
  0
LINE
  8
0
 10
-142.095
 11
-141.932
 20
7.69
 21
8.155
  0
LINE
  8
0
 10
-141.932
 11
-141.67
 20
8.155
 21
8.572
  0
LINE
  8
0
 10
-141.67
 11
-141.322
 20
8.572
 21
8.92
  0
LINE
  8
0
 10
-141.322
 11
-140.905
 20
8.92
 21
9.182
  0
LINE
  8
0
 10
-140.905
 11
-140.44
 20
9.182
 21
9.345
  0
LINE
  8
0
 10
-140.44
 11
-139.95
 20
9.345
 21
9.4
  0
LINE
  8
0
 10
-139.95
 11
-139.46
 20
9.4
 21
9.345
  0
LINE
  8
0
 10
-139.46
 11
-138.995
 20
9.345
 21
9.182
  0
LINE
  8
0
 10
-138.995
 11
-138.578
 20
9.182
 21
8.92
  0
LINE
  8
0
 10
-138.578
 11
-138.23
 20
8.92
 21
8.572
  0
LINE
  8
0
 10
-138.23
 11
-137.968
 20
8.572
 21
8.155
  0
LINE
  8
0
 10
-137.968
 11
-137.805
 20
8.155
 21
7.69
  0
LINE
  8
0
 10
-137.805
 11
-137.75
 20
7.69
 21
7.2
  0
LINE
  8
0
 10
-137.75
 11
-137.805
 20
7.2
 21
6.71
  0
LINE
  8
0
 10
-137.805
 11
-137.968
 20
6.71
 21
6.245
  0
LINE
  8
0
 10
-137.968
 11
-138.23
 20
6.245
 21
5.828
  0
LINE
  8
0
 10
-138.23
 11
-138.578
 20
5.828
 21
5.48
  0
LINE
  8
0
 10
-138.578
 11
-138.995
 20
5.48
 21
5.218
  0
LINE
  8
0
 10
-138.995
 11
-139.46
 20
5.218
 21
5.055
  0
LINE
  8
0
 10
-139.46
 11
-139.95
 20
5.055
 21
5
  0
LINE
  8
0
 10
-139.95
 11
-140.44
 20
5
 21
5.055
  0
LINE
  8
0
 10
-140.44
 11
-140.905
 20
5.055
 21
5.218
  0
LINE
  8
0
 10
-140.905
 11
-141.322
 20
5.218
 21
5.48
  0
LINE
  8
0
 10
-141.322
 11
-141.67
 20
5.48
 21
5.828
  0
LINE
  8
0
 10
-141.67
 11
-141.932
 20
5.828
 21
6.245
  0
LINE
  8
0
 10
-141.932
 11
-142.095
 20
6.245
 21
6.71
  0
LINE
  8
0
 10
-142.095
 11
-142.15
 20
6.71
 21
7.2
  0
LINE
  8
0
 10
-114.75
 11
-114.709
 20
213
 21
213.494
  0
LINE
  8
0
 10
-114.709
 11
-114.587
 20
213.494
 21
213.974
  0
LINE
  8
0
 10
-114.587
 11
-114.388
 20
213.974
 21
214.428
  0
LINE
  8
0
 10
-114.388
 11
-114.117
 20
214.428
 21
214.843
  0
LINE
  8
0
 10
-114.117
 11
-113.782
 20
214.843
 21
215.207
  0
LINE
  8
0
 10
-113.782
 11
-113.391
 20
215.207
 21
215.511
  0
LINE
  8
0
 10
-113.391
 11
-112.955
 20
215.511
 21
215.747
  0
LINE
  8
0
 10
-112.955
 11
-112.486
 20
215.747
 21
215.908
  0
LINE
  8
0
 10
-112.486
 11
-111.998
 20
215.908
 21
215.99
  0
LINE
  8
0
 10
-111.998
 11
-25.26
 20
215.99
 21
215.994
  0
LINE
  8
0
 10
-25.26
 11
-25.26
 20
215.994
 21
211
  0
LINE
  8
0
 10
-25.26
 11
11.76
 20
211
 21
211
  0
LINE
  8
0
 10
11.76
 11
11.76
 20
211
 21
215.996
  0
LINE
  8
0
 10
11.76
 11
98.25
 20
215.996
 21
216
  0
LINE
  8
0
 10
98.25
 11
98.744
 20
216
 21
215.959
  0
LINE
  8
0
 10
98.744
 11
99.224
 20
215.959
 21
215.837
  0
LINE
  8
0
 10
99.224
 11
99.678
 20
215.837
 21
215.638
  0
LINE
  8
0
 10
99.678
 11
100.093
 20
215.638
 21
215.367
  0
LINE
  8
0
 10
100.093
 11
100.457
 20
215.367
 21
215.032
  0
LINE
  8
0
 10
100.457
 11
100.761
 20
215.032
 21
214.641
  0
LINE
  8
0
 10
100.761
 11
100.997
 20
214.641
 21
214.205
  0
LINE
  8
0
 10
100.997
 11
101.158
 20
214.205
 21
213.736
  0
LINE
  8
0
 10
101.158
 11
101.24
 20
213.736
 21
213.248
  0
LINE
  8
0
 10
101.24
 11
101.25
 20
213.248
 21
3
  0
LINE
  8
0
 10
101.25
 11
101.209
 20
3
 21
2.506
  0
LINE
  8
0
 10
101.209
 11
101.087
 20
2.506
 21
2.026
  0
LINE
  8
0
 10
101.087
 11
100.888
 20
2.026
 21
1.572
  0
LINE
  8
0
 10
100.888
 11
100.617
 20
1.572
 21
1.157
  0
LINE
  8
0
 10
100.617
 11
100.282
 20
1.157
 21
0.793
  0
LINE
  8
0
 10
100.282
 11
99.891
 20
0.793
 21
0.489
  0
LINE
  8
0
 10
99.891
 11
99.455
 20
0.489
 21
0.253
  0
LINE
  8
0
 10
99.455
 11
98.986
 20
0.253
 21
0.092
  0
LINE
  8
0
 10
98.986
 11
98.498
 20
0.092
 21
0.01
  0
LINE
  8
0
 10
98.498
 11
-111.75
 20
0.01
 21
0
  0
LINE
  8
0
 10
-111.75
 11
-112.244
 20
0
 21
0.041
  0
LINE
  8
0
 10
-112.244
 11
-112.724
 20
0.041
 21
0.163
  0
LINE
  8
0
 10
-112.724
 11
-113.178
 20
0.163
 21
0.362
  0
LINE
  8
0
 10
-113.178
 11
-113.593
 20
0.362
 21
0.633
  0
LINE
  8
0
 10
-113.593
 11
-113.957
 20
0.633
 21
0.968
  0
LINE
  8
0
 10
-113.957
 11
-114.261
 20
0.968
 21
1.359
  0
LINE
  8
0
 10
-114.261
 11
-114.497
 20
1.359
 21
1.795
  0
LINE
  8
0
 10
-114.497
 11
-114.658
 20
1.795
 21
2.264
  0
LINE
  8
0
 10
-114.658
 11
-114.74
 20
2.264
 21
2.752
  0
LINE
  8
0
 10
-114.74
 11
-114.75
 20
2.752
 21
213
  0
LINE
  8
0
 10
-112.5
 11
-112.405
 20
3.5
 21
3.978
  0
LINE
  8
0
 10
-112.405
 11
-112.134
 20
3.978
 21
4.384
  0
LINE
  8
0
 10
-112.134
 11
-111.728
 20
4.384
 21
4.655
  0
LINE
  8
0
 10
-111.728
 11
-111.25
 20
4.655
 21
4.75
  0
LINE
  8
0
 10
-111.25
 11
-110.772
 20
4.75
 21
4.655
  0
LINE
  8
0
 10
-110.772
 11
-110.366
 20
4.655
 21
4.384
  0
LINE
  8
0
 10
-110.366
 11
-110.095
 20
4.384
 21
3.978
  0
LINE
  8
0
 10
-110.095
 11
-110
 20
3.978
 21
3.5
  0
LINE
  8
0
 10
-110
 11
-110.095
 20
3.5
 21
3.022
  0
LINE
  8
0
 10
-110.095
 11
-110.366
 20
3.022
 21
2.616
  0
LINE
  8
0
 10
-110.366
 11
-110.772
 20
2.616
 21
2.345
  0
LINE
  8
0
 10
-110.772
 11
-111.25
 20
2.345
 21
2.25
  0
LINE
  8
0
 10
-111.25
 11
-111.728
 20
2.25
 21
2.345
  0
LINE
  8
0
 10
-111.728
 11
-112.134
 20
2.345
 21
2.616
  0
LINE
  8
0
 10
-112.134
 11
-112.405
 20
2.616
 21
3.022
  0
LINE
  8
0
 10
-112.405
 11
-112.5
 20
3.022
 21
3.5
  0
LINE
  8
0
 10
-112.5
 11
-112.405
 20
212.5
 21
212.978
  0
LINE
  8
0
 10
-112.405
 11
-112.134
 20
212.978
 21
213.384
  0
LINE
  8
0
 10
-112.134
 11
-111.728
 20
213.384
 21
213.655
  0
LINE
  8
0
 10
-111.728
 11
-111.25
 20
213.655
 21
213.75
  0
LINE
  8
0
 10
-111.25
 11
-110.772
 20
213.75
 21
213.655
  0
LINE
  8
0
 10
-110.772
 11
-110.366
 20
213.655
 21
213.384
  0
LINE
  8
0
 10
-110.366
 11
-110.095
 20
213.384
 21
212.978
  0
LINE
  8
0
 10
-110.095
 11
-110
 20
212.978
 21
212.5
  0
LINE
  8
0
 10
-110
 11
-110.095
 20
212.5
 21
212.022
  0
LINE
  8
0
 10
-110.095
 11
-110.366
 20
212.022
 21
211.616
  0
LINE
  8
0
 10
-110.366
 11
-110.772
 20
211.616
 21
211.345
  0
LINE
  8
0
 10
-110.772
 11
-111.25
 20
211.345
 21
211.25
  0
LINE
  8
0
 10
-111.25
 11
-111.728
 20
211.25
 21
211.345
  0
LINE
  8
0
 10
-111.728
 11
-112.134
 20
211.345
 21
211.616
  0
LINE
  8
0
 10
-112.134
 11
-112.405
 20
211.616
 21
212.022
  0
LINE
  8
0
 10
-112.405
 11
-112.5
 20
212.022
 21
212.5
  0
LINE
  8
0
 10
-110.1
 11
-110.027
 20
19
 21
19.486
  0
LINE
  8
0
 10
-110.027
 11
-109.813
 20
19.486
 21
19.929
  0
LINE
  8
0
 10
-109.813
 11
-109.479
 20
19.929
 21
20.29
  0
LINE
  8
0
 10
-109.479
 11
-109.053
 20
20.29
 21
20.536
  0
LINE
  8
0
 10
-109.053
 11
-108.573
 20
20.536
 21
20.645
  0
LINE
  8
0
 10
-108.573
 11
-108.083
 20
20.645
 21
20.609
  0
LINE
  8
0
 10
-108.083
 11
-107.625
 20
20.609
 21
20.429
  0
LINE
  8
0
 10
-107.625
 11
-107.24
 20
20.429
 21
20.122
  0
LINE
  8
0
 10
-107.24
 11
-106.963
 20
20.122
 21
19.716
  0
LINE
  8
0
 10
-106.963
 11
-106.818
 20
19.716
 21
19.246
  0
LINE
  8
0
 10
-106.818
 11
-106.818
 20
19.246
 21
18.754
  0
LINE
  8
0
 10
-106.818
 11
-106.963
 20
18.754
 21
18.284
  0
LINE
  8
0
 10
-106.963
 11
-107.24
 20
18.284
 21
17.878
  0
LINE
  8
0
 10
-107.24
 11
-107.625
 20
17.878
 21
17.571
  0
LINE
  8
0
 10
-107.625
 11
-108.083
 20
17.571
 21
17.391
  0
LINE
  8
0
 10
-108.083
 11
-108.573
 20
17.391
 21
17.355
  0
LINE
  8
0
 10
-108.573
 11
-109.053
 20
17.355
 21
17.464
  0
LINE
  8
0
 10
-109.053
 11
-109.479
 20
17.464
 21
17.71
  0
LINE
  8
0
 10
-109.479
 11
-109.813
 20
17.71
 21
18.071
  0
LINE
  8
0
 10
-109.813
 11
-110.027
 20
18.071
 21
18.514
  0
LINE
  8
0
 10
-110.027
 11
-110.1
 20
18.514
 21
19
  0
LINE
  8
0
 10
-110.1
 11
-110.027
 20
171
 21
171.486
  0
LINE
  8
0
 10
-110.027
 11
-109.813
 20
171.486
 21
171.929
  0
LINE
  8
0
 10
-109.813
 11
-109.479
 20
171.929
 21
172.29
  0
LINE
  8
0
 10
-109.479
 11
-109.053
 20
172.29
 21
172.536
  0
LINE
  8
0
 10
-109.053
 11
-108.573
 20
172.536
 21
172.645
  0
LINE
  8
0
 10
-108.573
 11
-108.083
 20
172.645
 21
172.609
  0
LINE
  8
0
 10
-108.083
 11
-107.625
 20
172.609
 21
172.429
  0
LINE
  8
0
 10
-107.625
 11
-107.24
 20
172.429
 21
172.122
  0
LINE
  8
0
 10
-107.24
 11
-106.963
 20
172.122
 21
171.716
  0
LINE
  8
0
 10
-106.963
 11
-106.818
 20
171.716
 21
171.246
  0
LINE
  8
0
 10
-106.818
 11
-106.818
 20
171.246
 21
170.754
  0
LINE
  8
0
 10
-106.818
 11
-106.963
 20
170.754
 21
170.284
  0
LINE
  8
0
 10
-106.963
 11
-107.24
 20
170.284
 21
169.878
  0
LINE
  8
0
 10
-107.24
 11
-107.625
 20
169.878
 21
169.571
  0
LINE
  8
0
 10
-107.625
 11
-108.083
 20
169.571
 21
169.391
  0
LINE
  8
0
 10
-108.083
 11
-108.573
 20
169.391
 21
169.355
  0
LINE
  8
0
 10
-108.573
 11
-109.053
 20
169.355
 21
169.464
  0
LINE
  8
0
 10
-109.053
 11
-109.479
 20
169.464
 21
169.71
  0
LINE
  8
0
 10
-109.479
 11
-109.813
 20
169.71
 21
170.071
  0
LINE
  8
0
 10
-109.813
 11
-110.027
 20
170.071
 21
170.514
  0
LINE
  8
0
 10
-110.027
 11
-110.1
 20
170.514
 21
171
  0
LINE
  8
0
 10
-76.7
 11
-76.627
 20
45
 21
45.486
  0
LINE
  8
0
 10
-76.627
 11
-76.413
 20
45.486
 21
45.929
  0
LINE
  8
0
 10
-76.413
 11
-76.079
 20
45.929
 21
46.29
  0
LINE
  8
0
 10
-76.079
 11
-75.653
 20
46.29
 21
46.536
  0
LINE
  8
0
 10
-75.653
 11
-75.173
 20
46.536
 21
46.645
  0
LINE
  8
0
 10
-75.173
 11
-74.683
 20
46.645
 21
46.609
  0
LINE
  8
0
 10
-74.683
 11
-74.225
 20
46.609
 21
46.429
  0
LINE
  8
0
 10
-74.225
 11
-73.84
 20
46.429
 21
46.122
  0
LINE
  8
0
 10
-73.84
 11
-73.563
 20
46.122
 21
45.716
  0
LINE
  8
0
 10
-73.563
 11
-73.418
 20
45.716
 21
45.246
  0
LINE
  8
0
 10
-73.418
 11
-73.418
 20
45.246
 21
44.754
  0
LINE
  8
0
 10
-73.418
 11
-73.563
 20
44.754
 21
44.284
  0
LINE
  8
0
 10
-73.563
 11
-73.84
 20
44.284
 21
43.878
  0
LINE
  8
0
 10
-73.84
 11
-74.225
 20
43.878
 21
43.571
  0
LINE
  8
0
 10
-74.225
 11
-74.683
 20
43.571
 21
43.391
  0
LINE
  8
0
 10
-74.683
 11
-75.173
 20
43.391
 21
43.355
  0
LINE
  8
0
 10
-75.173
 11
-75.653
 20
43.355
 21
43.464
  0
LINE
  8
0
 10
-75.653
 11
-76.079
 20
43.464
 21
43.71
  0
LINE
  8
0
 10
-76.079
 11
-76.413
 20
43.71
 21
44.071
  0
LINE
  8
0
 10
-76.413
 11
-76.627
 20
44.071
 21
44.514
  0
LINE
  8
0
 10
-76.627
 11
-76.7
 20
44.514
 21
45
  0
LINE
  8
0
 10
-76.7
 11
-76.627
 20
197
 21
197.486
  0
LINE
  8
0
 10
-76.627
 11
-76.413
 20
197.486
 21
197.929
  0
LINE
  8
0
 10
-76.413
 11
-76.079
 20
197.929
 21
198.29
  0
LINE
  8
0
 10
-76.079
 11
-75.653
 20
198.29
 21
198.536
  0
LINE
  8
0
 10
-75.653
 11
-75.173
 20
198.536
 21
198.645
  0
LINE
  8
0
 10
-75.173
 11
-74.683
 20
198.645
 21
198.609
  0
LINE
  8
0
 10
-74.683
 11
-74.225
 20
198.609
 21
198.429
  0
LINE
  8
0
 10
-74.225
 11
-73.84
 20
198.429
 21
198.122
  0
LINE
  8
0
 10
-73.84
 11
-73.563
 20
198.122
 21
197.716
  0
LINE
  8
0
 10
-73.563
 11
-73.418
 20
197.716
 21
197.246
  0
LINE
  8
0
 10
-73.418
 11
-73.418
 20
197.246
 21
196.754
  0
LINE
  8
0
 10
-73.418
 11
-73.563
 20
196.754
 21
196.284
  0
LINE
  8
0
 10
-73.563
 11
-73.84
 20
196.284
 21
195.878
  0
LINE
  8
0
 10
-73.84
 11
-74.225
 20
195.878
 21
195.571
  0
LINE
  8
0
 10
-74.225
 11
-74.683
 20
195.571
 21
195.391
  0
LINE
  8
0
 10
-74.683
 11
-75.173
 20
195.391
 21
195.355
  0
LINE
  8
0
 10
-75.173
 11
-75.653
 20
195.355
 21
195.464
  0
LINE
  8
0
 10
-75.653
 11
-76.079
 20
195.464
 21
195.71
  0
LINE
  8
0
 10
-76.079
 11
-76.413
 20
195.71
 21
196.071
  0
LINE
  8
0
 10
-76.413
 11
-76.627
 20
196.071
 21
196.514
  0
LINE
  8
0
 10
-76.627
 11
-76.7
 20
196.514
 21
197
  0
LINE
  8
0
 10
-39.91
 11
-39.837
 20
54.825
 21
55.312
  0
LINE
  8
0
 10
-39.837
 11
-39.623
 20
55.312
 21
55.755
  0
LINE
  8
0
 10
-39.623
 11
-39.289
 20
55.755
 21
56.115
  0
LINE
  8
0
 10
-39.289
 11
-38.863
 20
56.115
 21
56.361
  0
LINE
  8
0
 10
-38.863
 11
-38.383
 20
56.361
 21
56.471
  0
LINE
  8
0
 10
-38.383
 11
-37.893
 20
56.471
 21
56.434
  0
LINE
  8
0
 10
-37.893
 11
-37.435
 20
56.434
 21
56.254
  0
LINE
  8
0
 10
-37.435
 11
-37.05
 20
56.254
 21
55.948
  0
LINE
  8
0
 10
-37.05
 11
-36.773
 20
55.948
 21
55.541
  0
LINE
  8
0
 10
-36.773
 11
-36.628
 20
55.541
 21
55.071
  0
LINE
  8
0
 10
-36.628
 11
-36.628
 20
55.071
 21
54.579
  0
LINE
  8
0
 10
-36.628
 11
-36.773
 20
54.579
 21
54.11
  0
LINE
  8
0
 10
-36.773
 11
-37.05
 20
54.11
 21
53.703
  0
LINE
  8
0
 10
-37.05
 11
-37.435
 20
53.703
 21
53.396
  0
LINE
  8
0
 10
-37.435
 11
-37.893
 20
53.396
 21
53.217
  0
LINE
  8
0
 10
-37.893
 11
-38.383
 20
53.217
 21
53.18
  0
LINE
  8
0
 10
-38.383
 11
-38.863
 20
53.18
 21
53.289
  0
LINE
  8
0
 10
-38.863
 11
-39.289
 20
53.289
 21
53.535
  0
LINE
  8
0
 10
-39.289
 11
-39.623
 20
53.535
 21
53.896
  0
LINE
  8
0
 10
-39.623
 11
-39.837
 20
53.896
 21
54.339
  0
LINE
  8
0
 10
-39.837
 11
-39.91
 20
54.339
 21
54.825
  0
LINE
  8
0
 10
-39.91
 11
-39.837
 20
69.475
 21
69.961
  0
LINE
  8
0
 10
-39.837
 11
-39.623
 20
69.961
 21
70.404
  0
LINE
  8
0
 10
-39.623
 11
-39.289
 20
70.404
 21
70.765
  0
LINE
  8
0
 10
-39.289
 11
-38.863
 20
70.765
 21
71.011
  0
LINE
  8
0
 10
-38.863
 11
-38.383
 20
71.011
 21
71.12
  0
LINE
  8
0
 10
-38.383
 11
-37.893
 20
71.12
 21
71.083
  0
LINE
  8
0
 10
-37.893
 11
-37.435
 20
71.083
 21
70.904
  0
LINE
  8
0
 10
-37.435
 11
-37.05
 20
70.904
 21
70.597
  0
LINE
  8
0
 10
-37.05
 11
-36.773
 20
70.597
 21
70.19
  0
LINE
  8
0
 10
-36.773
 11
-36.628
 20
70.19
 21
69.721
  0
LINE
  8
0
 10
-36.628
 11
-36.628
 20
69.721
 21
69.229
  0
LINE
  8
0
 10
-36.628
 11
-36.773
 20
69.229
 21
68.759
  0
LINE
  8
0
 10
-36.773
 11
-37.05
 20
68.759
 21
68.352
  0
LINE
  8
0
 10
-37.05
 11
-37.435
 20
68.352
 21
68.046
  0
LINE
  8
0
 10
-37.435
 11
-37.893
 20
68.046
 21
67.866
  0
LINE
  8
0
 10
-37.893
 11
-38.383
 20
67.866
 21
67.829
  0
LINE
  8
0
 10
-38.383
 11
-38.863
 20
67.829
 21
67.939
  0
LINE
  8
0
 10
-38.863
 11
-39.289
 20
67.939
 21
68.185
  0
LINE
  8
0
 10
-39.289
 11
-39.623
 20
68.185
 21
68.545
  0
LINE
  8
0
 10
-39.623
 11
-39.837
 20
68.545
 21
68.988
  0
LINE
  8
0
 10
-39.837
 11
-39.91
 20
68.988
 21
69.475
  0
LINE
  8
0
 10
-39.892
 11
-39.892
 20
153.429
 21
153.921
  0
LINE
  8
0
 10
-39.892
 11
-39.747
 20
153.921
 21
154.391
  0
LINE
  8
0
 10
-39.747
 11
-39.47
 20
154.391
 21
154.798
  0
LINE
  8
0
 10
-39.47
 11
-39.085
 20
154.798
 21
155.104
  0
LINE
  8
0
 10
-39.085
 11
-38.627
 20
155.104
 21
155.284
  0
LINE
  8
0
 10
-38.627
 11
-38.137
 20
155.284
 21
155.321
  0
LINE
  8
0
 10
-38.137
 11
-37.657
 20
155.321
 21
155.211
  0
LINE
  8
0
 10
-37.657
 11
-37.231
 20
155.211
 21
154.965
  0
LINE
  8
0
 10
-37.231
 11
-36.897
 20
154.965
 21
154.605
  0
LINE
  8
0
 10
-36.897
 11
-36.683
 20
154.605
 21
154.162
  0
LINE
  8
0
 10
-36.683
 11
-36.61
 20
154.162
 21
153.675
  0
LINE
  8
0
 10
-36.61
 11
-36.683
 20
153.675
 21
153.189
  0
LINE
  8
0
 10
-36.683
 11
-36.897
 20
153.189
 21
152.746
  0
LINE
  8
0
 10
-36.897
 11
-37.231
 20
152.746
 21
152.385
  0
LINE
  8
0
 10
-37.231
 11
-37.657
 20
152.385
 21
152.139
  0
LINE
  8
0
 10
-37.657
 11
-38.137
 20
152.139
 21
152.03
  0
LINE
  8
0
 10
-38.137
 11
-38.627
 20
152.03
 21
152.067
  0
LINE
  8
0
 10
-38.627
 11
-39.085
 20
152.067
 21
152.246
  0
LINE
  8
0
 10
-39.085
 11
-39.47
 20
152.246
 21
152.553
  0
LINE
  8
0
 10
-39.47
 11
-39.747
 20
152.553
 21
152.96
  0
LINE
  8
0
 10
-39.747
 11
-39.892
 20
152.96
 21
153.429
  0
LINE
  8
0
 10
-39.892
 11
-39.892
 20
168.079
 21
168.571
  0
LINE
  8
0
 10
-39.892
 11
-39.747
 20
168.571
 21
169.04
  0
LINE
  8
0
 10
-39.747
 11
-39.47
 20
169.04
 21
169.447
  0
LINE
  8
0
 10
-39.47
 11
-39.085
 20
169.447
 21
169.754
  0
LINE
  8
0
 10
-39.085
 11
-38.627
 20
169.754
 21
169.933
  0
LINE
  8
0
 10
-38.627
 11
-38.137
 20
169.933
 21
169.97
  0
LINE
  8
0
 10
-38.137
 11
-37.657
 20
169.97
 21
169.861
  0
LINE
  8
0
 10
-37.657
 11
-37.231
 20
169.861
 21
169.615
  0
LINE
  8
0
 10
-37.231
 11
-36.897
 20
169.615
 21
169.254
  0
LINE
  8
0
 10
-36.897
 11
-36.683
 20
169.254
 21
168.811
  0
LINE
  8
0
 10
-36.683
 11
-36.61
 20
168.811
 21
168.325
  0
LINE
  8
0
 10
-36.61
 11
-36.683
 20
168.325
 21
167.838
  0
LINE
  8
0
 10
-36.683
 11
-36.897
 20
167.838
 21
167.395
  0
LINE
  8
0
 10
-36.897
 11
-37.231
 20
167.395
 21
167.035
  0
LINE
  8
0
 10
-37.231
 11
-37.657
 20
167.035
 21
166.789
  0
LINE
  8
0
 10
-37.657
 11
-38.137
 20
166.789
 21
166.679
  0
LINE
  8
0
 10
-38.137
 11
-38.627
 20
166.679
 21
166.716
  0
LINE
  8
0
 10
-38.627
 11
-39.085
 20
166.716
 21
166.896
  0
LINE
  8
0
 10
-39.085
 11
-39.47
 20
166.896
 21
167.202
  0
LINE
  8
0
 10
-39.47
 11
-39.747
 20
167.202
 21
167.609
  0
LINE
  8
0
 10
-39.747
 11
-39.892
 20
167.609
 21
168.079
  0
LINE
  8
0
 10
-29.042
 11
-29.042
 20
205.754
 21
206.246
  0
LINE
  8
0
 10
-29.042
 11
-28.897
 20
206.246
 21
206.716
  0
LINE
  8
0
 10
-28.897
 11
-28.62
 20
206.716
 21
207.122
  0
LINE
  8
0
 10
-28.62
 11
-28.235
 20
207.122
 21
207.429
  0
LINE
  8
0
 10
-28.235
 11
-27.777
 20
207.429
 21
207.609
  0
LINE
  8
0
 10
-27.777
 11
-27.287
 20
207.609
 21
207.645
  0
LINE
  8
0
 10
-27.287
 11
-26.807
 20
207.645
 21
207.536
  0
LINE
  8
0
 10
-26.807
 11
-26.381
 20
207.536
 21
207.29
  0
LINE
  8
0
 10
-26.381
 11
-26.047
 20
207.29
 21
206.929
  0
LINE
  8
0
 10
-26.047
 11
-25.833
 20
206.929
 21
206.486
  0
LINE
  8
0
 10
-25.833
 11
-25.76
 20
206.486
 21
206
  0
LINE
  8
0
 10
-25.76
 11
-25.833
 20
206
 21
205.514
  0
LINE
  8
0
 10
-25.833
 11
-26.047
 20
205.514
 21
205.071
  0
LINE
  8
0
 10
-26.047
 11
-26.381
 20
205.071
 21
204.71
  0
LINE
  8
0
 10
-26.381
 11
-26.807
 20
204.71
 21
204.464
  0
LINE
  8
0
 10
-26.807
 11
-27.287
 20
204.464
 21
204.355
  0
LINE
  8
0
 10
-27.287
 11
-27.777
 20
204.355
 21
204.391
  0
LINE
  8
0
 10
-27.777
 11
-28.235
 20
204.391
 21
204.571
  0
LINE
  8
0
 10
-28.235
 11
-28.62
 20
204.571
 21
204.878
  0
LINE
  8
0
 10
-28.62
 11
-28.897
 20
204.878
 21
205.284
  0
LINE
  8
0
 10
-28.897
 11
-29.042
 20
205.284
 21
205.754
  0
LINE
  8
0
 10
12.278
 11
12.278
 20
205.754
 21
206.246
  0
LINE
  8
0
 10
12.278
 11
12.423
 20
206.246
 21
206.716
  0
LINE
  8
0
 10
12.423
 11
12.7
 20
206.716
 21
207.122
  0
LINE
  8
0
 10
12.7
 11
13.085
 20
207.122
 21
207.429
  0
LINE
  8
0
 10
13.085
 11
13.543
 20
207.429
 21
207.609
  0
LINE
  8
0
 10
13.543
 11
14.033
 20
207.609
 21
207.645
  0
LINE
  8
0
 10
14.033
 11
14.513
 20
207.645
 21
207.536
  0
LINE
  8
0
 10
14.513
 11
14.939
 20
207.536
 21
207.29
  0
LINE
  8
0
 10
14.939
 11
15.273
 20
207.29
 21
206.929
  0
LINE
  8
0
 10
15.273
 11
15.487
 20
206.929
 21
206.486
  0
LINE
  8
0
 10
15.487
 11
15.56
 20
206.486
 21
206
  0
LINE
  8
0
 10
15.56
 11
15.487
 20
206
 21
205.514
  0
LINE
  8
0
 10
15.487
 11
15.273
 20
205.514
 21
205.071
  0
LINE
  8
0
 10
15.273
 11
14.939
 20
205.071
 21
204.71
  0
LINE
  8
0
 10
14.939
 11
14.513
 20
204.71
 21
204.464
  0
LINE
  8
0
 10
14.513
 11
14.033
 20
204.464
 21
204.355
  0
LINE
  8
0
 10
14.033
 11
13.543
 20
204.355
 21
204.391
  0
LINE
  8
0
 10
13.543
 11
13.085
 20
204.391
 21
204.571
  0
LINE
  8
0
 10
13.085
 11
12.7
 20
204.571
 21
204.878
  0
LINE
  8
0
 10
12.7
 11
12.423
 20
204.878
 21
205.284
  0
LINE
  8
0
 10
12.423
 11
12.278
 20
205.284
 21
205.754
  0
LINE
  8
0
 10
59.9
 11
59.973
 20
95
 21
95.486
  0
LINE
  8
0
 10
59.973
 11
60.187
 20
95.486
 21
95.929
  0
LINE
  8
0
 10
60.187
 11
60.521
 20
95.929
 21
96.29
  0
LINE
  8
0
 10
60.521
 11
60.947
 20
96.29
 21
96.536
  0
LINE
  8
0
 10
60.947
 11
61.427
 20
96.536
 21
96.645
  0
LINE
  8
0
 10
61.427
 11
61.917
 20
96.645
 21
96.609
  0
LINE
  8
0
 10
61.917
 11
62.375
 20
96.609
 21
96.429
  0
LINE
  8
0
 10
62.375
 11
62.76
 20
96.429
 21
96.122
  0
LINE
  8
0
 10
62.76
 11
63.037
 20
96.122
 21
95.716
  0
LINE
  8
0
 10
63.037
 11
63.182
 20
95.716
 21
95.246
  0
LINE
  8
0
 10
63.182
 11
63.182
 20
95.246
 21
94.754
  0
LINE
  8
0
 10
63.182
 11
63.037
 20
94.754
 21
94.284
  0
LINE
  8
0
 10
63.037
 11
62.76
 20
94.284
 21
93.878
  0
LINE
  8
0
 10
62.76
 11
62.375
 20
93.878
 21
93.571
  0
LINE
  8
0
 10
62.375
 11
61.917
 20
93.571
 21
93.391
  0
LINE
  8
0
 10
61.917
 11
61.427
 20
93.391
 21
93.355
  0
LINE
  8
0
 10
61.427
 11
60.947
 20
93.355
 21
93.464
  0
LINE
  8
0
 10
60.947
 11
60.521
 20
93.464
 21
93.71
  0
LINE
  8
0
 10
60.521
 11
60.187
 20
93.71
 21
94.071
  0
LINE
  8
0
 10
60.187
 11
59.973
 20
94.071
 21
94.514
  0
LINE
  8
0
 10
59.973
 11
59.9
 20
94.514
 21
95
  0
LINE
  8
0
 10
93.3
 11
93.373
 20
121
 21
121.486
  0
LINE
  8
0
 10
93.373
 11
93.587
 20
121.486
 21
121.929
  0
LINE
  8
0
 10
93.587
 11
93.921
 20
121.929
 21
122.29
  0
LINE
  8
0
 10
93.921
 11
94.347
 20
122.29
 21
122.536
  0
LINE
  8
0
 10
94.347
 11
94.827
 20
122.536
 21
122.645
  0
LINE
  8
0
 10
94.827
 11
95.317
 20
122.645
 21
122.609
  0
LINE
  8
0
 10
95.317
 11
95.775
 20
122.609
 21
122.429
  0
LINE
  8
0
 10
95.775
 11
96.16
 20
122.429
 21
122.122
  0
LINE
  8
0
 10
96.16
 11
96.437
 20
122.122
 21
121.716
  0
LINE
  8
0
 10
96.437
 11
96.582
 20
121.716
 21
121.246
  0
LINE
  8
0
 10
96.582
 11
96.582
 20
121.246
 21
120.754
  0
LINE
  8
0
 10
96.582
 11
96.437
 20
120.754
 21
120.284
  0
LINE
  8
0
 10
96.437
 11
96.16
 20
120.284
 21
119.878
  0
LINE
  8
0
 10
96.16
 11
95.775
 20
119.878
 21
119.571
  0
LINE
  8
0
 10
95.775
 11
95.317
 20
119.571
 21
119.391
  0
LINE
  8
0
 10
95.317
 11
94.827
 20
119.391
 21
119.355
  0
LINE
  8
0
 10
94.827
 11
94.347
 20
119.355
 21
119.464
  0
LINE
  8
0
 10
94.347
 11
93.921
 20
119.464
 21
119.71
  0
LINE
  8
0
 10
93.921
 11
93.587
 20
119.71
 21
120.071
  0
LINE
  8
0
 10
93.587
 11
93.373
 20
120.071
 21
120.514
  0
LINE
  8
0
 10
93.373
 11
93.3
 20
120.514
 21
121
  0
LINE
  8
0
 10
96.5
 11
96.595
 20
3.5
 21
3.978
  0
LINE
  8
0
 10
96.595
 11
96.866
 20
3.978
 21
4.384
  0
LINE
  8
0
 10
96.866
 11
97.272
 20
4.384
 21
4.655
  0
LINE
  8
0
 10
97.272
 11
97.75
 20
4.655
 21
4.75
  0
LINE
  8
0
 10
97.75
 11
98.228
 20
4.75
 21
4.655
  0
LINE
  8
0
 10
98.228
 11
98.634
 20
4.655
 21
4.384
  0
LINE
  8
0
 10
98.634
 11
98.905
 20
4.384
 21
3.978
  0
LINE
  8
0
 10
98.905
 11
99
 20
3.978
 21
3.5
  0
LINE
  8
0
 10
99
 11
98.905
 20
3.5
 21
3.022
  0
LINE
  8
0
 10
98.905
 11
98.634
 20
3.022
 21
2.616
  0
LINE
  8
0
 10
98.634
 11
98.228
 20
2.616
 21
2.345
  0
LINE
  8
0
 10
98.228
 11
97.75
 20
2.345
 21
2.25
  0
LINE
  8
0
 10
97.75
 11
97.272
 20
2.25
 21
2.345
  0
LINE
  8
0
 10
97.272
 11
96.866
 20
2.345
 21
2.616
  0
LINE
  8
0
 10
96.866
 11
96.595
 20
2.616
 21
3.022
  0
LINE
  8
0
 10
96.595
 11
96.5
 20
3.022
 21
3.5
  0
LINE
  8
0
 10
96.5
 11
96.595
 20
212.5
 21
212.978
  0
LINE
  8
0
 10
96.595
 11
96.866
 20
212.978
 21
213.384
  0
LINE
  8
0
 10
96.866
 11
97.272
 20
213.384
 21
213.655
  0
LINE
  8
0
 10
97.272
 11
97.75
 20
213.655
 21
213.75
  0
LINE
  8
0
 10
97.75
 11
98.228
 20
213.75
 21
213.655
  0
LINE
  8
0
 10
98.228
 11
98.634
 20
213.655
 21
213.384
  0
LINE
  8
0
 10
98.634
 11
98.905
 20
213.384
 21
212.978
  0
LINE
  8
0
 10
98.905
 11
99
 20
212.978
 21
212.5
  0
LINE
  8
0
 10
99
 11
98.905
 20
212.5
 21
212.022
  0
LINE
  8
0
 10
98.905
 11
98.634
 20
212.022
 21
211.616
  0
LINE
  8
0
 10
98.634
 11
98.228
 20
211.616
 21
211.345
  0
LINE
  8
0
 10
98.228
 11
97.75
 20
211.345
 21
211.25
  0
LINE
  8
0
 10
97.75
 11
97.272
 20
211.25
 21
211.345
  0
LINE
  8
0
 10
97.272
 11
96.866
 20
211.345
 21
211.616
  0
LINE
  8
0
 10
96.866
 11
96.595
 20
211.616
 21
212.022
  0
LINE
  8
0
 10
96.595
 11
96.5
 20
212.022
 21
212.5
  0
LINE
  8
0
 10
119.205
 11
119.326
 20
326.804
 21
327.283
  0
LINE
  8
0
 10
119.326
 11
119.596
 20
327.283
 21
327.696
  0
LINE
  8
0
 10
119.596
 11
119.986
 20
327.696
 21
327.999
  0
LINE
  8
0
 10
119.986
 11
120.453
 20
327.999
 21
328.16
  0
LINE
  8
0
 10
120.453
 11
120.947
 20
328.16
 21
328.16
  0
LINE
  8
0
 10
120.947
 11
121.414
 20
328.16
 21
327.999
  0
LINE
  8
0
 10
121.414
 11
121.804
 20
327.999
 21
327.696
  0
LINE
  8
0
 10
121.804
 11
122.074
 20
327.696
 21
327.283
  0
LINE
  8
0
 10
122.074
 11
122.195
 20
327.283
 21
326.804
  0
LINE
  8
0
 10
122.195
 11
122.154
 20
326.804
 21
326.312
  0
LINE
  8
0
 10
122.154
 11
121.956
 20
326.312
 21
325.86
  0
LINE
  8
0
 10
121.956
 11
121.621
 20
325.86
 21
325.496
  0
LINE
  8
0
 10
121.621
 11
121.187
 20
325.496
 21
325.261
  0
LINE
  8
0
 10
121.187
 11
120.7
 20
325.261
 21
325.18
  0
LINE
  8
0
 10
120.7
 11
120.213
 20
325.18
 21
325.261
  0
LINE
  8
0
 10
120.213
 11
119.779
 20
325.261
 21
325.496
  0
LINE
  8
0
 10
119.779
 11
119.444
 20
325.496
 21
325.86
  0
LINE
  8
0
 10
119.444
 11
119.246
 20
325.86
 21
326.312
  0
LINE
  8
0
 10
119.246
 11
119.205
 20
326.312
 21
326.804
  0
LINE
  8
0
 10
119.205
 11
119.326
 20
332.604
 21
333.083
  0
LINE
  8
0
 10
119.326
 11
119.596
 20
333.083
 21
333.496
  0
LINE
  8
0
 10
119.596
 11
119.986
 20
333.496
 21
333.799
  0
LINE
  8
0
 10
119.986
 11
120.453
 20
333.799
 21
333.96
  0
LINE
  8
0
 10
120.453
 11
120.947
 20
333.96
 21
333.96
  0
LINE
  8
0
 10
120.947
 11
121.414
 20
333.96
 21
333.799
  0
LINE
  8
0
 10
121.414
 11
121.804
 20
333.799
 21
333.496
  0
LINE
  8
0
 10
121.804
 11
122.074
 20
333.496
 21
333.083
  0
LINE
  8
0
 10
122.074
 11
122.195
 20
333.083
 21
332.604
  0
LINE
  8
0
 10
122.195
 11
122.154
 20
332.604
 21
332.112
  0
LINE
  8
0
 10
122.154
 11
121.956
 20
332.112
 21
331.66
  0
LINE
  8
0
 10
121.956
 11
121.621
 20
331.66
 21
331.296
  0
LINE
  8
0
 10
121.621
 11
121.187
 20
331.296
 21
331.061
  0
LINE
  8
0
 10
121.187
 11
120.7
 20
331.061
 21
330.98
  0
LINE
  8
0
 10
120.7
 11
120.213
 20
330.98
 21
331.061
  0
LINE
  8
0
 10
120.213
 11
119.779
 20
331.061
 21
331.296
  0
LINE
  8
0
 10
119.779
 11
119.444
 20
331.296
 21
331.66
  0
LINE
  8
0
 10
119.444
 11
119.246
 20
331.66
 21
332.112
  0
LINE
  8
0
 10
119.246
 11
119.205
 20
332.112
 21
332.604
  0
LINE
  8
0
 10
124.205
 11
124.246
 20
313.956
 21
314.448
  0
LINE
  8
0
 10
124.246
 11
124.444
 20
314.448
 21
314.9
  0
LINE
  8
0
 10
124.444
 11
124.779
 20
314.9
 21
315.264
  0
LINE
  8
0
 10
124.779
 11
125.213
 20
315.264
 21
315.499
  0
LINE
  8
0
 10
125.213
 11
125.7
 20
315.499
 21
315.58
  0
LINE
  8
0
 10
125.7
 11
126.187
 20
315.58
 21
315.499
  0
LINE
  8
0
 10
126.187
 11
126.621
 20
315.499
 21
315.264
  0
LINE
  8
0
 10
126.621
 11
126.956
 20
315.264
 21
314.9
  0
LINE
  8
0
 10
126.956
 11
127.154
 20
314.9
 21
314.448
  0
LINE
  8
0
 10
127.154
 11
127.195
 20
314.448
 21
313.956
  0
LINE
  8
0
 10
127.195
 11
127.074
 20
313.956
 21
313.477
  0
LINE
  8
0
 10
127.074
 11
126.804
 20
313.477
 21
313.064
  0
LINE
  8
0
 10
126.804
 11
126.414
 20
313.064
 21
312.761
  0
LINE
  8
0
 10
126.414
 11
125.947
 20
312.761
 21
312.6
  0
LINE
  8
0
 10
125.947
 11
125.453
 20
312.6
 21
312.6
  0
LINE
  8
0
 10
125.453
 11
124.986
 20
312.6
 21
312.761
  0
LINE
  8
0
 10
124.986
 11
124.596
 20
312.761
 21
313.064
  0
LINE
  8
0
 10
124.596
 11
124.326
 20
313.064
 21
313.477
  0
LINE
  8
0
 10
124.326
 11
124.205
 20
313.477
 21
313.956
  0
LINE
  8
0
 10
124.205
 11
124.246
 20
321.156
 21
321.648
  0
LINE
  8
0
 10
124.246
 11
124.444
 20
321.648
 21
322.1
  0
LINE
  8
0
 10
124.444
 11
124.779
 20
322.1
 21
322.464
  0
LINE
  8
0
 10
124.779
 11
125.213
 20
322.464
 21
322.699
  0
LINE
  8
0
 10
125.213
 11
125.7
 20
322.699
 21
322.78
  0
LINE
  8
0
 10
125.7
 11
126.187
 20
322.78
 21
322.699
  0
LINE
  8
0
 10
126.187
 11
126.621
 20
322.699
 21
322.464
  0
LINE
  8
0
 10
126.621
 11
126.956
 20
322.464
 21
322.1
  0
LINE
  8
0
 10
126.956
 11
127.154
 20
322.1
 21
321.648
  0
LINE
  8
0
 10
127.154
 11
127.195
 20
321.648
 21
321.156
  0
LINE
  8
0
 10
127.195
 11
127.074
 20
321.156
 21
320.677
  0
LINE
  8
0
 10
127.074
 11
126.804
 20
320.677
 21
320.264
  0
LINE
  8
0
 10
126.804
 11
126.414
 20
320.264
 21
319.961
  0
LINE
  8
0
 10
126.414
 11
125.947
 20
319.961
 21
319.8
  0
LINE
  8
0
 10
125.947
 11
125.453
 20
319.8
 21
319.8
  0
LINE
  8
0
 10
125.453
 11
124.986
 20
319.8
 21
319.961
  0
LINE
  8
0
 10
124.986
 11
124.596
 20
319.961
 21
320.264
  0
LINE
  8
0
 10
124.596
 11
124.326
 20
320.264
 21
320.677
  0
LINE
  8
0
 10
124.326
 11
124.205
 20
320.677
 21
321.156
  0
LINE
  8
0
 10
124.5
 11
124.555
 20
378.5
 21
378.99
  0
LINE
  8
0
 10
124.555
 11
124.718
 20
378.99
 21
379.455
  0
LINE
  8
0
 10
124.718
 11
124.98
 20
379.455
 21
379.872
  0
LINE
  8
0
 10
124.98
 11
125.328
 20
379.872
 21
380.22
  0
LINE
  8
0
 10
125.328
 11
125.745
 20
380.22
 21
380.482
  0
LINE
  8
0
 10
125.745
 11
126.21
 20
380.482
 21
380.645
  0
LINE
  8
0
 10
126.21
 11
126.7
 20
380.645
 21
380.7
  0
LINE
  8
0
 10
126.7
 11
127.19
 20
380.7
 21
380.645
  0
LINE
  8
0
 10
127.19
 11
127.655
 20
380.645
 21
380.482
  0
LINE
  8
0
 10
127.655
 11
128.072
 20
380.482
 21
380.22
  0
LINE
  8
0
 10
128.072
 11
128.42
 20
380.22
 21
379.872
  0
LINE
  8
0
 10
128.42
 11
128.682
 20
379.872
 21
379.455
  0
LINE
  8
0
 10
128.682
 11
128.845
 20
379.455
 21
378.99
  0
LINE
  8
0
 10
128.845
 11
128.9
 20
378.99
 21
378.5
  0
LINE
  8
0
 10
128.9
 11
128.845
 20
378.5
 21
378.01
  0
LINE
  8
0
 10
128.845
 11
128.682
 20
378.01
 21
377.545
  0
LINE
  8
0
 10
128.682
 11
128.42
 20
377.545
 21
377.128
  0
LINE
  8
0
 10
128.42
 11
128.072
 20
377.128
 21
376.78
  0
LINE
  8
0
 10
128.072
 11
127.655
 20
376.78
 21
376.518
  0
LINE
  8
0
 10
127.655
 11
127.19
 20
376.518
 21
376.355
  0
LINE
  8
0
 10
127.19
 11
126.7
 20
376.355
 21
376.3
  0
LINE
  8
0
 10
126.7
 11
126.21
 20
376.3
 21
376.355
  0
LINE
  8
0
 10
126.21
 11
125.745
 20
376.355
 21
376.518
  0
LINE
  8
0
 10
125.745
 11
125.328
 20
376.518
 21
376.78
  0
LINE
  8
0
 10
125.328
 11
124.98
 20
376.78
 21
377.128
  0
LINE
  8
0
 10
124.98
 11
124.718
 20
377.128
 21
377.545
  0
LINE
  8
0
 10
124.718
 11
124.555
 20
377.545
 21
378.01
  0
LINE
  8
0
 10
124.555
 11
124.5
 20
378.01
 21
378.5
  0
LINE
  8
0
 10
126.3
 11
126.355
 20
33.71
 21
34.2
  0
LINE
  8
0
 10
126.355
 11
126.518
 20
34.2
 21
34.665
  0
LINE
  8
0
 10
126.518
 11
126.78
 20
34.665
 21
35.082
  0
LINE
  8
0
 10
126.78
 11
127.128
 20
35.082
 21
35.43
  0
LINE
  8
0
 10
127.128
 11
127.545
 20
35.43
 21
35.692
  0
LINE
  8
0
 10
127.545
 11
128.01
 20
35.692
 21
35.855
  0
LINE
  8
0
 10
128.01
 11
128.5
 20
35.855
 21
35.91
  0
LINE
  8
0
 10
128.5
 11
128.99
 20
35.91
 21
35.855
  0
LINE
  8
0
 10
128.99
 11
129.455
 20
35.855
 21
35.692
  0
LINE
  8
0
 10
129.455
 11
129.872
 20
35.692
 21
35.43
  0
LINE
  8
0
 10
129.872
 11
130.22
 20
35.43
 21
35.082
  0
LINE
  8
0
 10
130.22
 11
130.482
 20
35.082
 21
34.665
  0
LINE
  8
0
 10
130.482
 11
130.645
 20
34.665
 21
34.2
  0
LINE
  8
0
 10
130.645
 11
130.7
 20
34.2
 21
33.71
  0
LINE
  8
0
 10
130.7
 11
130.645
 20
33.71
 21
33.22
  0
LINE
  8
0
 10
130.645
 11
130.482
 20
33.22
 21
32.755
  0
LINE
  8
0
 10
130.482
 11
130.22
 20
32.755
 21
32.338
  0
LINE
  8
0
 10
130.22
 11
129.872
 20
32.338
 21
31.99
  0
LINE
  8
0
 10
129.872
 11
129.455
 20
31.99
 21
31.728
  0
LINE
  8
0
 10
129.455
 11
128.99
 20
31.728
 21
31.565
  0
LINE
  8
0
 10
128.99
 11
128.5
 20
31.565
 21
31.51
  0
LINE
  8
0
 10
128.5
 11
128.01
 20
31.51
 21
31.565
  0
LINE
  8
0
 10
128.01
 11
127.545
 20
31.565
 21
31.728
  0
LINE
  8
0
 10
127.545
 11
127.128
 20
31.728
 21
31.99
  0
LINE
  8
0
 10
127.128
 11
126.78
 20
31.99
 21
32.338
  0
LINE
  8
0
 10
126.78
 11
126.518
 20
32.338
 21
32.755
  0
LINE
  8
0
 10
126.518
 11
126.355
 20
32.755
 21
33.22
  0
LINE
  8
0
 10
126.355
 11
126.3
 20
33.22
 21
33.71
  0
LINE
  8
0
 10
126.3
 11
126.355
 20
352.29
 21
352.78
  0
LINE
  8
0
 10
126.355
 11
126.518
 20
352.78
 21
353.245
  0
LINE
  8
0
 10
126.518
 11
126.78
 20
353.245
 21
353.662
  0
LINE
  8
0
 10
126.78
 11
127.128
 20
353.662
 21
354.01
  0
LINE
  8
0
 10
127.128
 11
127.545
 20
354.01
 21
354.272
  0
LINE
  8
0
 10
127.545
 11
128.01
 20
354.272
 21
354.435
  0
LINE
  8
0
 10
128.01
 11
128.5
 20
354.435
 21
354.49
  0
LINE
  8
0
 10
128.5
 11
128.99
 20
354.49
 21
354.435
  0
LINE
  8
0
 10
128.99
 11
129.455
 20
354.435
 21
354.272
  0
LINE
  8
0
 10
129.455
 11
129.872
 20
354.272
 21
354.01
  0
LINE
  8
0
 10
129.872
 11
130.22
 20
354.01
 21
353.662
  0
LINE
  8
0
 10
130.22
 11
130.482
 20
353.662
 21
353.245
  0
LINE
  8
0
 10
130.482
 11
130.645
 20
353.245
 21
352.78
  0
LINE
  8
0
 10
130.645
 11
130.7
 20
352.78
 21
352.29
  0
LINE
  8
0
 10
130.7
 11
130.645
 20
352.29
 21
351.8
  0
LINE
  8
0
 10
130.645
 11
130.482
 20
351.8
 21
351.335
  0
LINE
  8
0
 10
130.482
 11
130.22
 20
351.335
 21
350.918
  0
LINE
  8
0
 10
130.22
 11
129.872
 20
350.918
 21
350.57
  0
LINE
  8
0
 10
129.872
 11
129.455
 20
350.57
 21
350.308
  0
LINE
  8
0
 10
129.455
 11
128.99
 20
350.308
 21
350.145
  0
LINE
  8
0
 10
128.99
 11
128.5
 20
350.145
 21
350.09
  0
LINE
  8
0
 10
128.5
 11
128.01
 20
350.09
 21
350.145
  0
LINE
  8
0
 10
128.01
 11
127.545
 20
350.145
 21
350.308
  0
LINE
  8
0
 10
127.545
 11
127.128
 20
350.308
 21
350.57
  0
LINE
  8
0
 10
127.128
 11
126.78
 20
350.57
 21
350.918
  0
LINE
  8
0
 10
126.78
 11
126.518
 20
350.918
 21
351.335
  0
LINE
  8
0
 10
126.518
 11
126.355
 20
351.335
 21
351.8
  0
LINE
  8
0
 10
126.355
 11
126.3
 20
351.8
 21
352.29
  0
LINE
  8
0
 10
144
 11
144
 20
56.5
 21
65.5
  0
LINE
  8
0
 10
144
 11
144.055
 20
65.5
 21
65.99
  0
LINE
  8
0
 10
144.055
 11
144.218
 20
65.99
 21
66.455
  0
LINE
  8
0
 10
144.218
 11
144.48
 20
66.455
 21
66.872
  0
LINE
  8
0
 10
144.48
 11
144.828
 20
66.872
 21
67.22
  0
LINE
  8
0
 10
144.828
 11
145.245
 20
67.22
 21
67.482
  0
LINE
  8
0
 10
145.245
 11
145.71
 20
67.482
 21
67.645
  0
LINE
  8
0
 10
145.71
 11
146.2
 20
67.645
 21
67.7
  0
LINE
  8
0
 10
146.2
 11
146.69
 20
67.7
 21
67.645
  0
LINE
  8
0
 10
146.69
 11
147.155
 20
67.645
 21
67.482
  0
LINE
  8
0
 10
147.155
 11
147.572
 20
67.482
 21
67.22
  0
LINE
  8
0
 10
147.572
 11
147.92
 20
67.22
 21
66.872
  0
LINE
  8
0
 10
147.92
 11
148.182
 20
66.872
 21
66.455
  0
LINE
  8
0
 10
148.182
 11
148.345
 20
66.455
 21
65.99
  0
LINE
  8
0
 10
148.345
 11
148.4
 20
65.99
 21
65.5
  0
LINE
  8
0
 10
148.4
 11
148.4
 20
65.5
 21
56.5
  0
LINE
  8
0
 10
148.4
 11
148.345
 20
56.5
 21
56.01
  0
LINE
  8
0
 10
148.345
 11
148.182
 20
56.01
 21
55.545
  0
LINE
  8
0
 10
148.182
 11
147.92
 20
55.545
 21
55.128
  0
LINE
  8
0
 10
147.92
 11
147.572
 20
55.128
 21
54.78
  0
LINE
  8
0
 10
147.572
 11
147.155
 20
54.78
 21
54.518
  0
LINE
  8
0
 10
147.155
 11
146.69
 20
54.518
 21
54.355
  0
LINE
  8
0
 10
146.69
 11
146.2
 20
54.355
 21
54.3
  0
LINE
  8
0
 10
146.2
 11
145.71
 20
54.3
 21
54.355
  0
LINE
  8
0
 10
145.71
 11
145.245
 20
54.355
 21
54.518
  0
LINE
  8
0
 10
145.245
 11
144.828
 20
54.518
 21
54.78
  0
LINE
  8
0
 10
144.828
 11
144.48
 20
54.78
 21
55.128
  0
LINE
  8
0
 10
144.48
 11
144.218
 20
55.128
 21
55.545
  0
LINE
  8
0
 10
144.218
 11
144.055
 20
55.545
 21
56.01
  0
LINE
  8
0
 10
144.055
 11
144
 20
56.01
 21
56.5
  0
LINE
  8
0
 10
147.2
 11
147.255
 20
7.2
 21
7.69
  0
LINE
  8
0
 10
147.255
 11
147.418
 20
7.69
 21
8.155
  0
LINE
  8
0
 10
147.418
 11
147.68
 20
8.155
 21
8.572
  0
LINE
  8
0
 10
147.68
 11
148.028
 20
8.572
 21
8.92
  0
LINE
  8
0
 10
148.028
 11
148.445
 20
8.92
 21
9.182
  0
LINE
  8
0
 10
148.445
 11
148.91
 20
9.182
 21
9.345
  0
LINE
  8
0
 10
148.91
 11
149.4
 20
9.345
 21
9.4
  0
LINE
  8
0
 10
149.4
 11
149.89
 20
9.4
 21
9.345
  0
LINE
  8
0
 10
149.89
 11
150.355
 20
9.345
 21
9.182
  0
LINE
  8
0
 10
150.355
 11
150.772
 20
9.182
 21
8.92
  0
LINE
  8
0
 10
150.772
 11
151.12
 20
8.92
 21
8.572
  0
LINE
  8
0
 10
151.12
 11
151.382
 20
8.572
 21
8.155
  0
LINE
  8
0
 10
151.382
 11
151.545
 20
8.155
 21
7.69
  0
LINE
  8
0
 10
151.545
 11
151.6
 20
7.69
 21
7.2
  0
LINE
  8
0
 10
151.6
 11
151.545
 20
7.2
 21
6.71
  0
LINE
  8
0
 10
151.545
 11
151.382
 20
6.71
 21
6.245
  0
LINE
  8
0
 10
151.382
 11
151.12
 20
6.245
 21
5.828
  0
LINE
  8
0
 10
151.12
 11
150.772
 20
5.828
 21
5.48
  0
LINE
  8
0
 10
150.772
 11
150.355
 20
5.48
 21
5.218
  0
LINE
  8
0
 10
150.355
 11
149.89
 20
5.218
 21
5.055
  0
LINE
  8
0
 10
149.89
 11
149.4
 20
5.055
 21
5
  0
LINE
  8
0
 10
149.4
 11
148.91
 20
5
 21
5.055
  0
LINE
  8
0
 10
148.91
 11
148.445
 20
5.055
 21
5.218
  0
LINE
  8
0
 10
148.445
 11
148.028
 20
5.218
 21
5.48
  0
LINE
  8
0
 10
148.028
 11
147.68
 20
5.48
 21
5.828
  0
LINE
  8
0
 10
147.68
 11
147.418
 20
5.828
 21
6.245
  0
LINE
  8
0
 10
147.418
 11
147.255
 20
6.245
 21
6.71
  0
LINE
  8
0
 10
147.255
 11
147.2
 20
6.71
 21
7.2
  0
LINE
  8
0
 10
158.6
 11
158.655
 20
378.5
 21
378.99
  0
LINE
  8
0
 10
158.655
 11
158.818
 20
378.99
 21
379.455
  0
LINE
  8
0
 10
158.818
 11
159.08
 20
379.455
 21
379.872
  0
LINE
  8
0
 10
159.08
 11
159.428
 20
379.872
 21
380.22
  0
LINE
  8
0
 10
159.428
 11
159.845
 20
380.22
 21
380.482
  0
LINE
  8
0
 10
159.845
 11
160.31
 20
380.482
 21
380.645
  0
LINE
  8
0
 10
160.31
 11
160.8
 20
380.645
 21
380.7
  0
LINE
  8
0
 10
160.8
 11
161.29
 20
380.7
 21
380.645
  0
LINE
  8
0
 10
161.29
 11
161.755
 20
380.645
 21
380.482
  0
LINE
  8
0
 10
161.755
 11
162.172
 20
380.482
 21
380.22
  0
LINE
  8
0
 10
162.172
 11
162.52
 20
380.22
 21
379.872
  0
LINE
  8
0
 10
162.52
 11
162.782
 20
379.872
 21
379.455
  0
LINE
  8
0
 10
162.782
 11
162.945
 20
379.455
 21
378.99
  0
LINE
  8
0
 10
162.945
 11
163
 20
378.99
 21
378.5
  0
LINE
  8
0
 10
163
 11
162.945
 20
378.5
 21
378.01
  0
LINE
  8
0
 10
162.945
 11
162.782
 20
378.01
 21
377.545
  0
LINE
  8
0
 10
162.782
 11
162.52
 20
377.545
 21
377.128
  0
LINE
  8
0
 10
162.52
 11
162.172
 20
377.128
 21
376.78
  0
LINE
  8
0
 10
162.172
 11
161.755
 20
376.78
 21
376.518
  0
LINE
  8
0
 10
161.755
 11
161.29
 20
376.518
 21
376.355
  0
LINE
  8
0
 10
161.29
 11
160.8
 20
376.355
 21
376.3
  0
LINE
  8
0
 10
160.8
 11
160.31
 20
376.3
 21
376.355
  0
LINE
  8
0
 10
160.31
 11
159.845
 20
376.355
 21
376.518
  0
LINE
  8
0
 10
159.845
 11
159.428
 20
376.518
 21
376.78
  0
LINE
  8
0
 10
159.428
 11
159.08
 20
376.78
 21
377.128
  0
LINE
  8
0
 10
159.08
 11
158.818
 20
377.128
 21
377.545
  0
LINE
  8
0
 10
158.818
 11
158.655
 20
377.545
 21
378.01
  0
LINE
  8
0
 10
158.655
 11
158.6
 20
378.01
 21
378.5
  0
LINE
  8
0
 10
158.75
 11
158.798
 20
17.9
 21
18.388
  0
LINE
  8
0
 10
158.798
 11
158.94
 20
18.388
 21
18.857
  0
LINE
  8
0
 10
158.94
 11
159.171
 20
18.857
 21
19.289
  0
LINE
  8
0
 10
159.171
 11
159.482
 20
19.289
 21
19.668
  0
LINE
  8
0
 10
159.482
 11
159.861
 20
19.668
 21
19.979
  0
LINE
  8
0
 10
159.861
 11
160.293
 20
19.979
 21
20.21
  0
LINE
  8
0
 10
160.293
 11
160.762
 20
20.21
 21
20.352
  0
LINE
  8
0
 10
160.762
 11
161.25
 20
20.352
 21
20.4
  0
LINE
  8
0
 10
161.25
 11
161.738
 20
20.4
 21
20.352
  0
LINE
  8
0
 10
161.738
 11
162.207
 20
20.352
 21
20.21
  0
LINE
  8
0
 10
162.207
 11
162.639
 20
20.21
 21
19.979
  0
LINE
  8
0
 10
162.639
 11
163.018
 20
19.979
 21
19.668
  0
LINE
  8
0
 10
163.018
 11
163.329
 20
19.668
 21
19.289
  0
LINE
  8
0
 10
163.329
 11
163.56
 20
19.289
 21
18.857
  0
LINE
  8
0
 10
163.56
 11
163.702
 20
18.857
 21
18.388
  0
LINE
  8
0
 10
163.702
 11
163.75
 20
18.388
 21
17.9
  0
LINE
  8
0
 10
163.75
 11
163.702
 20
17.9
 21
17.412
  0
LINE
  8
0
 10
163.702
 11
163.56
 20
17.412
 21
16.943
  0
LINE
  8
0
 10
163.56
 11
163.329
 20
16.943
 21
16.511
  0
LINE
  8
0
 10
163.329
 11
163.018
 20
16.511
 21
16.132
  0
LINE
  8
0
 10
163.018
 11
162.639
 20
16.132
 21
15.821
  0
LINE
  8
0
 10
162.639
 11
162.207
 20
15.821
 21
15.59
  0
LINE
  8
0
 10
162.207
 11
161.738
 20
15.59
 21
15.448
  0
LINE
  8
0
 10
161.738
 11
161.25
 20
15.448
 21
15.4
  0
LINE
  8
0
 10
161.25
 11
160.762
 20
15.4
 21
15.448
  0
LINE
  8
0
 10
160.762
 11
160.293
 20
15.448
 21
15.59
  0
LINE
  8
0
 10
160.293
 11
159.861
 20
15.59
 21
15.821
  0
LINE
  8
0
 10
159.861
 11
159.482
 20
15.821
 21
16.132
  0
LINE
  8
0
 10
159.482
 11
159.171
 20
16.132
 21
16.511
  0
LINE
  8
0
 10
159.171
 11
158.94
 20
16.511
 21
16.943
  0
LINE
  8
0
 10
158.94
 11
158.798
 20
16.943
 21
17.412
  0
LINE
  8
0
 10
158.798
 11
158.75
 20
17.412
 21
17.9
  0
LINE
  8
0
 10
168.42
 11
168.475
 20
7.2
 21
7.69
  0
LINE
  8
0
 10
168.475
 11
168.638
 20
7.69
 21
8.155
  0
LINE
  8
0
 10
168.638
 11
168.9
 20
8.155
 21
8.572
  0
LINE
  8
0
 10
168.9
 11
169.248
 20
8.572
 21
8.92
  0
LINE
  8
0
 10
169.248
 11
169.665
 20
8.92
 21
9.182
  0
LINE
  8
0
 10
169.665
 11
170.13
 20
9.182
 21
9.345
  0
LINE
  8
0
 10
170.13
 11
170.62
 20
9.345
 21
9.4
  0
LINE
  8
0
 10
170.62
 11
171.11
 20
9.4
 21
9.345
  0
LINE
  8
0
 10
171.11
 11
171.575
 20
9.345
 21
9.182
  0
LINE
  8
0
 10
171.575
 11
171.992
 20
9.182
 21
8.92
  0
LINE
  8
0
 10
171.992
 11
172.34
 20
8.92
 21
8.572
  0
LINE
  8
0
 10
172.34
 11
172.602
 20
8.572
 21
8.155
  0
LINE
  8
0
 10
172.602
 11
172.765
 20
8.155
 21
7.69
  0
LINE
  8
0
 10
172.765
 11
172.82
 20
7.69
 21
7.2
  0
LINE
  8
0
 10
172.82
 11
172.765
 20
7.2
 21
6.71
  0
LINE
  8
0
 10
172.765
 11
172.602
 20
6.71
 21
6.245
  0
LINE
  8
0
 10
172.602
 11
172.34
 20
6.245
 21
5.828
  0
LINE
  8
0
 10
172.34
 11
171.992
 20
5.828
 21
5.48
  0
LINE
  8
0
 10
171.992
 11
171.575
 20
5.48
 21
5.218
  0
LINE
  8
0
 10
171.575
 11
171.11
 20
5.218
 21
5.055
  0
LINE
  8
0
 10
171.11
 11
170.62
 20
5.055
 21
5
  0
LINE
  8
0
 10
170.62
 11
170.13
 20
5
 21
5.055
  0
LINE
  8
0
 10
170.13
 11
169.665
 20
5.055
 21
5.218
  0
LINE
  8
0
 10
169.665
 11
169.248
 20
5.218
 21
5.48
  0
LINE
  8
0
 10
169.248
 11
168.9
 20
5.48
 21
5.828
  0
LINE
  8
0
 10
168.9
 11
168.638
 20
5.828
 21
6.245
  0
LINE
  8
0
 10
168.638
 11
168.475
 20
6.245
 21
6.71
  0
LINE
  8
0
 10
168.475
 11
168.42
 20
6.71
 21
7.2
  0
LINE
  8
0
 10
174.1
 11
174.1
 20
56.5
 21
65.5
  0
LINE
  8
0
 10
174.1
 11
174.155
 20
65.5
 21
65.99
  0
LINE
  8
0
 10
174.155
 11
174.318
 20
65.99
 21
66.455
  0
LINE
  8
0
 10
174.318
 11
174.58
 20
66.455
 21
66.872
  0
LINE
  8
0
 10
174.58
 11
174.928
 20
66.872
 21
67.22
  0
LINE
  8
0
 10
174.928
 11
175.345
 20
67.22
 21
67.482
  0
LINE
  8
0
 10
175.345
 11
175.81
 20
67.482
 21
67.645
  0
LINE
  8
0
 10
175.81
 11
176.3
 20
67.645
 21
67.7
  0
LINE
  8
0
 10
176.3
 11
176.79
 20
67.7
 21
67.645
  0
LINE
  8
0
 10
176.79
 11
177.255
 20
67.645
 21
67.482
  0
LINE
  8
0
 10
177.255
 11
177.672
 20
67.482
 21
67.22
  0
LINE
  8
0
 10
177.672
 11
178.02
 20
67.22
 21
66.872
  0
LINE
  8
0
 10
178.02
 11
178.282
 20
66.872
 21
66.455
  0
LINE
  8
0
 10
178.282
 11
178.445
 20
66.455
 21
65.99
  0
LINE
  8
0
 10
178.445
 11
178.5
 20
65.99
 21
65.5
  0
LINE
  8
0
 10
178.5
 11
178.5
 20
65.5
 21
56.5
  0
LINE
  8
0
 10
178.5
 11
178.445
 20
56.5
 21
56.01
  0
LINE
  8
0
 10
178.445
 11
178.282
 20
56.01
 21
55.545
  0
LINE
  8
0
 10
178.282
 11
178.02
 20
55.545
 21
55.128
  0
LINE
  8
0
 10
178.02
 11
177.672
 20
55.128
 21
54.78
  0
LINE
  8
0
 10
177.672
 11
177.255
 20
54.78
 21
54.518
  0
LINE
  8
0
 10
177.255
 11
176.79
 20
54.518
 21
54.355
  0
LINE
  8
0
 10
176.79
 11
176.3
 20
54.355
 21
54.3
  0
LINE
  8
0
 10
176.3
 11
175.81
 20
54.3
 21
54.355
  0
LINE
  8
0
 10
175.81
 11
175.345
 20
54.355
 21
54.518
  0
LINE
  8
0
 10
175.345
 11
174.928
 20
54.518
 21
54.78
  0
LINE
  8
0
 10
174.928
 11
174.58
 20
54.78
 21
55.128
  0
LINE
  8
0
 10
174.58
 11
174.318
 20
55.128
 21
55.545
  0
LINE
  8
0
 10
174.318
 11
174.155
 20
55.545
 21
56.01
  0
LINE
  8
0
 10
174.155
 11
174.1
 20
56.01
 21
56.5
  0
LINE
  8
0
 10
183.15
 11
183.205
 20
355.15
 21
355.64
  0
LINE
  8
0
 10
183.205
 11
183.368
 20
355.64
 21
356.105
  0
LINE
  8
0
 10
183.368
 11
183.63
 20
356.105
 21
356.522
  0
LINE
  8
0
 10
183.63
 11
183.978
 20
356.522
 21
356.87
  0
LINE
  8
0
 10
183.978
 11
184.395
 20
356.87
 21
357.132
  0
LINE
  8
0
 10
184.395
 11
184.86
 20
357.132
 21
357.295
  0
LINE
  8
0
 10
184.86
 11
185.35
 20
357.295
 21
357.35
  0
LINE
  8
0
 10
185.35
 11
185.84
 20
357.35
 21
357.295
  0
LINE
  8
0
 10
185.84
 11
186.305
 20
357.295
 21
357.132
  0
LINE
  8
0
 10
186.305
 11
186.722
 20
357.132
 21
356.87
  0
LINE
  8
0
 10
186.722
 11
187.07
 20
356.87
 21
356.522
  0
LINE
  8
0
 10
187.07
 11
187.332
 20
356.522
 21
356.105
  0
LINE
  8
0
 10
187.332
 11
187.495
 20
356.105
 21
355.64
  0
LINE
  8
0
 10
187.495
 11
187.55
 20
355.64
 21
355.15
  0
LINE
  8
0
 10
187.55
 11
187.495
 20
355.15
 21
354.66
  0
LINE
  8
0
 10
187.495
 11
187.332
 20
354.66
 21
354.195
  0
LINE
  8
0
 10
187.332
 11
187.07
 20
354.195
 21
353.778
  0
LINE
  8
0
 10
187.07
 11
186.722
 20
353.778
 21
353.43
  0
LINE
  8
0
 10
186.722
 11
186.305
 20
353.43
 21
353.168
  0
LINE
  8
0
 10
186.305
 11
185.84
 20
353.168
 21
353.005
  0
LINE
  8
0
 10
185.84
 11
185.35
 20
353.005
 21
352.95
  0
LINE
  8
0
 10
185.35
 11
184.86
 20
352.95
 21
353.005
  0
LINE
  8
0
 10
184.86
 11
184.395
 20
353.005
 21
353.168
  0
LINE
  8
0
 10
184.395
 11
183.978
 20
353.168
 21
353.43
  0
LINE
  8
0
 10
183.978
 11
183.63
 20
353.43
 21
353.778
  0
LINE
  8
0
 10
183.63
 11
183.368
 20
353.778
 21
354.195
  0
LINE
  8
0
 10
183.368
 11
183.205
 20
354.195
 21
354.66
  0
LINE
  8
0
 10
183.205
 11
183.15
 20
354.66
 21
355.15
  0
LINE
  8
0
 10
187.8
 11
187.895
 20
366
 21
366.478
  0
LINE
  8
0
 10
187.895
 11
188.166
 20
366.478
 21
366.884
  0
LINE
  8
0
 10
188.166
 11
188.572
 20
366.884
 21
367.155
  0
LINE
  8
0
 10
188.572
 11
189.05
 20
367.155
 21
367.25
  0
LINE
  8
0
 10
189.05
 11
216.45
 20
367.25
 21
367.25
  0
LINE
  8
0
 10
216.45
 11
216.928
 20
367.25
 21
367.155
  0
LINE
  8
0
 10
216.928
 11
217.334
 20
367.155
 21
366.884
  0
LINE
  8
0
 10
217.334
 11
217.605
 20
366.884
 21
366.478
  0
LINE
  8
0
 10
217.605
 11
217.7
 20
366.478
 21
366
  0
LINE
  8
0
 10
217.7
 11
217.605
 20
366
 21
365.522
  0
LINE
  8
0
 10
217.605
 11
217.334
 20
365.522
 21
365.116
  0
LINE
  8
0
 10
217.334
 11
216.928
 20
365.116
 21
364.845
  0
LINE
  8
0
 10
216.928
 11
216.45
 20
364.845
 21
364.75
  0
LINE
  8
0
 10
216.45
 11
189.05
 20
364.75
 21
364.75
  0
LINE
  8
0
 10
189.05
 11
188.572
 20
364.75
 21
364.845
  0
LINE
  8
0
 10
188.572
 11
188.166
 20
364.845
 21
365.116
  0
LINE
  8
0
 10
188.166
 11
187.895
 20
365.116
 21
365.522
  0
LINE
  8
0
 10
187.895
 11
187.8
 20
365.522
 21
366
  0
LINE
  8
0
 10
203.13
 11
203.185
 20
7.2
 21
7.69
  0
LINE
  8
0
 10
203.185
 11
203.348
 20
7.69
 21
8.155
  0
LINE
  8
0
 10
203.348
 11
203.61
 20
8.155
 21
8.572
  0
LINE
  8
0
 10
203.61
 11
203.958
 20
8.572
 21
8.92
  0
LINE
  8
0
 10
203.958
 11
204.375
 20
8.92
 21
9.182
  0
LINE
  8
0
 10
204.375
 11
204.84
 20
9.182
 21
9.345
  0
LINE
  8
0
 10
204.84
 11
205.33
 20
9.345
 21
9.4
  0
LINE
  8
0
 10
205.33
 11
205.82
 20
9.4
 21
9.345
  0
LINE
  8
0
 10
205.82
 11
206.285
 20
9.345
 21
9.182
  0
LINE
  8
0
 10
206.285
 11
206.702
 20
9.182
 21
8.92
  0
LINE
  8
0
 10
206.702
 11
207.05
 20
8.92
 21
8.572
  0
LINE
  8
0
 10
207.05
 11
207.312
 20
8.572
 21
8.155
  0
LINE
  8
0
 10
207.312
 11
207.475
 20
8.155
 21
7.69
  0
LINE
  8
0
 10
207.475
 11
207.53
 20
7.69
 21
7.2
  0
LINE
  8
0
 10
207.53
 11
207.475
 20
7.2
 21
6.71
  0
LINE
  8
0
 10
207.475
 11
207.312
 20
6.71
 21
6.245
  0
LINE
  8
0
 10
207.312
 11
207.05
 20
6.245
 21
5.828
  0
LINE
  8
0
 10
207.05
 11
206.702
 20
5.828
 21
5.48
  0
LINE
  8
0
 10
206.702
 11
206.285
 20
5.48
 21
5.218
  0
LINE
  8
0
 10
206.285
 11
205.82
 20
5.218
 21
5.055
  0
LINE
  8
0
 10
205.82
 11
205.33
 20
5.055
 21
5
  0
LINE
  8
0
 10
205.33
 11
204.84
 20
5
 21
5.055
  0
LINE
  8
0
 10
204.84
 11
204.375
 20
5.055
 21
5.218
  0
LINE
  8
0
 10
204.375
 11
203.958
 20
5.218
 21
5.48
  0
LINE
  8
0
 10
203.958
 11
203.61
 20
5.48
 21
5.828
  0
LINE
  8
0
 10
203.61
 11
203.348
 20
5.828
 21
6.245
  0
LINE
  8
0
 10
203.348
 11
203.185
 20
6.245
 21
6.71
  0
LINE
  8
0
 10
203.185
 11
203.13
 20
6.71
 21
7.2
  0
LINE
  8
0
 10
217.95
 11
218.005
 20
355.15
 21
355.64
  0
LINE
  8
0
 10
218.005
 11
218.168
 20
355.64
 21
356.105
  0
LINE
  8
0
 10
218.168
 11
218.43
 20
356.105
 21
356.522
  0
LINE
  8
0
 10
218.43
 11
218.778
 20
356.522
 21
356.87
  0
LINE
  8
0
 10
218.778
 11
219.195
 20
356.87
 21
357.132
  0
LINE
  8
0
 10
219.195
 11
219.66
 20
357.132
 21
357.295
  0
LINE
  8
0
 10
219.66
 11
220.15
 20
357.295
 21
357.35
  0
LINE
  8
0
 10
220.15
 11
220.64
 20
357.35
 21
357.295
  0
LINE
  8
0
 10
220.64
 11
221.105
 20
357.295
 21
357.132
  0
LINE
  8
0
 10
221.105
 11
221.522
 20
357.132
 21
356.87
  0
LINE
  8
0
 10
221.522
 11
221.87
 20
356.87
 21
356.522
  0
LINE
  8
0
 10
221.87
 11
222.132
 20
356.522
 21
356.105
  0
LINE
  8
0
 10
222.132
 11
222.295
 20
356.105
 21
355.64
  0
LINE
  8
0
 10
222.295
 11
222.35
 20
355.64
 21
355.15
  0
LINE
  8
0
 10
222.35
 11
222.295
 20
355.15
 21
354.66
  0
LINE
  8
0
 10
222.295
 11
222.132
 20
354.66
 21
354.195
  0
LINE
  8
0
 10
222.132
 11
221.87
 20
354.195
 21
353.778
  0
LINE
  8
0
 10
221.87
 11
221.522
 20
353.778
 21
353.43
  0
LINE
  8
0
 10
221.522
 11
221.105
 20
353.43
 21
353.168
  0
LINE
  8
0
 10
221.105
 11
220.64
 20
353.168
 21
353.005
  0
LINE
  8
0
 10
220.64
 11
220.15
 20
353.005
 21
352.95
  0
LINE
  8
0
 10
220.15
 11
219.66
 20
352.95
 21
353.005
  0
LINE
  8
0
 10
219.66
 11
219.195
 20
353.005
 21
353.168
  0
LINE
  8
0
 10
219.195
 11
218.778
 20
353.168
 21
353.43
  0
LINE
  8
0
 10
218.778
 11
218.43
 20
353.43
 21
353.778
  0
LINE
  8
0
 10
218.43
 11
218.168
 20
353.778
 21
354.195
  0
LINE
  8
0
 10
218.168
 11
218.005
 20
354.195
 21
354.66
  0
LINE
  8
0
 10
218.005
 11
217.95
 20
354.66
 21
355.15
  0
LINE
  8
0
 10
224.35
 11
224.405
 20
7.2
 21
7.69
  0
LINE
  8
0
 10
224.405
 11
224.568
 20
7.69
 21
8.155
  0
LINE
  8
0
 10
224.568
 11
224.83
 20
8.155
 21
8.572
  0
LINE
  8
0
 10
224.83
 11
225.178
 20
8.572
 21
8.92
  0
LINE
  8
0
 10
225.178
 11
225.595
 20
8.92
 21
9.182
  0
LINE
  8
0
 10
225.595
 11
226.06
 20
9.182
 21
9.345
  0
LINE
  8
0
 10
226.06
 11
226.55
 20
9.345
 21
9.4
  0
LINE
  8
0
 10
226.55
 11
227.04
 20
9.4
 21
9.345
  0
LINE
  8
0
 10
227.04
 11
227.505
 20
9.345
 21
9.182
  0
LINE
  8
0
 10
227.505
 11
227.922
 20
9.182
 21
8.92
  0
LINE
  8
0
 10
227.922
 11
228.27
 20
8.92
 21
8.572
  0
LINE
  8
0
 10
228.27
 11
228.532
 20
8.572
 21
8.155
  0
LINE
  8
0
 10
228.532
 11
228.695
 20
8.155
 21
7.69
  0
LINE
  8
0
 10
228.695
 11
228.75
 20
7.69
 21
7.2
  0
LINE
  8
0
 10
228.75
 11
228.695
 20
7.2
 21
6.71
  0
LINE
  8
0
 10
228.695
 11
228.532
 20
6.71
 21
6.245
  0
LINE
  8
0
 10
228.532
 11
228.27
 20
6.245
 21
5.828
  0
LINE
  8
0
 10
228.27
 11
227.922
 20
5.828
 21
5.48
  0
LINE
  8
0
 10
227.922
 11
227.505
 20
5.48
 21
5.218
  0
LINE
  8
0
 10
227.505
 11
227.04
 20
5.218
 21
5.055
  0
LINE
  8
0
 10
227.04
 11
226.55
 20
5.055
 21
5
  0
LINE
  8
0
 10
226.55
 11
226.06
 20
5
 21
5.055
  0
LINE
  8
0
 10
226.06
 11
225.595
 20
5.055
 21
5.218
  0
LINE
  8
0
 10
225.595
 11
225.178
 20
5.218
 21
5.48
  0
LINE
  8
0
 10
225.178
 11
224.83
 20
5.48
 21
5.828
  0
LINE
  8
0
 10
224.83
 11
224.568
 20
5.828
 21
6.245
  0
LINE
  8
0
 10
224.568
 11
224.405
 20
6.245
 21
6.71
  0
LINE
  8
0
 10
224.405
 11
224.35
 20
6.71
 21
7.2
  0
ENDSEC
  0
SECTION
  2
OBJECTS
  0
DICTIONARY
  0
ENDSEC
  0
EOF
