  0
SECTION
  2
BLOCKS
  0
ENDSEC
  0
SECTION
  2
ENTITIES
  0
LINE
  8
0
 10
-218.14
 11
-218.085
 20
58.7
 21
59.19
  0
LINE
  8
0
 10
-218.085
 11
-217.922
 20
59.19
 21
59.655
  0
LINE
  8
0
 10
-217.922
 11
-217.66
 20
59.655
 21
60.072
  0
LINE
  8
0
 10
-217.66
 11
-217.312
 20
60.072
 21
60.42
  0
LINE
  8
0
 10
-217.312
 11
-216.895
 20
60.42
 21
60.682
  0
LINE
  8
0
 10
-216.895
 11
-216.43
 20
60.682
 21
60.845
  0
LINE
  8
0
 10
-216.43
 11
-215.94
 20
60.845
 21
60.9
  0
LINE
  8
0
 10
-215.94
 11
-215.45
 20
60.9
 21
60.845
  0
LINE
  8
0
 10
-215.45
 11
-214.985
 20
60.845
 21
60.682
  0
LINE
  8
0
 10
-214.985
 11
-214.568
 20
60.682
 21
60.42
  0
LINE
  8
0
 10
-214.568
 11
-214.22
 20
60.42
 21
60.072
  0
LINE
  8
0
 10
-214.22
 11
-213.958
 20
60.072
 21
59.655
  0
LINE
  8
0
 10
-213.958
 11
-213.795
 20
59.655
 21
59.19
  0
LINE
  8
0
 10
-213.795
 11
-213.74
 20
59.19
 21
58.7
  0
LINE
  8
0
 10
-213.74
 11
-213.795
 20
58.7
 21
58.21
  0
LINE
  8
0
 10
-213.795
 11
-213.958
 20
58.21
 21
57.745
  0
LINE
  8
0
 10
-213.958
 11
-214.22
 20
57.745
 21
57.328
  0
LINE
  8
0
 10
-214.22
 11
-214.568
 20
57.328
 21
56.98
  0
LINE
  8
0
 10
-214.568
 11
-214.985
 20
56.98
 21
56.718
  0
LINE
  8
0
 10
-214.985
 11
-215.45
 20
56.718
 21
56.555
  0
LINE
  8
0
 10
-215.45
 11
-215.94
 20
56.555
 21
56.5
  0
LINE
  8
0
 10
-215.94
 11
-216.43
 20
56.5
 21
56.555
  0
LINE
  8
0
 10
-216.43
 11
-216.895
 20
56.555
 21
56.718
  0
LINE
  8
0
 10
-216.895
 11
-217.312
 20
56.718
 21
56.98
  0
LINE
  8
0
 10
-217.312
 11
-217.66
 20
56.98
 21
57.328
  0
LINE
  8
0
 10
-217.66
 11
-217.922
 20
57.328
 21
57.745
  0
LINE
  8
0
 10
-217.922
 11
-218.085
 20
57.745
 21
58.21
  0
LINE
  8
0
 10
-218.085
 11
-218.14
 20
58.21
 21
58.7
  0
LINE
  8
0
 10
-209.742
 11
-209.742
 20
-0.246
 21
0.246
  0
LINE
  8
0
 10
-209.742
 11
-209.682
 20
0.246
 21
0.735
  0
LINE
  8
0
 10
-209.682
 11
-209.562
 20
0.735
 21
1.213
  0
LINE
  8
0
 10
-209.562
 11
-209.384
 20
1.213
 21
1.672
  0
LINE
  8
0
 10
-209.384
 11
-209.151
 20
1.672
 21
2.106
  0
LINE
  8
0
 10
-209.151
 11
-208.866
 20
2.106
 21
2.508
  0
LINE
  8
0
 10
-208.866
 11
-208.535
 20
2.508
 21
2.872
  0
LINE
  8
0
 10
-208.535
 11
-208.161
 20
2.872
 21
3.192
  0
LINE
  8
0
 10
-208.161
 11
-207.75
 20
3.192
 21
3.464
  0
LINE
  8
0
 10
-207.75
 11
-207.309
 20
3.464
 21
3.684
  0
LINE
  8
0
 10
-207.309
 11
-206.845
 20
3.684
 21
3.847
  0
LINE
  8
0
 10
-206.845
 11
-206.364
 20
3.847
 21
3.953
  0
LINE
  8
0
 10
-206.364
 11
-205.873
 20
3.953
 21
3.998
  0
LINE
  8
0
 10
-205.873
 11
-205.381
 20
3.998
 21
3.983
  0
LINE
  8
0
 10
-205.381
 11
-204.894
 20
3.983
 21
3.907
  0
LINE
  8
0
 10
-204.894
 11
-204.421
 20
3.907
 21
3.773
  0
LINE
  8
0
 10
-204.421
 11
-203.967
 20
3.773
 21
3.581
  0
LINE
  8
0
 10
-203.967
 11
-203.541
 20
3.581
 21
3.334
  0
LINE
  8
0
 10
-203.541
 11
-203.148
 20
3.334
 21
3.038
  0
LINE
  8
0
 10
-203.148
 11
-202.794
 20
3.038
 21
2.695
  0
LINE
  8
0
 10
-202.794
 11
-202.485
 20
2.695
 21
2.311
  0
LINE
  8
0
 10
-202.485
 11
-202.226
 20
2.311
 21
1.892
  0
LINE
  8
0
 10
-202.226
 11
-202.02
 20
1.892
 21
1.445
  0
LINE
  8
0
 10
-202.02
 11
-201.871
 20
1.445
 21
0.976
  0
LINE
  8
0
 10
-201.871
 11
-201.78
 20
0.976
 21
0.492
  0
LINE
  8
0
 10
-201.78
 11
-201.75
 20
0.492
 21
0
  0
LINE
  8
0
 10
-201.75
 11
-201.78
 20
0
 21
-0.492
  0
LINE
  8
0
 10
-201.78
 11
-201.871
 20
-0.492
 21
-0.976
  0
LINE
  8
0
 10
-201.871
 11
-202.02
 20
-0.976
 21
-1.445
  0
LINE
  8
0
 10
-202.02
 11
-202.226
 20
-1.445
 21
-1.892
  0
LINE
  8
0
 10
-202.226
 11
-202.485
 20
-1.892
 21
-2.311
  0
LINE
  8
0
 10
-202.485
 11
-202.794
 20
-2.311
 21
-2.695
  0
LINE
  8
0
 10
-202.794
 11
-203.148
 20
-2.695
 21
-3.038
  0
LINE
  8
0
 10
-203.148
 11
-203.541
 20
-3.038
 21
-3.334
  0
LINE
  8
0
 10
-203.541
 11
-203.967
 20
-3.334
 21
-3.581
  0
LINE
  8
0
 10
-203.967
 11
-204.421
 20
-3.581
 21
-3.773
  0
LINE
  8
0
 10
-204.421
 11
-204.894
 20
-3.773
 21
-3.907
  0
LINE
  8
0
 10
-204.894
 11
-205.381
 20
-3.907
 21
-3.983
  0
LINE
  8
0
 10
-205.381
 11
-205.873
 20
-3.983
 21
-3.998
  0
LINE
  8
0
 10
-205.873
 11
-206.364
 20
-3.998
 21
-3.953
  0
LINE
  8
0
 10
-206.364
 11
-206.845
 20
-3.953
 21
-3.847
  0
LINE
  8
0
 10
-206.845
 11
-207.309
 20
-3.847
 21
-3.684
  0
LINE
  8
0
 10
-207.309
 11
-207.75
 20
-3.684
 21
-3.464
  0
LINE
  8
0
 10
-207.75
 11
-208.161
 20
-3.464
 21
-3.192
  0
LINE
  8
0
 10
-208.161
 11
-208.535
 20
-3.192
 21
-2.872
  0
LINE
  8
0
 10
-208.535
 11
-208.866
 20
-2.872
 21
-2.508
  0
LINE
  8
0
 10
-208.866
 11
-209.151
 20
-2.508
 21
-2.106
  0
LINE
  8
0
 10
-209.151
 11
-209.384
 20
-2.106
 21
-1.672
  0
LINE
  8
0
 10
-209.384
 11
-209.562
 20
-1.672
 21
-1.213
  0
LINE
  8
0
 10
-209.562
 11
-209.682
 20
-1.213
 21
-0.735
  0
LINE
  8
0
 10
-209.682
 11
-209.742
 20
-0.735
 21
-0.246
  0
LINE
  8
0
 10
-173.25
 11
-173.195
 20
-190.19
 21
-189.7
  0
LINE
  8
0
 10
-173.195
 11
-173.032
 20
-189.7
 21
-189.235
  0
LINE
  8
0
 10
-173.032
 11
-172.77
 20
-189.235
 21
-188.818
  0
LINE
  8
0
 10
-172.77
 11
-172.422
 20
-188.818
 21
-188.47
  0
LINE
  8
0
 10
-172.422
 11
-172.005
 20
-188.47
 21
-188.208
  0
LINE
  8
0
 10
-172.005
 11
-171.54
 20
-188.208
 21
-188.045
  0
LINE
  8
0
 10
-171.54
 11
-171.05
 20
-188.045
 21
-187.99
  0
LINE
  8
0
 10
-171.05
 11
-170.56
 20
-187.99
 21
-188.045
  0
LINE
  8
0
 10
-170.56
 11
-170.095
 20
-188.045
 21
-188.208
  0
LINE
  8
0
 10
-170.095
 11
-169.678
 20
-188.208
 21
-188.47
  0
LINE
  8
0
 10
-169.678
 11
-169.33
 20
-188.47
 21
-188.818
  0
LINE
  8
0
 10
-169.33
 11
-169.068
 20
-188.818
 21
-189.235
  0
LINE
  8
0
 10
-169.068
 11
-168.905
 20
-189.235
 21
-189.7
  0
LINE
  8
0
 10
-168.905
 11
-168.85
 20
-189.7
 21
-190.19
  0
LINE
  8
0
 10
-168.85
 11
-168.905
 20
-190.19
 21
-190.68
  0
LINE
  8
0
 10
-168.905
 11
-169.068
 20
-190.68
 21
-191.145
  0
LINE
  8
0
 10
-169.068
 11
-169.33
 20
-191.145
 21
-191.562
  0
LINE
  8
0
 10
-169.33
 11
-169.678
 20
-191.562
 21
-191.91
  0
LINE
  8
0
 10
-169.678
 11
-170.095
 20
-191.91
 21
-192.172
  0
LINE
  8
0
 10
-170.095
 11
-170.56
 20
-192.172
 21
-192.335
  0
LINE
  8
0
 10
-170.56
 11
-171.05
 20
-192.335
 21
-192.39
  0
LINE
  8
0
 10
-171.05
 11
-171.54
 20
-192.39
 21
-192.335
  0
LINE
  8
0
 10
-171.54
 11
-172.005
 20
-192.335
 21
-192.172
  0
LINE
  8
0
 10
-172.005
 11
-172.422
 20
-192.172
 21
-191.91
  0
LINE
  8
0
 10
-172.422
 11
-172.77
 20
-191.91
 21
-191.562
  0
LINE
  8
0
 10
-172.77
 11
-173.032
 20
-191.562
 21
-191.145
  0
LINE
  8
0
 10
-173.032
 11
-173.195
 20
-191.145
 21
-190.68
  0
LINE
  8
0
 10
-173.195
 11
-173.25
 20
-190.68
 21
-190.19
  0
LINE
  8
0
 10
-173.25
 11
-173.195
 20
190.19
 21
190.68
  0
LINE
  8
0
 10
-173.195
 11
-173.032
 20
190.68
 21
191.145
  0
LINE
  8
0
 10
-173.032
 11
-172.77
 20
191.145
 21
191.562
  0
LINE
  8
0
 10
-172.77
 11
-172.422
 20
191.562
 21
191.91
  0
LINE
  8
0
 10
-172.422
 11
-172.005
 20
191.91
 21
192.172
  0
LINE
  8
0
 10
-172.005
 11
-171.54
 20
192.172
 21
192.335
  0
LINE
  8
0
 10
-171.54
 11
-171.05
 20
192.335
 21
192.39
  0
LINE
  8
0
 10
-171.05
 11
-170.56
 20
192.39
 21
192.335
  0
LINE
  8
0
 10
-170.56
 11
-170.095
 20
192.335
 21
192.172
  0
LINE
  8
0
 10
-170.095
 11
-169.678
 20
192.172
 21
191.91
  0
LINE
  8
0
 10
-169.678
 11
-169.33
 20
191.91
 21
191.562
  0
LINE
  8
0
 10
-169.33
 11
-169.068
 20
191.562
 21
191.145
  0
LINE
  8
0
 10
-169.068
 11
-168.905
 20
191.145
 21
190.68
  0
LINE
  8
0
 10
-168.905
 11
-168.85
 20
190.68
 21
190.19
  0
LINE
  8
0
 10
-168.85
 11
-168.905
 20
190.19
 21
189.7
  0
LINE
  8
0
 10
-168.905
 11
-169.068
 20
189.7
 21
189.235
  0
LINE
  8
0
 10
-169.068
 11
-169.33
 20
189.235
 21
188.818
  0
LINE
  8
0
 10
-169.33
 11
-169.678
 20
188.818
 21
188.47
  0
LINE
  8
0
 10
-169.678
 11
-170.095
 20
188.47
 21
188.208
  0
LINE
  8
0
 10
-170.095
 11
-170.56
 20
188.208
 21
188.045
  0
LINE
  8
0
 10
-170.56
 11
-171.05
 20
188.045
 21
187.99
  0
LINE
  8
0
 10
-171.05
 11
-171.54
 20
187.99
 21
188.045
  0
LINE
  8
0
 10
-171.54
 11
-172.005
 20
188.045
 21
188.208
  0
LINE
  8
0
 10
-172.005
 11
-172.422
 20
188.208
 21
188.47
  0
LINE
  8
0
 10
-172.422
 11
-172.77
 20
188.47
 21
188.818
  0
LINE
  8
0
 10
-172.77
 11
-173.032
 20
188.818
 21
189.235
  0
LINE
  8
0
 10
-173.032
 11
-173.195
 20
189.235
 21
189.7
  0
LINE
  8
0
 10
-173.195
 11
-173.25
 20
189.7
 21
190.19
  0
LINE
  8
0
 10
-152.76
 11
-152.705
 20
58.7
 21
59.19
  0
LINE
  8
0
 10
-152.705
 11
-152.542
 20
59.19
 21
59.655
  0
LINE
  8
0
 10
-152.542
 11
-152.28
 20
59.655
 21
60.072
  0
LINE
  8
0
 10
-152.28
 11
-151.932
 20
60.072
 21
60.42
  0
LINE
  8
0
 10
-151.932
 11
-151.515
 20
60.42
 21
60.682
  0
LINE
  8
0
 10
-151.515
 11
-151.05
 20
60.682
 21
60.845
  0
LINE
  8
0
 10
-151.05
 11
-150.56
 20
60.845
 21
60.9
  0
LINE
  8
0
 10
-150.56
 11
-150.07
 20
60.9
 21
60.845
  0
LINE
  8
0
 10
-150.07
 11
-149.605
 20
60.845
 21
60.682
  0
LINE
  8
0
 10
-149.605
 11
-149.188
 20
60.682
 21
60.42
  0
LINE
  8
0
 10
-149.188
 11
-148.84
 20
60.42
 21
60.072
  0
LINE
  8
0
 10
-148.84
 11
-148.578
 20
60.072
 21
59.655
  0
LINE
  8
0
 10
-148.578
 11
-148.415
 20
59.655
 21
59.19
  0
LINE
  8
0
 10
-148.415
 11
-148.36
 20
59.19
 21
58.7
  0
LINE
  8
0
 10
-148.36
 11
-148.415
 20
58.7
 21
58.21
  0
LINE
  8
0
 10
-148.415
 11
-148.578
 20
58.21
 21
57.745
  0
LINE
  8
0
 10
-148.578
 11
-148.84
 20
57.745
 21
57.328
  0
LINE
  8
0
 10
-148.84
 11
-149.188
 20
57.328
 21
56.98
  0
LINE
  8
0
 10
-149.188
 11
-149.605
 20
56.98
 21
56.718
  0
LINE
  8
0
 10
-149.605
 11
-150.07
 20
56.718
 21
56.555
  0
LINE
  8
0
 10
-150.07
 11
-150.56
 20
56.555
 21
56.5
  0
LINE
  8
0
 10
-150.56
 11
-151.05
 20
56.5
 21
56.555
  0
LINE
  8
0
 10
-151.05
 11
-151.515
 20
56.555
 21
56.718
  0
LINE
  8
0
 10
-151.515
 11
-151.932
 20
56.718
 21
56.98
  0
LINE
  8
0
 10
-151.932
 11
-152.28
 20
56.98
 21
57.328
  0
LINE
  8
0
 10
-152.28
 11
-152.542
 20
57.328
 21
57.745
  0
LINE
  8
0
 10
-152.542
 11
-152.705
 20
57.745
 21
58.21
  0
LINE
  8
0
 10
-152.705
 11
-152.76
 20
58.21
 21
58.7
  0
LINE
  8
0
 10
-107.5
 11
-107.445
 20
-202
 21
-201.51
  0
LINE
  8
0
 10
-107.445
 11
-107.282
 20
-201.51
 21
-201.045
  0
LINE
  8
0
 10
-107.282
 11
-107.02
 20
-201.045
 21
-200.628
  0
LINE
  8
0
 10
-107.02
 11
-106.672
 20
-200.628
 21
-200.28
  0
LINE
  8
0
 10
-106.672
 11
-106.255
 20
-200.28
 21
-200.018
  0
LINE
  8
0
 10
-106.255
 11
-105.79
 20
-200.018
 21
-199.855
  0
LINE
  8
0
 10
-105.79
 11
-105.3
 20
-199.855
 21
-199.8
  0
LINE
  8
0
 10
-105.3
 11
-104.81
 20
-199.8
 21
-199.855
  0
LINE
  8
0
 10
-104.81
 11
-104.345
 20
-199.855
 21
-200.018
  0
LINE
  8
0
 10
-104.345
 11
-103.928
 20
-200.018
 21
-200.28
  0
LINE
  8
0
 10
-103.928
 11
-103.58
 20
-200.28
 21
-200.628
  0
LINE
  8
0
 10
-103.58
 11
-103.318
 20
-200.628
 21
-201.045
  0
LINE
  8
0
 10
-103.318
 11
-103.155
 20
-201.045
 21
-201.51
  0
LINE
  8
0
 10
-103.155
 11
-103.1
 20
-201.51
 21
-202
  0
LINE
  8
0
 10
-103.1
 11
-103.155
 20
-202
 21
-202.49
  0
LINE
  8
0
 10
-103.155
 11
-103.318
 20
-202.49
 21
-202.955
  0
LINE
  8
0
 10
-103.318
 11
-103.58
 20
-202.955
 21
-203.372
  0
LINE
  8
0
 10
-103.58
 11
-103.928
 20
-203.372
 21
-203.72
  0
LINE
  8
0
 10
-103.928
 11
-104.345
 20
-203.72
 21
-203.982
  0
LINE
  8
0
 10
-104.345
 11
-104.81
 20
-203.982
 21
-204.145
  0
LINE
  8
0
 10
-104.81
 11
-105.3
 20
-204.145
 21
-204.2
  0
LINE
  8
0
 10
-105.3
 11
-105.79
 20
-204.2
 21
-204.145
  0
LINE
  8
0
 10
-105.79
 11
-106.255
 20
-204.145
 21
-203.982
  0
LINE
  8
0
 10
-106.255
 11
-106.672
 20
-203.982
 21
-203.72
  0
LINE
  8
0
 10
-106.672
 11
-107.02
 20
-203.72
 21
-203.372
  0
LINE
  8
0
 10
-107.02
 11
-107.282
 20
-203.372
 21
-202.955
  0
LINE
  8
0
 10
-107.282
 11
-107.445
 20
-202.955
 21
-202.49
  0
LINE
  8
0
 10
-107.445
 11
-107.5
 20
-202.49
 21
-202
  0
LINE
  8
0
 10
-107.5
 11
-107.445
 20
202
 21
202.49
  0
LINE
  8
0
 10
-107.445
 11
-107.282
 20
202.49
 21
202.955
  0
LINE
  8
0
 10
-107.282
 11
-107.02
 20
202.955
 21
203.372
  0
LINE
  8
0
 10
-107.02
 11
-106.672
 20
203.372
 21
203.72
  0
LINE
  8
0
 10
-106.672
 11
-106.255
 20
203.72
 21
203.982
  0
LINE
  8
0
 10
-106.255
 11
-105.79
 20
203.982
 21
204.145
  0
LINE
  8
0
 10
-105.79
 11
-105.3
 20
204.145
 21
204.2
  0
LINE
  8
0
 10
-105.3
 11
-104.81
 20
204.2
 21
204.145
  0
LINE
  8
0
 10
-104.81
 11
-104.345
 20
204.145
 21
203.982
  0
LINE
  8
0
 10
-104.345
 11
-103.928
 20
203.982
 21
203.72
  0
LINE
  8
0
 10
-103.928
 11
-103.58
 20
203.72
 21
203.372
  0
LINE
  8
0
 10
-103.58
 11
-103.318
 20
203.372
 21
202.955
  0
LINE
  8
0
 10
-103.318
 11
-103.155
 20
202.955
 21
202.49
  0
LINE
  8
0
 10
-103.155
 11
-103.1
 20
202.49
 21
202
  0
LINE
  8
0
 10
-103.1
 11
-103.155
 20
202
 21
201.51
  0
LINE
  8
0
 10
-103.155
 11
-103.318
 20
201.51
 21
201.045
  0
LINE
  8
0
 10
-103.318
 11
-103.58
 20
201.045
 21
200.628
  0
LINE
  8
0
 10
-103.58
 11
-103.928
 20
200.628
 21
200.28
  0
LINE
  8
0
 10
-103.928
 11
-104.345
 20
200.28
 21
200.018
  0
LINE
  8
0
 10
-104.345
 11
-104.81
 20
200.018
 21
199.855
  0
LINE
  8
0
 10
-104.81
 11
-105.3
 20
199.855
 21
199.8
  0
LINE
  8
0
 10
-105.3
 11
-105.79
 20
199.8
 21
199.855
  0
LINE
  8
0
 10
-105.79
 11
-106.255
 20
199.855
 21
200.018
  0
LINE
  8
0
 10
-106.255
 11
-106.672
 20
200.018
 21
200.28
  0
LINE
  8
0
 10
-106.672
 11
-107.02
 20
200.28
 21
200.628
  0
LINE
  8
0
 10
-107.02
 11
-107.282
 20
200.628
 21
201.045
  0
LINE
  8
0
 10
-107.282
 11
-107.445
 20
201.045
 21
201.51
  0
LINE
  8
0
 10
-107.445
 11
-107.5
 20
201.51
 21
202
  0
LINE
  8
0
 10
-73.4
 11
-73.345
 20
-202
 21
-201.51
  0
LINE
  8
0
 10
-73.345
 11
-73.182
 20
-201.51
 21
-201.045
  0
LINE
  8
0
 10
-73.182
 11
-72.92
 20
-201.045
 21
-200.628
  0
LINE
  8
0
 10
-72.92
 11
-72.572
 20
-200.628
 21
-200.28
  0
LINE
  8
0
 10
-72.572
 11
-72.155
 20
-200.28
 21
-200.018
  0
LINE
  8
0
 10
-72.155
 11
-71.69
 20
-200.018
 21
-199.855
  0
LINE
  8
0
 10
-71.69
 11
-71.2
 20
-199.855
 21
-199.8
  0
LINE
  8
0
 10
-71.2
 11
-70.71
 20
-199.8
 21
-199.855
  0
LINE
  8
0
 10
-70.71
 11
-70.245
 20
-199.855
 21
-200.018
  0
LINE
  8
0
 10
-70.245
 11
-69.828
 20
-200.018
 21
-200.28
  0
LINE
  8
0
 10
-69.828
 11
-69.48
 20
-200.28
 21
-200.628
  0
LINE
  8
0
 10
-69.48
 11
-69.218
 20
-200.628
 21
-201.045
  0
LINE
  8
0
 10
-69.218
 11
-69.055
 20
-201.045
 21
-201.51
  0
LINE
  8
0
 10
-69.055
 11
-69
 20
-201.51
 21
-202
  0
LINE
  8
0
 10
-69
 11
-69.055
 20
-202
 21
-202.49
  0
LINE
  8
0
 10
-69.055
 11
-69.218
 20
-202.49
 21
-202.955
  0
LINE
  8
0
 10
-69.218
 11
-69.48
 20
-202.955
 21
-203.372
  0
LINE
  8
0
 10
-69.48
 11
-69.828
 20
-203.372
 21
-203.72
  0
LINE
  8
0
 10
-69.828
 11
-70.245
 20
-203.72
 21
-203.982
  0
LINE
  8
0
 10
-70.245
 11
-70.71
 20
-203.982
 21
-204.145
  0
LINE
  8
0
 10
-70.71
 11
-71.2
 20
-204.145
 21
-204.2
  0
LINE
  8
0
 10
-71.2
 11
-71.69
 20
-204.2
 21
-204.145
  0
LINE
  8
0
 10
-71.69
 11
-72.155
 20
-204.145
 21
-203.982
  0
LINE
  8
0
 10
-72.155
 11
-72.572
 20
-203.982
 21
-203.72
  0
LINE
  8
0
 10
-72.572
 11
-72.92
 20
-203.72
 21
-203.372
  0
LINE
  8
0
 10
-72.92
 11
-73.182
 20
-203.372
 21
-202.955
  0
LINE
  8
0
 10
-73.182
 11
-73.345
 20
-202.955
 21
-202.49
  0
LINE
  8
0
 10
-73.345
 11
-73.4
 20
-202.49
 21
-202
  0
LINE
  8
0
 10
-73.4
 11
-73.345
 20
202
 21
202.49
  0
LINE
  8
0
 10
-73.345
 11
-73.182
 20
202.49
 21
202.955
  0
LINE
  8
0
 10
-73.182
 11
-72.92
 20
202.955
 21
203.372
  0
LINE
  8
0
 10
-72.92
 11
-72.572
 20
203.372
 21
203.72
  0
LINE
  8
0
 10
-72.572
 11
-72.155
 20
203.72
 21
203.982
  0
LINE
  8
0
 10
-72.155
 11
-71.69
 20
203.982
 21
204.145
  0
LINE
  8
0
 10
-71.69
 11
-71.2
 20
204.145
 21
204.2
  0
LINE
  8
0
 10
-71.2
 11
-70.71
 20
204.2
 21
204.145
  0
LINE
  8
0
 10
-70.71
 11
-70.245
 20
204.145
 21
203.982
  0
LINE
  8
0
 10
-70.245
 11
-69.828
 20
203.982
 21
203.72
  0
LINE
  8
0
 10
-69.828
 11
-69.48
 20
203.72
 21
203.372
  0
LINE
  8
0
 10
-69.48
 11
-69.218
 20
203.372
 21
202.955
  0
LINE
  8
0
 10
-69.218
 11
-69.055
 20
202.955
 21
202.49
  0
LINE
  8
0
 10
-69.055
 11
-69
 20
202.49
 21
202
  0
LINE
  8
0
 10
-69
 11
-69.055
 20
202
 21
201.51
  0
LINE
  8
0
 10
-69.055
 11
-69.218
 20
201.51
 21
201.045
  0
LINE
  8
0
 10
-69.218
 11
-69.48
 20
201.045
 21
200.628
  0
LINE
  8
0
 10
-69.48
 11
-69.828
 20
200.628
 21
200.28
  0
LINE
  8
0
 10
-69.828
 11
-70.245
 20
200.28
 21
200.018
  0
LINE
  8
0
 10
-70.245
 11
-70.71
 20
200.018
 21
199.855
  0
LINE
  8
0
 10
-70.71
 11
-71.2
 20
199.855
 21
199.8
  0
LINE
  8
0
 10
-71.2
 11
-71.69
 20
199.8
 21
199.855
  0
LINE
  8
0
 10
-71.69
 11
-72.155
 20
199.855
 21
200.018
  0
LINE
  8
0
 10
-72.155
 11
-72.572
 20
200.018
 21
200.28
  0
LINE
  8
0
 10
-72.572
 11
-72.92
 20
200.28
 21
200.628
  0
LINE
  8
0
 10
-72.92
 11
-73.182
 20
200.628
 21
201.045
  0
LINE
  8
0
 10
-73.182
 11
-73.345
 20
201.045
 21
201.51
  0
LINE
  8
0
 10
-73.345
 11
-73.4
 20
201.51
 21
202
  0
LINE
  8
0
 10
-40.46
 11
-40.46
 20
187.05
 21
197.05
  0
LINE
  8
0
 10
-40.46
 11
-40.405
 20
197.05
 21
197.54
  0
LINE
  8
0
 10
-40.405
 11
-40.242
 20
197.54
 21
198.005
  0
LINE
  8
0
 10
-40.242
 11
-39.98
 20
198.005
 21
198.422
  0
LINE
  8
0
 10
-39.98
 11
-39.632
 20
198.422
 21
198.77
  0
LINE
  8
0
 10
-39.632
 11
-39.215
 20
198.77
 21
199.032
  0
LINE
  8
0
 10
-39.215
 11
-38.75
 20
199.032
 21
199.195
  0
LINE
  8
0
 10
-38.75
 11
-38.26
 20
199.195
 21
199.25
  0
LINE
  8
0
 10
-38.26
 11
-37.77
 20
199.25
 21
199.195
  0
LINE
  8
0
 10
-37.77
 11
-37.305
 20
199.195
 21
199.032
  0
LINE
  8
0
 10
-37.305
 11
-36.888
 20
199.032
 21
198.77
  0
LINE
  8
0
 10
-36.888
 11
-36.54
 20
198.77
 21
198.422
  0
LINE
  8
0
 10
-36.54
 11
-36.278
 20
198.422
 21
198.005
  0
LINE
  8
0
 10
-36.278
 11
-36.115
 20
198.005
 21
197.54
  0
LINE
  8
0
 10
-36.115
 11
-36.06
 20
197.54
 21
197.05
  0
LINE
  8
0
 10
-36.06
 11
-36.06
 20
197.05
 21
187.05
  0
LINE
  8
0
 10
-36.06
 11
-36.115
 20
187.05
 21
186.56
  0
LINE
  8
0
 10
-36.115
 11
-36.278
 20
186.56
 21
186.095
  0
LINE
  8
0
 10
-36.278
 11
-36.54
 20
186.095
 21
185.678
  0
LINE
  8
0
 10
-36.54
 11
-36.888
 20
185.678
 21
185.33
  0
LINE
  8
0
 10
-36.888
 11
-37.305
 20
185.33
 21
185.068
  0
LINE
  8
0
 10
-37.305
 11
-37.77
 20
185.068
 21
184.905
  0
LINE
  8
0
 10
-37.77
 11
-38.26
 20
184.905
 21
184.85
  0
LINE
  8
0
 10
-38.26
 11
-38.75
 20
184.85
 21
184.905
  0
LINE
  8
0
 10
-38.75
 11
-39.215
 20
184.905
 21
185.068
  0
LINE
  8
0
 10
-39.215
 11
-39.632
 20
185.068
 21
185.33
  0
LINE
  8
0
 10
-39.632
 11
-39.98
 20
185.33
 21
185.678
  0
LINE
  8
0
 10
-39.98
 11
-40.242
 20
185.678
 21
186.095
  0
LINE
  8
0
 10
-40.242
 11
-40.405
 20
186.095
 21
186.56
  0
LINE
  8
0
 10
-40.405
 11
-40.46
 20
186.56
 21
187.05
  0
LINE
  8
0
 10
-30.16
 11
-30.105
 20
98
 21
98.49
  0
LINE
  8
0
 10
-30.105
 11
-29.942
 20
98.49
 21
98.955
  0
LINE
  8
0
 10
-29.942
 11
-29.68
 20
98.955
 21
99.372
  0
LINE
  8
0
 10
-29.68
 11
-29.332
 20
99.372
 21
99.72
  0
LINE
  8
0
 10
-29.332
 11
-28.915
 20
99.72
 21
99.982
  0
LINE
  8
0
 10
-28.915
 11
-28.45
 20
99.982
 21
100.145
  0
LINE
  8
0
 10
-28.45
 11
-27.96
 20
100.145
 21
100.2
  0
LINE
  8
0
 10
-27.96
 11
-27.47
 20
100.2
 21
100.145
  0
LINE
  8
0
 10
-27.47
 11
-27.005
 20
100.145
 21
99.982
  0
LINE
  8
0
 10
-27.005
 11
-26.588
 20
99.982
 21
99.72
  0
LINE
  8
0
 10
-26.588
 11
-26.24
 20
99.72
 21
99.372
  0
LINE
  8
0
 10
-26.24
 11
-25.978
 20
99.372
 21
98.955
  0
LINE
  8
0
 10
-25.978
 11
-25.815
 20
98.955
 21
98.49
  0
LINE
  8
0
 10
-25.815
 11
-25.76
 20
98.49
 21
98
  0
LINE
  8
0
 10
-25.76
 11
-25.815
 20
98
 21
97.51
  0
LINE
  8
0
 10
-25.815
 11
-25.978
 20
97.51
 21
97.045
  0
LINE
  8
0
 10
-25.978
 11
-26.24
 20
97.045
 21
96.628
  0
LINE
  8
0
 10
-26.24
 11
-26.588
 20
96.628
 21
96.28
  0
LINE
  8
0
 10
-26.588
 11
-27.005
 20
96.28
 21
96.018
  0
LINE
  8
0
 10
-27.005
 11
-27.47
 20
96.018
 21
95.855
  0
LINE
  8
0
 10
-27.47
 11
-27.96
 20
95.855
 21
95.8
  0
LINE
  8
0
 10
-27.96
 11
-28.45
 20
95.8
 21
95.855
  0
LINE
  8
0
 10
-28.45
 11
-28.915
 20
95.855
 21
96.018
  0
LINE
  8
0
 10
-28.915
 11
-29.332
 20
96.018
 21
96.28
  0
LINE
  8
0
 10
-29.332
 11
-29.68
 20
96.28
 21
96.628
  0
LINE
  8
0
 10
-29.68
 11
-29.942
 20
96.628
 21
97.045
  0
LINE
  8
0
 10
-29.942
 11
-30.105
 20
97.045
 21
97.51
  0
LINE
  8
0
 10
-30.105
 11
-30.16
 20
97.51
 21
98
  0
LINE
  8
0
 10
-21.96
 11
-21.905
 20
-202.05
 21
-201.56
  0
LINE
  8
0
 10
-21.905
 11
-21.742
 20
-201.56
 21
-201.095
  0
LINE
  8
0
 10
-21.742
 11
-21.48
 20
-201.095
 21
-200.678
  0
LINE
  8
0
 10
-21.48
 11
-21.132
 20
-200.678
 21
-200.33
  0
LINE
  8
0
 10
-21.132
 11
-20.715
 20
-200.33
 21
-200.068
  0
LINE
  8
0
 10
-20.715
 11
-20.25
 20
-200.068
 21
-199.905
  0
LINE
  8
0
 10
-20.25
 11
-19.76
 20
-199.905
 21
-199.85
  0
LINE
  8
0
 10
-19.76
 11
-19.27
 20
-199.85
 21
-199.905
  0
LINE
  8
0
 10
-19.27
 11
-18.805
 20
-199.905
 21
-200.068
  0
LINE
  8
0
 10
-18.805
 11
-18.388
 20
-200.068
 21
-200.33
  0
LINE
  8
0
 10
-18.388
 11
-18.04
 20
-200.33
 21
-200.678
  0
LINE
  8
0
 10
-18.04
 11
-17.778
 20
-200.678
 21
-201.095
  0
LINE
  8
0
 10
-17.778
 11
-17.615
 20
-201.095
 21
-201.56
  0
LINE
  8
0
 10
-17.615
 11
-17.56
 20
-201.56
 21
-202.05
  0
LINE
  8
0
 10
-17.56
 11
-17.615
 20
-202.05
 21
-202.54
  0
LINE
  8
0
 10
-17.615
 11
-17.778
 20
-202.54
 21
-203.005
  0
LINE
  8
0
 10
-17.778
 11
-18.04
 20
-203.005
 21
-203.422
  0
LINE
  8
0
 10
-18.04
 11
-18.388
 20
-203.422
 21
-203.77
  0
LINE
  8
0
 10
-18.388
 11
-18.805
 20
-203.77
 21
-204.032
  0
LINE
  8
0
 10
-18.805
 11
-19.27
 20
-204.032
 21
-204.195
  0
LINE
  8
0
 10
-19.27
 11
-19.76
 20
-204.195
 21
-204.25
  0
LINE
  8
0
 10
-19.76
 11
-20.25
 20
-204.25
 21
-204.195
  0
LINE
  8
0
 10
-20.25
 11
-20.715
 20
-204.195
 21
-204.032
  0
LINE
  8
0
 10
-20.715
 11
-21.132
 20
-204.032
 21
-203.77
  0
LINE
  8
0
 10
-21.132
 11
-21.48
 20
-203.77
 21
-203.422
  0
LINE
  8
0
 10
-21.48
 11
-21.742
 20
-203.422
 21
-203.005
  0
LINE
  8
0
 10
-21.742
 11
-21.905
 20
-203.005
 21
-202.54
  0
LINE
  8
0
 10
-21.905
 11
-21.96
 20
-202.54
 21
-202.05
  0
LINE
  8
0
 10
-21.96
 11
-21.905
 20
-140.95
 21
-140.46
  0
LINE
  8
0
 10
-21.905
 11
-21.742
 20
-140.46
 21
-139.995
  0
LINE
  8
0
 10
-21.742
 11
-21.48
 20
-139.995
 21
-139.578
  0
LINE
  8
0
 10
-21.48
 11
-21.132
 20
-139.578
 21
-139.23
  0
LINE
  8
0
 10
-21.132
 11
-20.715
 20
-139.23
 21
-138.968
  0
LINE
  8
0
 10
-20.715
 11
-20.25
 20
-138.968
 21
-138.805
  0
LINE
  8
0
 10
-20.25
 11
-19.76
 20
-138.805
 21
-138.75
  0
LINE
  8
0
 10
-19.76
 11
-19.27
 20
-138.75
 21
-138.805
  0
LINE
  8
0
 10
-19.27
 11
-18.805
 20
-138.805
 21
-138.968
  0
LINE
  8
0
 10
-18.805
 11
-18.388
 20
-138.968
 21
-139.23
  0
LINE
  8
0
 10
-18.388
 11
-18.04
 20
-139.23
 21
-139.578
  0
LINE
  8
0
 10
-18.04
 11
-17.778
 20
-139.578
 21
-139.995
  0
LINE
  8
0
 10
-17.778
 11
-17.615
 20
-139.995
 21
-140.46
  0
LINE
  8
0
 10
-17.615
 11
-17.56
 20
-140.46
 21
-140.95
  0
LINE
  8
0
 10
-17.56
 11
-17.615
 20
-140.95
 21
-141.44
  0
LINE
  8
0
 10
-17.615
 11
-17.778
 20
-141.44
 21
-141.905
  0
LINE
  8
0
 10
-17.778
 11
-18.04
 20
-141.905
 21
-142.322
  0
LINE
  8
0
 10
-18.04
 11
-18.388
 20
-142.322
 21
-142.67
  0
LINE
  8
0
 10
-18.388
 11
-18.805
 20
-142.67
 21
-142.932
  0
LINE
  8
0
 10
-18.805
 11
-19.27
 20
-142.932
 21
-143.095
  0
LINE
  8
0
 10
-19.27
 11
-19.76
 20
-143.095
 21
-143.15
  0
LINE
  8
0
 10
-19.76
 11
-20.25
 20
-143.15
 21
-143.095
  0
LINE
  8
0
 10
-20.25
 11
-20.715
 20
-143.095
 21
-142.932
  0
LINE
  8
0
 10
-20.715
 11
-21.132
 20
-142.932
 21
-142.67
  0
LINE
  8
0
 10
-21.132
 11
-21.48
 20
-142.67
 21
-142.322
  0
LINE
  8
0
 10
-21.48
 11
-21.742
 20
-142.322
 21
-141.905
  0
LINE
  8
0
 10
-21.742
 11
-21.905
 20
-141.905
 21
-141.44
  0
LINE
  8
0
 10
-21.905
 11
-21.96
 20
-141.44
 21
-140.95
  0
LINE
  8
0
 10
-235.25
 11
-235.25
 20
-184.5
 21
184.5
  0
LINE
  8
0
 10
-235.25
 11
-235.155
 20
184.5
 21
186.679
  0
LINE
  8
0
 10
-235.155
 11
-234.87
 20
186.679
 21
188.841
  0
LINE
  8
0
 10
-234.87
 11
-234.398
 20
188.841
 21
190.97
  0
LINE
  8
0
 10
-234.398
 11
-233.742
 20
190.97
 21
193.051
  0
LINE
  8
0
 10
-233.742
 11
-232.908
 20
193.051
 21
195.065
  0
LINE
  8
0
 10
-232.908
 11
-231.901
 20
195.065
 21
197
  0
LINE
  8
0
 10
-231.901
 11
-230.729
 20
197
 21
198.839
  0
LINE
  8
0
 10
-230.729
 11
-229.401
 20
198.839
 21
200.57
  0
LINE
  8
0
 10
-229.401
 11
-227.928
 20
200.57
 21
202.178
  0
LINE
  8
0
 10
-227.928
 11
-226.32
 20
202.178
 21
203.651
  0
LINE
  8
0
 10
-226.32
 11
-224.589
 20
203.651
 21
204.979
  0
LINE
  8
0
 10
-224.589
 11
-222.75
 20
204.979
 21
206.151
  0
LINE
  8
0
 10
-222.75
 11
-220.815
 20
206.151
 21
207.158
  0
LINE
  8
0
 10
-220.815
 11
-218.801
 20
207.158
 21
207.992
  0
LINE
  8
0
 10
-218.801
 11
-216.72
 20
207.992
 21
208.648
  0
LINE
  8
0
 10
-216.72
 11
-214.591
 20
208.648
 21
209.12
  0
LINE
  8
0
 10
-214.591
 11
-212.429
 20
209.12
 21
209.405
  0
LINE
  8
0
 10
-212.429
 11
-210.25
 20
209.405
 21
209.5
  0
LINE
  8
0
 10
-210.25
 11
210.25
 20
209.5
 21
209.5
  0
LINE
  8
0
 10
210.25
 11
212.429
 20
209.5
 21
209.405
  0
LINE
  8
0
 10
212.429
 11
214.591
 20
209.405
 21
209.12
  0
LINE
  8
0
 10
214.591
 11
216.72
 20
209.12
 21
208.648
  0
LINE
  8
0
 10
216.72
 11
218.801
 20
208.648
 21
207.992
  0
LINE
  8
0
 10
218.801
 11
220.815
 20
207.992
 21
207.158
  0
LINE
  8
0
 10
220.815
 11
222.75
 20
207.158
 21
206.151
  0
LINE
  8
0
 10
222.75
 11
224.589
 20
206.151
 21
204.979
  0
LINE
  8
0
 10
224.589
 11
226.32
 20
204.979
 21
203.651
  0
LINE
  8
0
 10
226.32
 11
227.928
 20
203.651
 21
202.178
  0
LINE
  8
0
 10
227.928
 11
229.401
 20
202.178
 21
200.57
  0
LINE
  8
0
 10
229.401
 11
230.729
 20
200.57
 21
198.839
  0
LINE
  8
0
 10
230.729
 11
231.901
 20
198.839
 21
197
  0
LINE
  8
0
 10
231.901
 11
232.908
 20
197
 21
195.065
  0
LINE
  8
0
 10
232.908
 11
233.742
 20
195.065
 21
193.051
  0
LINE
  8
0
 10
233.742
 11
234.398
 20
193.051
 21
190.97
  0
LINE
  8
0
 10
234.398
 11
234.87
 20
190.97
 21
188.841
  0
LINE
  8
0
 10
234.87
 11
235.155
 20
188.841
 21
186.679
  0
LINE
  8
0
 10
235.155
 11
235.25
 20
186.679
 21
184.5
  0
LINE
  8
0
 10
235.25
 11
235.25
 20
184.5
 21
-184.5
  0
LINE
  8
0
 10
235.25
 11
235.155
 20
-184.5
 21
-186.679
  0
LINE
  8
0
 10
235.155
 11
234.87
 20
-186.679
 21
-188.841
  0
LINE
  8
0
 10
234.87
 11
234.398
 20
-188.841
 21
-190.97
  0
LINE
  8
0
 10
234.398
 11
233.742
 20
-190.97
 21
-193.051
  0
LINE
  8
0
 10
233.742
 11
232.908
 20
-193.051
 21
-195.065
  0
LINE
  8
0
 10
232.908
 11
231.901
 20
-195.065
 21
-197
  0
LINE
  8
0
 10
231.901
 11
230.729
 20
-197
 21
-198.839
  0
LINE
  8
0
 10
230.729
 11
229.401
 20
-198.839
 21
-200.57
  0
LINE
  8
0
 10
229.401
 11
227.928
 20
-200.57
 21
-202.178
  0
LINE
  8
0
 10
227.928
 11
226.32
 20
-202.178
 21
-203.651
  0
LINE
  8
0
 10
226.32
 11
224.589
 20
-203.651
 21
-204.979
  0
LINE
  8
0
 10
224.589
 11
222.75
 20
-204.979
 21
-206.151
  0
LINE
  8
0
 10
222.75
 11
220.815
 20
-206.151
 21
-207.158
  0
LINE
  8
0
 10
220.815
 11
218.801
 20
-207.158
 21
-207.992
  0
LINE
  8
0
 10
218.801
 11
216.72
 20
-207.992
 21
-208.648
  0
LINE
  8
0
 10
216.72
 11
214.591
 20
-208.648
 21
-209.12
  0
LINE
  8
0
 10
214.591
 11
212.429
 20
-209.12
 21
-209.405
  0
LINE
  8
0
 10
212.429
 11
210.25
 20
-209.405
 21
-209.5
  0
LINE
  8
0
 10
210.25
 11
-210.25
 20
-209.5
 21
-209.5
  0
LINE
  8
0
 10
-210.25
 11
-212.429
 20
-209.5
 21
-209.405
  0
LINE
  8
0
 10
-212.429
 11
-214.591
 20
-209.405
 21
-209.12
  0
LINE
  8
0
 10
-214.591
 11
-216.72
 20
-209.12
 21
-208.648
  0
LINE
  8
0
 10
-216.72
 11
-218.801
 20
-208.648
 21
-207.992
  0
LINE
  8
0
 10
-218.801
 11
-220.815
 20
-207.992
 21
-207.158
  0
LINE
  8
0
 10
-220.815
 11
-222.75
 20
-207.158
 21
-206.151
  0
LINE
  8
0
 10
-222.75
 11
-224.589
 20
-206.151
 21
-204.979
  0
LINE
  8
0
 10
-224.589
 11
-226.32
 20
-204.979
 21
-203.651
  0
LINE
  8
0
 10
-226.32
 11
-227.928
 20
-203.651
 21
-202.178
  0
LINE
  8
0
 10
-227.928
 11
-229.401
 20
-202.178
 21
-200.57
  0
LINE
  8
0
 10
-229.401
 11
-230.729
 20
-200.57
 21
-198.839
  0
LINE
  8
0
 10
-230.729
 11
-231.901
 20
-198.839
 21
-197
  0
LINE
  8
0
 10
-231.901
 11
-232.908
 20
-197
 21
-195.065
  0
LINE
  8
0
 10
-232.908
 11
-233.742
 20
-195.065
 21
-193.051
  0
LINE
  8
0
 10
-233.742
 11
-234.398
 20
-193.051
 21
-190.97
  0
LINE
  8
0
 10
-234.398
 11
-234.87
 20
-190.97
 21
-188.841
  0
LINE
  8
0
 10
-234.87
 11
-235.155
 20
-188.841
 21
-186.679
  0
LINE
  8
0
 10
-235.155
 11
-235.25
 20
-186.679
 21
-184.5
  0
LINE
  8
0
 10
8.04
 11
8.095
 20
-202.05
 21
-201.56
  0
LINE
  8
0
 10
8.095
 11
8.258
 20
-201.56
 21
-201.095
  0
LINE
  8
0
 10
8.258
 11
8.52
 20
-201.095
 21
-200.678
  0
LINE
  8
0
 10
8.52
 11
8.868
 20
-200.678
 21
-200.33
  0
LINE
  8
0
 10
8.868
 11
9.285
 20
-200.33
 21
-200.068
  0
LINE
  8
0
 10
9.285
 11
9.75
 20
-200.068
 21
-199.905
  0
LINE
  8
0
 10
9.75
 11
10.24
 20
-199.905
 21
-199.85
  0
LINE
  8
0
 10
10.24
 11
10.73
 20
-199.85
 21
-199.905
  0
LINE
  8
0
 10
10.73
 11
11.195
 20
-199.905
 21
-200.068
  0
LINE
  8
0
 10
11.195
 11
11.612
 20
-200.068
 21
-200.33
  0
LINE
  8
0
 10
11.612
 11
11.96
 20
-200.33
 21
-200.678
  0
LINE
  8
0
 10
11.96
 11
12.222
 20
-200.678
 21
-201.095
  0
LINE
  8
0
 10
12.222
 11
12.385
 20
-201.095
 21
-201.56
  0
LINE
  8
0
 10
12.385
 11
12.44
 20
-201.56
 21
-202.05
  0
LINE
  8
0
 10
12.44
 11
12.385
 20
-202.05
 21
-202.54
  0
LINE
  8
0
 10
12.385
 11
12.222
 20
-202.54
 21
-203.005
  0
LINE
  8
0
 10
12.222
 11
11.96
 20
-203.005
 21
-203.422
  0
LINE
  8
0
 10
11.96
 11
11.612
 20
-203.422
 21
-203.77
  0
LINE
  8
0
 10
11.612
 11
11.195
 20
-203.77
 21
-204.032
  0
LINE
  8
0
 10
11.195
 11
10.73
 20
-204.032
 21
-204.195
  0
LINE
  8
0
 10
10.73
 11
10.24
 20
-204.195
 21
-204.25
  0
LINE
  8
0
 10
10.24
 11
9.75
 20
-204.25
 21
-204.195
  0
LINE
  8
0
 10
9.75
 11
9.285
 20
-204.195
 21
-204.032
  0
LINE
  8
0
 10
9.285
 11
8.868
 20
-204.032
 21
-203.77
  0
LINE
  8
0
 10
8.868
 11
8.52
 20
-203.77
 21
-203.422
  0
LINE
  8
0
 10
8.52
 11
8.258
 20
-203.422
 21
-203.005
  0
LINE
  8
0
 10
8.258
 11
8.095
 20
-203.005
 21
-202.54
  0
LINE
  8
0
 10
8.095
 11
8.04
 20
-202.54
 21
-202.05
  0
LINE
  8
0
 10
8.04
 11
8.095
 20
-140.95
 21
-140.46
  0
LINE
  8
0
 10
8.095
 11
8.258
 20
-140.46
 21
-139.995
  0
LINE
  8
0
 10
8.258
 11
8.52
 20
-139.995
 21
-139.578
  0
LINE
  8
0
 10
8.52
 11
8.868
 20
-139.578
 21
-139.23
  0
LINE
  8
0
 10
8.868
 11
9.285
 20
-139.23
 21
-138.968
  0
LINE
  8
0
 10
9.285
 11
9.75
 20
-138.968
 21
-138.805
  0
LINE
  8
0
 10
9.75
 11
10.24
 20
-138.805
 21
-138.75
  0
LINE
  8
0
 10
10.24
 11
10.73
 20
-138.75
 21
-138.805
  0
LINE
  8
0
 10
10.73
 11
11.195
 20
-138.805
 21
-138.968
  0
LINE
  8
0
 10
11.195
 11
11.612
 20
-138.968
 21
-139.23
  0
LINE
  8
0
 10
11.612
 11
11.96
 20
-139.23
 21
-139.578
  0
LINE
  8
0
 10
11.96
 11
12.222
 20
-139.578
 21
-139.995
  0
LINE
  8
0
 10
12.222
 11
12.385
 20
-139.995
 21
-140.46
  0
LINE
  8
0
 10
12.385
 11
12.44
 20
-140.46
 21
-140.95
  0
LINE
  8
0
 10
12.44
 11
12.385
 20
-140.95
 21
-141.44
  0
LINE
  8
0
 10
12.385
 11
12.222
 20
-141.44
 21
-141.905
  0
LINE
  8
0
 10
12.222
 11
11.96
 20
-141.905
 21
-142.322
  0
LINE
  8
0
 10
11.96
 11
11.612
 20
-142.322
 21
-142.67
  0
LINE
  8
0
 10
11.612
 11
11.195
 20
-142.67
 21
-142.932
  0
LINE
  8
0
 10
11.195
 11
10.73
 20
-142.932
 21
-143.095
  0
LINE
  8
0
 10
10.73
 11
10.24
 20
-143.095
 21
-143.15
  0
LINE
  8
0
 10
10.24
 11
9.75
 20
-143.15
 21
-143.095
  0
LINE
  8
0
 10
9.75
 11
9.285
 20
-143.095
 21
-142.932
  0
LINE
  8
0
 10
9.285
 11
8.868
 20
-142.932
 21
-142.67
  0
LINE
  8
0
 10
8.868
 11
8.52
 20
-142.67
 21
-142.322
  0
LINE
  8
0
 10
8.52
 11
8.258
 20
-142.322
 21
-141.905
  0
LINE
  8
0
 10
8.258
 11
8.095
 20
-141.905
 21
-141.44
  0
LINE
  8
0
 10
8.095
 11
8.04
 20
-141.44
 21
-140.95
  0
LINE
  8
0
 10
12.26
 11
12.315
 20
98
 21
98.49
  0
LINE
  8
0
 10
12.315
 11
12.478
 20
98.49
 21
98.955
  0
LINE
  8
0
 10
12.478
 11
12.74
 20
98.955
 21
99.372
  0
LINE
  8
0
 10
12.74
 11
13.088
 20
99.372
 21
99.72
  0
LINE
  8
0
 10
13.088
 11
13.505
 20
99.72
 21
99.982
  0
LINE
  8
0
 10
13.505
 11
13.97
 20
99.982
 21
100.145
  0
LINE
  8
0
 10
13.97
 11
14.46
 20
100.145
 21
100.2
  0
LINE
  8
0
 10
14.46
 11
14.95
 20
100.2
 21
100.145
  0
LINE
  8
0
 10
14.95
 11
15.415
 20
100.145
 21
99.982
  0
LINE
  8
0
 10
15.415
 11
15.832
 20
99.982
 21
99.72
  0
LINE
  8
0
 10
15.832
 11
16.18
 20
99.72
 21
99.372
  0
LINE
  8
0
 10
16.18
 11
16.442
 20
99.372
 21
98.955
  0
LINE
  8
0
 10
16.442
 11
16.605
 20
98.955
 21
98.49
  0
LINE
  8
0
 10
16.605
 11
16.66
 20
98.49
 21
98
  0
LINE
  8
0
 10
16.66
 11
16.605
 20
98
 21
97.51
  0
LINE
  8
0
 10
16.605
 11
16.442
 20
97.51
 21
97.045
  0
LINE
  8
0
 10
16.442
 11
16.18
 20
97.045
 21
96.628
  0
LINE
  8
0
 10
16.18
 11
15.832
 20
96.628
 21
96.28
  0
LINE
  8
0
 10
15.832
 11
15.415
 20
96.28
 21
96.018
  0
LINE
  8
0
 10
15.415
 11
14.95
 20
96.018
 21
95.855
  0
LINE
  8
0
 10
14.95
 11
14.46
 20
95.855
 21
95.8
  0
LINE
  8
0
 10
14.46
 11
13.97
 20
95.8
 21
95.855
  0
LINE
  8
0
 10
13.97
 11
13.505
 20
95.855
 21
96.018
  0
LINE
  8
0
 10
13.505
 11
13.088
 20
96.018
 21
96.28
  0
LINE
  8
0
 10
13.088
 11
12.74
 20
96.28
 21
96.628
  0
LINE
  8
0
 10
12.74
 11
12.478
 20
96.628
 21
97.045
  0
LINE
  8
0
 10
12.478
 11
12.315
 20
97.045
 21
97.51
  0
LINE
  8
0
 10
12.315
 11
12.26
 20
97.51
 21
98
  0
LINE
  8
0
 10
16.005
 11
16.046
 20
133.376
 21
133.868
  0
LINE
  8
0
 10
16.046
 11
16.244
 20
133.868
 21
134.32
  0
LINE
  8
0
 10
16.244
 11
16.579
 20
134.32
 21
134.684
  0
LINE
  8
0
 10
16.579
 11
17.013
 20
134.684
 21
134.919
  0
LINE
  8
0
 10
17.013
 11
17.5
 20
134.919
 21
135
  0
LINE
  8
0
 10
17.5
 11
17.987
 20
135
 21
134.919
  0
LINE
  8
0
 10
17.987
 11
18.421
 20
134.919
 21
134.684
  0
LINE
  8
0
 10
18.421
 11
18.756
 20
134.684
 21
134.32
  0
LINE
  8
0
 10
18.756
 11
18.954
 20
134.32
 21
133.868
  0
LINE
  8
0
 10
18.954
 11
18.995
 20
133.868
 21
133.376
  0
LINE
  8
0
 10
18.995
 11
18.874
 20
133.376
 21
132.897
  0
LINE
  8
0
 10
18.874
 11
18.604
 20
132.897
 21
132.484
  0
LINE
  8
0
 10
18.604
 11
18.214
 20
132.484
 21
132.181
  0
LINE
  8
0
 10
18.214
 11
17.747
 20
132.181
 21
132.02
  0
LINE
  8
0
 10
17.747
 11
17.253
 20
132.02
 21
132.02
  0
LINE
  8
0
 10
17.253
 11
16.786
 20
132.02
 21
132.181
  0
LINE
  8
0
 10
16.786
 11
16.396
 20
132.181
 21
132.484
  0
LINE
  8
0
 10
16.396
 11
16.126
 20
132.484
 21
132.897
  0
LINE
  8
0
 10
16.126
 11
16.005
 20
132.897
 21
133.376
  0
LINE
  8
0
 10
16.005
 11
16.046
 20
139.176
 21
139.668
  0
LINE
  8
0
 10
16.046
 11
16.244
 20
139.668
 21
140.12
  0
LINE
  8
0
 10
16.244
 11
16.579
 20
140.12
 21
140.484
  0
LINE
  8
0
 10
16.579
 11
17.013
 20
140.484
 21
140.719
  0
LINE
  8
0
 10
17.013
 11
17.5
 20
140.719
 21
140.8
  0
LINE
  8
0
 10
17.5
 11
17.987
 20
140.8
 21
140.719
  0
LINE
  8
0
 10
17.987
 11
18.421
 20
140.719
 21
140.484
  0
LINE
  8
0
 10
18.421
 11
18.756
 20
140.484
 21
140.12
  0
LINE
  8
0
 10
18.756
 11
18.954
 20
140.12
 21
139.668
  0
LINE
  8
0
 10
18.954
 11
18.995
 20
139.668
 21
139.176
  0
LINE
  8
0
 10
18.995
 11
18.874
 20
139.176
 21
138.697
  0
LINE
  8
0
 10
18.874
 11
18.604
 20
138.697
 21
138.284
  0
LINE
  8
0
 10
18.604
 11
18.214
 20
138.284
 21
137.981
  0
LINE
  8
0
 10
18.214
 11
17.747
 20
137.981
 21
137.82
  0
LINE
  8
0
 10
17.747
 11
17.253
 20
137.82
 21
137.82
  0
LINE
  8
0
 10
17.253
 11
16.786
 20
137.82
 21
137.981
  0
LINE
  8
0
 10
16.786
 11
16.396
 20
137.981
 21
138.284
  0
LINE
  8
0
 10
16.396
 11
16.126
 20
138.284
 21
138.697
  0
LINE
  8
0
 10
16.126
 11
16.005
 20
138.697
 21
139.176
  0
LINE
  8
0
 10
17.24
 11
17.288
 20
-171.5
 21
-171.012
  0
LINE
  8
0
 10
17.288
 11
17.43
 20
-171.012
 21
-170.543
  0
LINE
  8
0
 10
17.43
 11
17.661
 20
-170.543
 21
-170.111
  0
LINE
  8
0
 10
17.661
 11
17.972
 20
-170.111
 21
-169.732
  0
LINE
  8
0
 10
17.972
 11
18.351
 20
-169.732
 21
-169.421
  0
LINE
  8
0
 10
18.351
 11
18.783
 20
-169.421
 21
-169.19
  0
LINE
  8
0
 10
18.783
 11
19.252
 20
-169.19
 21
-169.048
  0
LINE
  8
0
 10
19.252
 11
19.74
 20
-169.048
 21
-169
  0
LINE
  8
0
 10
19.74
 11
20.228
 20
-169
 21
-169.048
  0
LINE
  8
0
 10
20.228
 11
20.697
 20
-169.048
 21
-169.19
  0
LINE
  8
0
 10
20.697
 11
21.129
 20
-169.19
 21
-169.421
  0
LINE
  8
0
 10
21.129
 11
21.508
 20
-169.421
 21
-169.732
  0
LINE
  8
0
 10
21.508
 11
21.819
 20
-169.732
 21
-170.111
  0
LINE
  8
0
 10
21.819
 11
22.05
 20
-170.111
 21
-170.543
  0
LINE
  8
0
 10
22.05
 11
22.192
 20
-170.543
 21
-171.012
  0
LINE
  8
0
 10
22.192
 11
22.24
 20
-171.012
 21
-171.5
  0
LINE
  8
0
 10
22.24
 11
22.192
 20
-171.5
 21
-171.988
  0
LINE
  8
0
 10
22.192
 11
22.05
 20
-171.988
 21
-172.457
  0
LINE
  8
0
 10
22.05
 11
21.819
 20
-172.457
 21
-172.889
  0
LINE
  8
0
 10
21.819
 11
21.508
 20
-172.889
 21
-173.268
  0
LINE
  8
0
 10
21.508
 11
21.129
 20
-173.268
 21
-173.579
  0
LINE
  8
0
 10
21.129
 11
20.697
 20
-173.579
 21
-173.81
  0
LINE
  8
0
 10
20.697
 11
20.228
 20
-173.81
 21
-173.952
  0
LINE
  8
0
 10
20.228
 11
19.74
 20
-173.952
 21
-174
  0
LINE
  8
0
 10
19.74
 11
19.252
 20
-174
 21
-173.952
  0
LINE
  8
0
 10
19.252
 11
18.783
 20
-173.952
 21
-173.81
  0
LINE
  8
0
 10
18.783
 11
18.351
 20
-173.81
 21
-173.579
  0
LINE
  8
0
 10
18.351
 11
17.972
 20
-173.579
 21
-173.268
  0
LINE
  8
0
 10
17.972
 11
17.661
 20
-173.268
 21
-172.889
  0
LINE
  8
0
 10
17.661
 11
17.43
 20
-172.889
 21
-172.457
  0
LINE
  8
0
 10
17.43
 11
17.288
 20
-172.457
 21
-171.988
  0
LINE
  8
0
 10
17.288
 11
17.24
 20
-171.988
 21
-171.5
  0
LINE
  8
0
 10
21.005
 11
21.126
 20
144.824
 21
145.303
  0
LINE
  8
0
 10
21.126
 11
21.396
 20
145.303
 21
145.716
  0
LINE
  8
0
 10
21.396
 11
21.786
 20
145.716
 21
146.019
  0
LINE
  8
0
 10
21.786
 11
22.253
 20
146.019
 21
146.18
  0
LINE
  8
0
 10
22.253
 11
22.747
 20
146.18
 21
146.18
  0
LINE
  8
0
 10
22.747
 11
23.214
 20
146.18
 21
146.019
  0
LINE
  8
0
 10
23.214
 11
23.604
 20
146.019
 21
145.716
  0
LINE
  8
0
 10
23.604
 11
23.874
 20
145.716
 21
145.303
  0
LINE
  8
0
 10
23.874
 11
23.995
 20
145.303
 21
144.824
  0
LINE
  8
0
 10
23.995
 11
23.954
 20
144.824
 21
144.332
  0
LINE
  8
0
 10
23.954
 11
23.756
 20
144.332
 21
143.88
  0
LINE
  8
0
 10
23.756
 11
23.421
 20
143.88
 21
143.516
  0
LINE
  8
0
 10
23.421
 11
22.987
 20
143.516
 21
143.281
  0
LINE
  8
0
 10
22.987
 11
22.5
 20
143.281
 21
143.2
  0
LINE
  8
0
 10
22.5
 11
22.013
 20
143.2
 21
143.281
  0
LINE
  8
0
 10
22.013
 11
21.579
 20
143.281
 21
143.516
  0
LINE
  8
0
 10
21.579
 11
21.244
 20
143.516
 21
143.88
  0
LINE
  8
0
 10
21.244
 11
21.046
 20
143.88
 21
144.332
  0
LINE
  8
0
 10
21.046
 11
21.005
 20
144.332
 21
144.824
  0
LINE
  8
0
 10
21.005
 11
21.126
 20
153.424
 21
153.903
  0
LINE
  8
0
 10
21.126
 11
21.396
 20
153.903
 21
154.316
  0
LINE
  8
0
 10
21.396
 11
21.786
 20
154.316
 21
154.619
  0
LINE
  8
0
 10
21.786
 11
22.253
 20
154.619
 21
154.78
  0
LINE
  8
0
 10
22.253
 11
22.747
 20
154.78
 21
154.78
  0
LINE
  8
0
 10
22.747
 11
23.214
 20
154.78
 21
154.619
  0
LINE
  8
0
 10
23.214
 11
23.604
 20
154.619
 21
154.316
  0
LINE
  8
0
 10
23.604
 11
23.874
 20
154.316
 21
153.903
  0
LINE
  8
0
 10
23.874
 11
23.995
 20
153.903
 21
153.424
  0
LINE
  8
0
 10
23.995
 11
23.954
 20
153.424
 21
152.932
  0
LINE
  8
0
 10
23.954
 11
23.756
 20
152.932
 21
152.48
  0
LINE
  8
0
 10
23.756
 11
23.421
 20
152.48
 21
152.116
  0
LINE
  8
0
 10
23.421
 11
22.987
 20
152.116
 21
151.881
  0
LINE
  8
0
 10
22.987
 11
22.5
 20
151.881
 21
151.8
  0
LINE
  8
0
 10
22.5
 11
22.013
 20
151.8
 21
151.881
  0
LINE
  8
0
 10
22.013
 11
21.579
 20
151.881
 21
152.116
  0
LINE
  8
0
 10
21.579
 11
21.244
 20
152.116
 21
152.48
  0
LINE
  8
0
 10
21.244
 11
21.046
 20
152.48
 21
152.932
  0
LINE
  8
0
 10
21.046
 11
21.005
 20
152.932
 21
153.424
  0
LINE
  8
0
 10
55.5
 11
55.555
 20
-137
 21
-136.51
  0
LINE
  8
0
 10
55.555
 11
55.718
 20
-136.51
 21
-136.045
  0
LINE
  8
0
 10
55.718
 11
55.98
 20
-136.045
 21
-135.628
  0
LINE
  8
0
 10
55.98
 11
56.328
 20
-135.628
 21
-135.28
  0
LINE
  8
0
 10
56.328
 11
56.745
 20
-135.28
 21
-135.018
  0
LINE
  8
0
 10
56.745
 11
57.21
 20
-135.018
 21
-134.855
  0
LINE
  8
0
 10
57.21
 11
57.7
 20
-134.855
 21
-134.8
  0
LINE
  8
0
 10
57.7
 11
58.19
 20
-134.8
 21
-134.855
  0
LINE
  8
0
 10
58.19
 11
58.655
 20
-134.855
 21
-135.018
  0
LINE
  8
0
 10
58.655
 11
59.072
 20
-135.018
 21
-135.28
  0
LINE
  8
0
 10
59.072
 11
59.42
 20
-135.28
 21
-135.628
  0
LINE
  8
0
 10
59.42
 11
59.682
 20
-135.628
 21
-136.045
  0
LINE
  8
0
 10
59.682
 11
59.845
 20
-136.045
 21
-136.51
  0
LINE
  8
0
 10
59.845
 11
59.9
 20
-136.51
 21
-137
  0
LINE
  8
0
 10
59.9
 11
59.845
 20
-137
 21
-137.49
  0
LINE
  8
0
 10
59.845
 11
59.682
 20
-137.49
 21
-137.955
  0
LINE
  8
0
 10
59.682
 11
59.42
 20
-137.955
 21
-138.372
  0
LINE
  8
0
 10
59.42
 11
59.072
 20
-138.372
 21
-138.72
  0
LINE
  8
0
 10
59.072
 11
58.655
 20
-138.72
 21
-138.982
  0
LINE
  8
0
 10
58.655
 11
58.19
 20
-138.982
 21
-139.145
  0
LINE
  8
0
 10
58.19
 11
57.7
 20
-139.145
 21
-139.2
  0
LINE
  8
0
 10
57.7
 11
57.21
 20
-139.2
 21
-139.145
  0
LINE
  8
0
 10
57.21
 11
56.745
 20
-139.145
 21
-138.982
  0
LINE
  8
0
 10
56.745
 11
56.328
 20
-138.982
 21
-138.72
  0
LINE
  8
0
 10
56.328
 11
55.98
 20
-138.72
 21
-138.372
  0
LINE
  8
0
 10
55.98
 11
55.718
 20
-138.372
 21
-137.955
  0
LINE
  8
0
 10
55.718
 11
55.555
 20
-137.955
 21
-137.49
  0
LINE
  8
0
 10
55.555
 11
55.5
 20
-137.49
 21
-137
  0
LINE
  8
0
 10
55.5
 11
55.555
 20
126
 21
126.49
  0
LINE
  8
0
 10
55.555
 11
55.718
 20
126.49
 21
126.955
  0
LINE
  8
0
 10
55.718
 11
55.98
 20
126.955
 21
127.372
  0
LINE
  8
0
 10
55.98
 11
56.328
 20
127.372
 21
127.72
  0
LINE
  8
0
 10
56.328
 11
56.745
 20
127.72
 21
127.982
  0
LINE
  8
0
 10
56.745
 11
57.21
 20
127.982
 21
128.145
  0
LINE
  8
0
 10
57.21
 11
57.7
 20
128.145
 21
128.2
  0
LINE
  8
0
 10
57.7
 11
58.19
 20
128.2
 21
128.145
  0
LINE
  8
0
 10
58.19
 11
58.655
 20
128.145
 21
127.982
  0
LINE
  8
0
 10
58.655
 11
59.072
 20
127.982
 21
127.72
  0
LINE
  8
0
 10
59.072
 11
59.42
 20
127.72
 21
127.372
  0
LINE
  8
0
 10
59.42
 11
59.682
 20
127.372
 21
126.955
  0
LINE
  8
0
 10
59.682
 11
59.845
 20
126.955
 21
126.49
  0
LINE
  8
0
 10
59.845
 11
59.9
 20
126.49
 21
126
  0
LINE
  8
0
 10
59.9
 11
59.845
 20
126
 21
125.51
  0
LINE
  8
0
 10
59.845
 11
59.682
 20
125.51
 21
125.045
  0
LINE
  8
0
 10
59.682
 11
59.42
 20
125.045
 21
124.628
  0
LINE
  8
0
 10
59.42
 11
59.072
 20
124.628
 21
124.28
  0
LINE
  8
0
 10
59.072
 11
58.655
 20
124.28
 21
124.018
  0
LINE
  8
0
 10
58.655
 11
58.19
 20
124.018
 21
123.855
  0
LINE
  8
0
 10
58.19
 11
57.7
 20
123.855
 21
123.8
  0
LINE
  8
0
 10
57.7
 11
57.21
 20
123.8
 21
123.855
  0
LINE
  8
0
 10
57.21
 11
56.745
 20
123.855
 21
124.018
  0
LINE
  8
0
 10
56.745
 11
56.328
 20
124.018
 21
124.28
  0
LINE
  8
0
 10
56.328
 11
55.98
 20
124.28
 21
124.628
  0
LINE
  8
0
 10
55.98
 11
55.718
 20
124.628
 21
125.045
  0
LINE
  8
0
 10
55.718
 11
55.555
 20
125.045
 21
125.51
  0
LINE
  8
0
 10
55.555
 11
55.5
 20
125.51
 21
126
  0
LINE
  8
0
 10
89.6
 11
89.655
 20
-137
 21
-136.51
  0
LINE
  8
0
 10
89.655
 11
89.818
 20
-136.51
 21
-136.045
  0
LINE
  8
0
 10
89.818
 11
90.08
 20
-136.045
 21
-135.628
  0
LINE
  8
0
 10
90.08
 11
90.428
 20
-135.628
 21
-135.28
  0
LINE
  8
0
 10
90.428
 11
90.845
 20
-135.28
 21
-135.018
  0
LINE
  8
0
 10
90.845
 11
91.31
 20
-135.018
 21
-134.855
  0
LINE
  8
0
 10
91.31
 11
91.8
 20
-134.855
 21
-134.8
  0
LINE
  8
0
 10
91.8
 11
92.29
 20
-134.8
 21
-134.855
  0
LINE
  8
0
 10
92.29
 11
92.755
 20
-134.855
 21
-135.018
  0
LINE
  8
0
 10
92.755
 11
93.172
 20
-135.018
 21
-135.28
  0
LINE
  8
0
 10
93.172
 11
93.52
 20
-135.28
 21
-135.628
  0
LINE
  8
0
 10
93.52
 11
93.782
 20
-135.628
 21
-136.045
  0
LINE
  8
0
 10
93.782
 11
93.945
 20
-136.045
 21
-136.51
  0
LINE
  8
0
 10
93.945
 11
94
 20
-136.51
 21
-137
  0
LINE
  8
0
 10
94
 11
93.945
 20
-137
 21
-137.49
  0
LINE
  8
0
 10
93.945
 11
93.782
 20
-137.49
 21
-137.955
  0
LINE
  8
0
 10
93.782
 11
93.52
 20
-137.955
 21
-138.372
  0
LINE
  8
0
 10
93.52
 11
93.172
 20
-138.372
 21
-138.72
  0
LINE
  8
0
 10
93.172
 11
92.755
 20
-138.72
 21
-138.982
  0
LINE
  8
0
 10
92.755
 11
92.29
 20
-138.982
 21
-139.145
  0
LINE
  8
0
 10
92.29
 11
91.8
 20
-139.145
 21
-139.2
  0
LINE
  8
0
 10
91.8
 11
91.31
 20
-139.2
 21
-139.145
  0
LINE
  8
0
 10
91.31
 11
90.845
 20
-139.145
 21
-138.982
  0
LINE
  8
0
 10
90.845
 11
90.428
 20
-138.982
 21
-138.72
  0
LINE
  8
0
 10
90.428
 11
90.08
 20
-138.72
 21
-138.372
  0
LINE
  8
0
 10
90.08
 11
89.818
 20
-138.372
 21
-137.955
  0
LINE
  8
0
 10
89.818
 11
89.655
 20
-137.955
 21
-137.49
  0
LINE
  8
0
 10
89.655
 11
89.6
 20
-137.49
 21
-137
  0
LINE
  8
0
 10
89.6
 11
89.655
 20
126
 21
126.49
  0
LINE
  8
0
 10
89.655
 11
89.818
 20
126.49
 21
126.955
  0
LINE
  8
0
 10
89.818
 11
90.08
 20
126.955
 21
127.372
  0
LINE
  8
0
 10
90.08
 11
90.428
 20
127.372
 21
127.72
  0
LINE
  8
0
 10
90.428
 11
90.845
 20
127.72
 21
127.982
  0
LINE
  8
0
 10
90.845
 11
91.31
 20
127.982
 21
128.145
  0
LINE
  8
0
 10
91.31
 11
91.8
 20
128.145
 21
128.2
  0
LINE
  8
0
 10
91.8
 11
92.29
 20
128.2
 21
128.145
  0
LINE
  8
0
 10
92.29
 11
92.755
 20
128.145
 21
127.982
  0
LINE
  8
0
 10
92.755
 11
93.172
 20
127.982
 21
127.72
  0
LINE
  8
0
 10
93.172
 11
93.52
 20
127.72
 21
127.372
  0
LINE
  8
0
 10
93.52
 11
93.782
 20
127.372
 21
126.955
  0
LINE
  8
0
 10
93.782
 11
93.945
 20
126.955
 21
126.49
  0
LINE
  8
0
 10
93.945
 11
94
 20
126.49
 21
126
  0
LINE
  8
0
 10
94
 11
93.945
 20
126
 21
125.51
  0
LINE
  8
0
 10
93.945
 11
93.782
 20
125.51
 21
125.045
  0
LINE
  8
0
 10
93.782
 11
93.52
 20
125.045
 21
124.628
  0
LINE
  8
0
 10
93.52
 11
93.172
 20
124.628
 21
124.28
  0
LINE
  8
0
 10
93.172
 11
92.755
 20
124.28
 21
124.018
  0
LINE
  8
0
 10
92.755
 11
92.29
 20
124.018
 21
123.855
  0
LINE
  8
0
 10
92.29
 11
91.8
 20
123.855
 21
123.8
  0
LINE
  8
0
 10
91.8
 11
91.31
 20
123.8
 21
123.855
  0
LINE
  8
0
 10
91.31
 11
90.845
 20
123.855
 21
124.018
  0
LINE
  8
0
 10
90.845
 11
90.428
 20
124.018
 21
124.28
  0
LINE
  8
0
 10
90.428
 11
90.08
 20
124.28
 21
124.628
  0
LINE
  8
0
 10
90.08
 11
89.818
 20
124.628
 21
125.045
  0
LINE
  8
0
 10
89.818
 11
89.655
 20
125.045
 21
125.51
  0
LINE
  8
0
 10
89.655
 11
89.6
 20
125.51
 21
126
  0
LINE
  8
0
 10
91.25
 11
91.308
 20
-123
 21
-122.521
  0
LINE
  8
0
 10
91.308
 11
91.479
 20
-122.521
 21
-122.071
  0
LINE
  8
0
 10
91.479
 11
91.753
 20
-122.071
 21
-121.674
  0
LINE
  8
0
 10
91.753
 11
92.114
 20
-121.674
 21
-121.354
  0
LINE
  8
0
 10
92.114
 11
92.541
 20
-121.354
 21
-121.13
  0
LINE
  8
0
 10
92.541
 11
93.009
 20
-121.13
 21
-121.015
  0
LINE
  8
0
 10
93.009
 11
93.491
 20
-121.015
 21
-121.015
  0
LINE
  8
0
 10
93.491
 11
93.959
 20
-121.015
 21
-121.13
  0
LINE
  8
0
 10
93.959
 11
94.386
 20
-121.13
 21
-121.354
  0
LINE
  8
0
 10
94.386
 11
94.747
 20
-121.354
 21
-121.674
  0
LINE
  8
0
 10
94.747
 11
95.021
 20
-121.674
 21
-122.071
  0
LINE
  8
0
 10
95.021
 11
95.192
 20
-122.071
 21
-122.521
  0
LINE
  8
0
 10
95.192
 11
95.25
 20
-122.521
 21
-123
  0
LINE
  8
0
 10
95.25
 11
95.192
 20
-123
 21
-123.479
  0
LINE
  8
0
 10
95.192
 11
95.021
 20
-123.479
 21
-123.929
  0
LINE
  8
0
 10
95.021
 11
94.747
 20
-123.929
 21
-124.326
  0
LINE
  8
0
 10
94.747
 11
94.386
 20
-124.326
 21
-124.646
  0
LINE
  8
0
 10
94.386
 11
93.959
 20
-124.646
 21
-124.87
  0
LINE
  8
0
 10
93.959
 11
93.491
 20
-124.87
 21
-124.985
  0
LINE
  8
0
 10
93.491
 11
93.009
 20
-124.985
 21
-124.985
  0
LINE
  8
0
 10
93.009
 11
92.541
 20
-124.985
 21
-124.87
  0
LINE
  8
0
 10
92.541
 11
92.114
 20
-124.87
 21
-124.646
  0
LINE
  8
0
 10
92.114
 11
91.753
 20
-124.646
 21
-124.326
  0
LINE
  8
0
 10
91.753
 11
91.479
 20
-124.326
 21
-123.929
  0
LINE
  8
0
 10
91.479
 11
91.308
 20
-123.929
 21
-123.479
  0
LINE
  8
0
 10
91.308
 11
91.25
 20
-123.479
 21
-123
  0
LINE
  8
0
 10
99.27
 11
99.27
 20
-115.747
 21
-115.253
  0
LINE
  8
0
 10
99.27
 11
99.431
 20
-115.253
 21
-114.786
  0
LINE
  8
0
 10
99.431
 11
99.734
 20
-114.786
 21
-114.396
  0
LINE
  8
0
 10
99.734
 11
100.147
 20
-114.396
 21
-114.126
  0
LINE
  8
0
 10
100.147
 11
100.626
 20
-114.126
 21
-114.005
  0
LINE
  8
0
 10
100.626
 11
101.118
 20
-114.005
 21
-114.046
  0
LINE
  8
0
 10
101.118
 11
101.57
 20
-114.046
 21
-114.244
  0
LINE
  8
0
 10
101.57
 11
101.934
 20
-114.244
 21
-114.579
  0
LINE
  8
0
 10
101.934
 11
102.169
 20
-114.579
 21
-115.013
  0
LINE
  8
0
 10
102.169
 11
102.25
 20
-115.013
 21
-115.5
  0
LINE
  8
0
 10
102.25
 11
102.169
 20
-115.5
 21
-115.987
  0
LINE
  8
0
 10
102.169
 11
101.934
 20
-115.987
 21
-116.421
  0
LINE
  8
0
 10
101.934
 11
101.57
 20
-116.421
 21
-116.756
  0
LINE
  8
0
 10
101.57
 11
101.118
 20
-116.756
 21
-116.954
  0
LINE
  8
0
 10
101.118
 11
100.626
 20
-116.954
 21
-116.995
  0
LINE
  8
0
 10
100.626
 11
100.147
 20
-116.995
 21
-116.874
  0
LINE
  8
0
 10
100.147
 11
99.734
 20
-116.874
 21
-116.604
  0
LINE
  8
0
 10
99.734
 11
99.431
 20
-116.604
 21
-116.214
  0
LINE
  8
0
 10
99.431
 11
99.27
 20
-116.214
 21
-115.747
  0
LINE
  8
0
 10
99.27
 11
99.27
 20
63.153
 21
63.647
  0
LINE
  8
0
 10
99.27
 11
99.431
 20
63.647
 21
64.114
  0
LINE
  8
0
 10
99.431
 11
99.734
 20
64.114
 21
64.504
  0
LINE
  8
0
 10
99.734
 11
100.147
 20
64.504
 21
64.774
  0
LINE
  8
0
 10
100.147
 11
100.626
 20
64.774
 21
64.895
  0
LINE
  8
0
 10
100.626
 11
101.118
 20
64.895
 21
64.854
  0
LINE
  8
0
 10
101.118
 11
101.57
 20
64.854
 21
64.656
  0
LINE
  8
0
 10
101.57
 11
101.934
 20
64.656
 21
64.321
  0
LINE
  8
0
 10
101.934
 11
102.169
 20
64.321
 21
63.887
  0
LINE
  8
0
 10
102.169
 11
102.25
 20
63.887
 21
63.4
  0
LINE
  8
0
 10
102.25
 11
102.169
 20
63.4
 21
62.913
  0
LINE
  8
0
 10
102.169
 11
101.934
 20
62.913
 21
62.479
  0
LINE
  8
0
 10
101.934
 11
101.57
 20
62.479
 21
62.144
  0
LINE
  8
0
 10
101.57
 11
101.118
 20
62.144
 21
61.946
  0
LINE
  8
0
 10
101.118
 11
100.626
 20
61.946
 21
61.905
  0
LINE
  8
0
 10
100.626
 11
100.147
 20
61.905
 21
62.026
  0
LINE
  8
0
 10
100.147
 11
99.734
 20
62.026
 21
62.296
  0
LINE
  8
0
 10
99.734
 11
99.431
 20
62.296
 21
62.686
  0
LINE
  8
0
 10
99.431
 11
99.27
 20
62.686
 21
63.153
  0
LINE
  8
0
 10
101.65
 11
101.708
 20
77.9
 21
78.379
  0
LINE
  8
0
 10
101.708
 11
101.879
 20
78.379
 21
78.829
  0
LINE
  8
0
 10
101.879
 11
102.153
 20
78.829
 21
79.226
  0
LINE
  8
0
 10
102.153
 11
102.514
 20
79.226
 21
79.546
  0
LINE
  8
0
 10
102.514
 11
102.941
 20
79.546
 21
79.77
  0
LINE
  8
0
 10
102.941
 11
103.409
 20
79.77
 21
79.885
  0
LINE
  8
0
 10
103.409
 11
103.891
 20
79.885
 21
79.885
  0
LINE
  8
0
 10
103.891
 11
104.359
 20
79.885
 21
79.77
  0
LINE
  8
0
 10
104.359
 11
104.786
 20
79.77
 21
79.546
  0
LINE
  8
0
 10
104.786
 11
105.147
 20
79.546
 21
79.226
  0
LINE
  8
0
 10
105.147
 11
105.421
 20
79.226
 21
78.829
  0
LINE
  8
0
 10
105.421
 11
105.592
 20
78.829
 21
78.379
  0
LINE
  8
0
 10
105.592
 11
105.65
 20
78.379
 21
77.9
  0
LINE
  8
0
 10
105.65
 11
105.592
 20
77.9
 21
77.421
  0
LINE
  8
0
 10
105.592
 11
105.421
 20
77.421
 21
76.971
  0
LINE
  8
0
 10
105.421
 11
105.147
 20
76.971
 21
76.574
  0
LINE
  8
0
 10
105.147
 11
104.786
 20
76.574
 21
76.254
  0
LINE
  8
0
 10
104.786
 11
104.359
 20
76.254
 21
76.03
  0
LINE
  8
0
 10
104.359
 11
103.891
 20
76.03
 21
75.915
  0
LINE
  8
0
 10
103.891
 11
103.409
 20
75.915
 21
75.915
  0
LINE
  8
0
 10
103.409
 11
102.941
 20
75.915
 21
76.03
  0
LINE
  8
0
 10
102.941
 11
102.514
 20
76.03
 21
76.254
  0
LINE
  8
0
 10
102.514
 11
102.153
 20
76.254
 21
76.574
  0
LINE
  8
0
 10
102.153
 11
101.879
 20
76.574
 21
76.971
  0
LINE
  8
0
 10
101.879
 11
101.708
 20
76.971
 21
77.421
  0
LINE
  8
0
 10
101.708
 11
101.65
 20
77.421
 21
77.9
  0
LINE
  8
0
 10
105.07
 11
105.07
 20
-115.747
 21
-115.253
  0
LINE
  8
0
 10
105.07
 11
105.231
 20
-115.253
 21
-114.786
  0
LINE
  8
0
 10
105.231
 11
105.534
 20
-114.786
 21
-114.396
  0
LINE
  8
0
 10
105.534
 11
105.947
 20
-114.396
 21
-114.126
  0
LINE
  8
0
 10
105.947
 11
106.426
 20
-114.126
 21
-114.005
  0
LINE
  8
0
 10
106.426
 11
106.918
 20
-114.005
 21
-114.046
  0
LINE
  8
0
 10
106.918
 11
107.37
 20
-114.046
 21
-114.244
  0
LINE
  8
0
 10
107.37
 11
107.734
 20
-114.244
 21
-114.579
  0
LINE
  8
0
 10
107.734
 11
107.969
 20
-114.579
 21
-115.013
  0
LINE
  8
0
 10
107.969
 11
108.05
 20
-115.013
 21
-115.5
  0
LINE
  8
0
 10
108.05
 11
107.969
 20
-115.5
 21
-115.987
  0
LINE
  8
0
 10
107.969
 11
107.734
 20
-115.987
 21
-116.421
  0
LINE
  8
0
 10
107.734
 11
107.37
 20
-116.421
 21
-116.756
  0
LINE
  8
0
 10
107.37
 11
106.918
 20
-116.756
 21
-116.954
  0
LINE
  8
0
 10
106.918
 11
106.426
 20
-116.954
 21
-116.995
  0
LINE
  8
0
 10
106.426
 11
105.947
 20
-116.995
 21
-116.874
  0
LINE
  8
0
 10
105.947
 11
105.534
 20
-116.874
 21
-116.604
  0
LINE
  8
0
 10
105.534
 11
105.231
 20
-116.604
 21
-116.214
  0
LINE
  8
0
 10
105.231
 11
105.07
 20
-116.214
 21
-115.747
  0
LINE
  8
0
 10
105.07
 11
105.07
 20
63.153
 21
63.647
  0
LINE
  8
0
 10
105.07
 11
105.231
 20
63.647
 21
64.114
  0
LINE
  8
0
 10
105.231
 11
105.534
 20
64.114
 21
64.504
  0
LINE
  8
0
 10
105.534
 11
105.947
 20
64.504
 21
64.774
  0
LINE
  8
0
 10
105.947
 11
106.426
 20
64.774
 21
64.895
  0
LINE
  8
0
 10
106.426
 11
106.918
 20
64.895
 21
64.854
  0
LINE
  8
0
 10
106.918
 11
107.37
 20
64.854
 21
64.656
  0
LINE
  8
0
 10
107.37
 11
107.734
 20
64.656
 21
64.321
  0
LINE
  8
0
 10
107.734
 11
107.969
 20
64.321
 21
63.887
  0
LINE
  8
0
 10
107.969
 11
108.05
 20
63.887
 21
63.4
  0
LINE
  8
0
 10
108.05
 11
107.969
 20
63.4
 21
62.913
  0
LINE
  8
0
 10
107.969
 11
107.734
 20
62.913
 21
62.479
  0
LINE
  8
0
 10
107.734
 11
107.37
 20
62.479
 21
62.144
  0
LINE
  8
0
 10
107.37
 11
106.918
 20
62.144
 21
61.946
  0
LINE
  8
0
 10
106.918
 11
106.426
 20
61.946
 21
61.905
  0
LINE
  8
0
 10
106.426
 11
105.947
 20
61.905
 21
62.026
  0
LINE
  8
0
 10
105.947
 11
105.534
 20
62.026
 21
62.296
  0
LINE
  8
0
 10
105.534
 11
105.231
 20
62.296
 21
62.686
  0
LINE
  8
0
 10
105.231
 11
105.07
 20
62.686
 21
63.153
  0
LINE
  8
0
 10
110.45
 11
110.531
 20
-120.5
 21
-120.013
  0
LINE
  8
0
 10
110.531
 11
110.766
 20
-120.013
 21
-119.579
  0
LINE
  8
0
 10
110.766
 11
111.13
 20
-119.579
 21
-119.244
  0
LINE
  8
0
 10
111.13
 11
111.582
 20
-119.244
 21
-119.046
  0
LINE
  8
0
 10
111.582
 11
112.074
 20
-119.046
 21
-119.005
  0
LINE
  8
0
 10
112.074
 11
112.553
 20
-119.005
 21
-119.126
  0
LINE
  8
0
 10
112.553
 11
112.966
 20
-119.126
 21
-119.396
  0
LINE
  8
0
 10
112.966
 11
113.269
 20
-119.396
 21
-119.786
  0
LINE
  8
0
 10
113.269
 11
113.43
 20
-119.786
 21
-120.253
  0
LINE
  8
0
 10
113.43
 11
113.43
 20
-120.253
 21
-120.747
  0
LINE
  8
0
 10
113.43
 11
113.269
 20
-120.747
 21
-121.214
  0
LINE
  8
0
 10
113.269
 11
112.966
 20
-121.214
 21
-121.604
  0
LINE
  8
0
 10
112.966
 11
112.553
 20
-121.604
 21
-121.874
  0
LINE
  8
0
 10
112.553
 11
112.074
 20
-121.874
 21
-121.995
  0
LINE
  8
0
 10
112.074
 11
111.582
 20
-121.995
 21
-121.954
  0
LINE
  8
0
 10
111.582
 11
111.13
 20
-121.954
 21
-121.756
  0
LINE
  8
0
 10
111.13
 11
110.766
 20
-121.756
 21
-121.421
  0
LINE
  8
0
 10
110.766
 11
110.531
 20
-121.421
 21
-120.987
  0
LINE
  8
0
 10
110.531
 11
110.45
 20
-120.987
 21
-120.5
  0
LINE
  8
0
 10
110.45
 11
110.531
 20
58.4
 21
58.887
  0
LINE
  8
0
 10
110.531
 11
110.766
 20
58.887
 21
59.321
  0
LINE
  8
0
 10
110.766
 11
111.13
 20
59.321
 21
59.656
  0
LINE
  8
0
 10
111.13
 11
111.582
 20
59.656
 21
59.854
  0
LINE
  8
0
 10
111.582
 11
112.074
 20
59.854
 21
59.895
  0
LINE
  8
0
 10
112.074
 11
112.553
 20
59.895
 21
59.774
  0
LINE
  8
0
 10
112.553
 11
112.966
 20
59.774
 21
59.504
  0
LINE
  8
0
 10
112.966
 11
113.269
 20
59.504
 21
59.114
  0
LINE
  8
0
 10
113.269
 11
113.43
 20
59.114
 21
58.647
  0
LINE
  8
0
 10
113.43
 11
113.43
 20
58.647
 21
58.153
  0
LINE
  8
0
 10
113.43
 11
113.269
 20
58.153
 21
57.686
  0
LINE
  8
0
 10
113.269
 11
112.966
 20
57.686
 21
57.296
  0
LINE
  8
0
 10
112.966
 11
112.553
 20
57.296
 21
57.026
  0
LINE
  8
0
 10
112.553
 11
112.074
 20
57.026
 21
56.905
  0
LINE
  8
0
 10
112.074
 11
111.582
 20
56.905
 21
56.946
  0
LINE
  8
0
 10
111.582
 11
111.13
 20
56.946
 21
57.144
  0
LINE
  8
0
 10
111.13
 11
110.766
 20
57.144
 21
57.479
  0
LINE
  8
0
 10
110.766
 11
110.531
 20
57.479
 21
57.913
  0
LINE
  8
0
 10
110.531
 11
110.45
 20
57.913
 21
58.4
  0
LINE
  8
0
 10
112.35
 11
112.398
 20
68.4
 21
68.888
  0
LINE
  8
0
 10
112.398
 11
112.54
 20
68.888
 21
69.357
  0
LINE
  8
0
 10
112.54
 11
112.771
 20
69.357
 21
69.789
  0
LINE
  8
0
 10
112.771
 11
113.082
 20
69.789
 21
70.168
  0
LINE
  8
0
 10
113.082
 11
113.461
 20
70.168
 21
70.479
  0
LINE
  8
0
 10
113.461
 11
113.893
 20
70.479
 21
70.71
  0
LINE
  8
0
 10
113.893
 11
114.362
 20
70.71
 21
70.852
  0
LINE
  8
0
 10
114.362
 11
114.85
 20
70.852
 21
70.9
  0
LINE
  8
0
 10
114.85
 11
115.338
 20
70.9
 21
70.852
  0
LINE
  8
0
 10
115.338
 11
115.807
 20
70.852
 21
70.71
  0
LINE
  8
0
 10
115.807
 11
116.239
 20
70.71
 21
70.479
  0
LINE
  8
0
 10
116.239
 11
116.618
 20
70.479
 21
70.168
  0
LINE
  8
0
 10
116.618
 11
116.929
 20
70.168
 21
69.789
  0
LINE
  8
0
 10
116.929
 11
117.16
 20
69.789
 21
69.357
  0
LINE
  8
0
 10
117.16
 11
117.302
 20
69.357
 21
68.888
  0
LINE
  8
0
 10
117.302
 11
117.35
 20
68.888
 21
68.4
  0
LINE
  8
0
 10
117.35
 11
117.302
 20
68.4
 21
67.912
  0
LINE
  8
0
 10
117.302
 11
117.16
 20
67.912
 21
67.443
  0
LINE
  8
0
 10
117.16
 11
116.929
 20
67.443
 21
67.011
  0
LINE
  8
0
 10
116.929
 11
116.618
 20
67.011
 21
66.632
  0
LINE
  8
0
 10
116.618
 11
116.239
 20
66.632
 21
66.321
  0
LINE
  8
0
 10
116.239
 11
115.807
 20
66.321
 21
66.09
  0
LINE
  8
0
 10
115.807
 11
115.338
 20
66.09
 21
65.948
  0
LINE
  8
0
 10
115.338
 11
114.85
 20
65.948
 21
65.9
  0
LINE
  8
0
 10
114.85
 11
114.362
 20
65.9
 21
65.948
  0
LINE
  8
0
 10
114.362
 11
113.893
 20
65.948
 21
66.09
  0
LINE
  8
0
 10
113.893
 11
113.461
 20
66.09
 21
66.321
  0
LINE
  8
0
 10
113.461
 11
113.082
 20
66.321
 21
66.632
  0
LINE
  8
0
 10
113.082
 11
112.771
 20
66.632
 21
67.011
  0
LINE
  8
0
 10
112.771
 11
112.54
 20
67.011
 21
67.443
  0
LINE
  8
0
 10
112.54
 11
112.398
 20
67.443
 21
67.912
  0
LINE
  8
0
 10
112.398
 11
112.35
 20
67.912
 21
68.4
  0
LINE
  8
0
 10
116.25
 11
116.331
 20
-120.5
 21
-120.013
  0
LINE
  8
0
 10
116.331
 11
116.566
 20
-120.013
 21
-119.579
  0
LINE
  8
0
 10
116.566
 11
116.93
 20
-119.579
 21
-119.244
  0
LINE
  8
0
 10
116.93
 11
117.382
 20
-119.244
 21
-119.046
  0
LINE
  8
0
 10
117.382
 11
117.874
 20
-119.046
 21
-119.005
  0
LINE
  8
0
 10
117.874
 11
118.353
 20
-119.005
 21
-119.126
  0
LINE
  8
0
 10
118.353
 11
118.766
 20
-119.126
 21
-119.396
  0
LINE
  8
0
 10
118.766
 11
119.069
 20
-119.396
 21
-119.786
  0
LINE
  8
0
 10
119.069
 11
119.23
 20
-119.786
 21
-120.253
  0
LINE
  8
0
 10
119.23
 11
119.23
 20
-120.253
 21
-120.747
  0
LINE
  8
0
 10
119.23
 11
119.069
 20
-120.747
 21
-121.214
  0
LINE
  8
0
 10
119.069
 11
118.766
 20
-121.214
 21
-121.604
  0
LINE
  8
0
 10
118.766
 11
118.353
 20
-121.604
 21
-121.874
  0
LINE
  8
0
 10
118.353
 11
117.874
 20
-121.874
 21
-121.995
  0
LINE
  8
0
 10
117.874
 11
117.382
 20
-121.995
 21
-121.954
  0
LINE
  8
0
 10
117.382
 11
116.93
 20
-121.954
 21
-121.756
  0
LINE
  8
0
 10
116.93
 11
116.566
 20
-121.756
 21
-121.421
  0
LINE
  8
0
 10
116.566
 11
116.331
 20
-121.421
 21
-120.987
  0
LINE
  8
0
 10
116.331
 11
116.25
 20
-120.987
 21
-120.5
  0
LINE
  8
0
 10
116.25
 11
116.331
 20
58.4
 21
58.887
  0
LINE
  8
0
 10
116.331
 11
116.566
 20
58.887
 21
59.321
  0
LINE
  8
0
 10
116.566
 11
116.93
 20
59.321
 21
59.656
  0
LINE
  8
0
 10
116.93
 11
117.382
 20
59.656
 21
59.854
  0
LINE
  8
0
 10
117.382
 11
117.874
 20
59.854
 21
59.895
  0
LINE
  8
0
 10
117.874
 11
118.353
 20
59.895
 21
59.774
  0
LINE
  8
0
 10
118.353
 11
118.766
 20
59.774
 21
59.504
  0
LINE
  8
0
 10
118.766
 11
119.069
 20
59.504
 21
59.114
  0
LINE
  8
0
 10
119.069
 11
119.23
 20
59.114
 21
58.647
  0
LINE
  8
0
 10
119.23
 11
119.23
 20
58.647
 21
58.153
  0
LINE
  8
0
 10
119.23
 11
119.069
 20
58.153
 21
57.686
  0
LINE
  8
0
 10
119.069
 11
118.766
 20
57.686
 21
57.296
  0
LINE
  8
0
 10
118.766
 11
118.353
 20
57.296
 21
57.026
  0
LINE
  8
0
 10
118.353
 11
117.874
 20
57.026
 21
56.905
  0
LINE
  8
0
 10
117.874
 11
117.382
 20
56.905
 21
56.946
  0
LINE
  8
0
 10
117.382
 11
116.93
 20
56.946
 21
57.144
  0
LINE
  8
0
 10
116.93
 11
116.566
 20
57.144
 21
57.479
  0
LINE
  8
0
 10
116.566
 11
116.331
 20
57.479
 21
57.913
  0
LINE
  8
0
 10
116.331
 11
116.25
 20
57.913
 21
58.4
  0
LINE
  8
0
 10
126.3
 11
126.355
 20
-190.19
 21
-189.7
  0
LINE
  8
0
 10
126.355
 11
126.518
 20
-189.7
 21
-189.235
  0
LINE
  8
0
 10
126.518
 11
126.78
 20
-189.235
 21
-188.818
  0
LINE
  8
0
 10
126.78
 11
127.128
 20
-188.818
 21
-188.47
  0
LINE
  8
0
 10
127.128
 11
127.545
 20
-188.47
 21
-188.208
  0
LINE
  8
0
 10
127.545
 11
128.01
 20
-188.208
 21
-188.045
  0
LINE
  8
0
 10
128.01
 11
128.5
 20
-188.045
 21
-187.99
  0
LINE
  8
0
 10
128.5
 11
128.99
 20
-187.99
 21
-188.045
  0
LINE
  8
0
 10
128.99
 11
129.455
 20
-188.045
 21
-188.208
  0
LINE
  8
0
 10
129.455
 11
129.872
 20
-188.208
 21
-188.47
  0
LINE
  8
0
 10
129.872
 11
130.22
 20
-188.47
 21
-188.818
  0
LINE
  8
0
 10
130.22
 11
130.482
 20
-188.818
 21
-189.235
  0
LINE
  8
0
 10
130.482
 11
130.645
 20
-189.235
 21
-189.7
  0
LINE
  8
0
 10
130.645
 11
130.7
 20
-189.7
 21
-190.19
  0
LINE
  8
0
 10
130.7
 11
130.645
 20
-190.19
 21
-190.68
  0
LINE
  8
0
 10
130.645
 11
130.482
 20
-190.68
 21
-191.145
  0
LINE
  8
0
 10
130.482
 11
130.22
 20
-191.145
 21
-191.562
  0
LINE
  8
0
 10
130.22
 11
129.872
 20
-191.562
 21
-191.91
  0
LINE
  8
0
 10
129.872
 11
129.455
 20
-191.91
 21
-192.172
  0
LINE
  8
0
 10
129.455
 11
128.99
 20
-192.172
 21
-192.335
  0
LINE
  8
0
 10
128.99
 11
128.5
 20
-192.335
 21
-192.39
  0
LINE
  8
0
 10
128.5
 11
128.01
 20
-192.39
 21
-192.335
  0
LINE
  8
0
 10
128.01
 11
127.545
 20
-192.335
 21
-192.172
  0
LINE
  8
0
 10
127.545
 11
127.128
 20
-192.172
 21
-191.91
  0
LINE
  8
0
 10
127.128
 11
126.78
 20
-191.91
 21
-191.562
  0
LINE
  8
0
 10
126.78
 11
126.518
 20
-191.562
 21
-191.145
  0
LINE
  8
0
 10
126.518
 11
126.355
 20
-191.145
 21
-190.68
  0
LINE
  8
0
 10
126.355
 11
126.3
 20
-190.68
 21
-190.19
  0
LINE
  8
0
 10
126.3
 11
126.355
 20
190.19
 21
190.68
  0
LINE
  8
0
 10
126.355
 11
126.518
 20
190.68
 21
191.145
  0
LINE
  8
0
 10
126.518
 11
126.78
 20
191.145
 21
191.562
  0
LINE
  8
0
 10
126.78
 11
127.128
 20
191.562
 21
191.91
  0
LINE
  8
0
 10
127.128
 11
127.545
 20
191.91
 21
192.172
  0
LINE
  8
0
 10
127.545
 11
128.01
 20
192.172
 21
192.335
  0
LINE
  8
0
 10
128.01
 11
128.5
 20
192.335
 21
192.39
  0
LINE
  8
0
 10
128.5
 11
128.99
 20
192.39
 21
192.335
  0
LINE
  8
0
 10
128.99
 11
129.455
 20
192.335
 21
192.172
  0
LINE
  8
0
 10
129.455
 11
129.872
 20
192.172
 21
191.91
  0
LINE
  8
0
 10
129.872
 11
130.22
 20
191.91
 21
191.562
  0
LINE
  8
0
 10
130.22
 11
130.482
 20
191.562
 21
191.145
  0
LINE
  8
0
 10
130.482
 11
130.645
 20
191.145
 21
190.68
  0
LINE
  8
0
 10
130.645
 11
130.7
 20
190.68
 21
190.19
  0
LINE
  8
0
 10
130.7
 11
130.645
 20
190.19
 21
189.7
  0
LINE
  8
0
 10
130.645
 11
130.482
 20
189.7
 21
189.235
  0
LINE
  8
0
 10
130.482
 11
130.22
 20
189.235
 21
188.818
  0
LINE
  8
0
 10
130.22
 11
129.872
 20
188.818
 21
188.47
  0
LINE
  8
0
 10
129.872
 11
129.455
 20
188.47
 21
188.208
  0
LINE
  8
0
 10
129.455
 11
128.99
 20
188.208
 21
188.045
  0
LINE
  8
0
 10
128.99
 11
128.5
 20
188.045
 21
187.99
  0
LINE
  8
0
 10
128.5
 11
128.01
 20
187.99
 21
188.045
  0
LINE
  8
0
 10
128.01
 11
127.545
 20
188.045
 21
188.208
  0
LINE
  8
0
 10
127.545
 11
127.128
 20
188.208
 21
188.47
  0
LINE
  8
0
 10
127.128
 11
126.78
 20
188.47
 21
188.818
  0
LINE
  8
0
 10
126.78
 11
126.518
 20
188.818
 21
189.235
  0
LINE
  8
0
 10
126.518
 11
126.355
 20
189.235
 21
189.7
  0
LINE
  8
0
 10
126.355
 11
126.3
 20
189.7
 21
190.19
  0
LINE
  8
0
 10
157.258
 11
157.258
 20
-0.246
 21
0.246
  0
LINE
  8
0
 10
157.258
 11
157.318
 20
0.246
 21
0.735
  0
LINE
  8
0
 10
157.318
 11
157.438
 20
0.735
 21
1.213
  0
LINE
  8
0
 10
157.438
 11
157.616
 20
1.213
 21
1.672
  0
LINE
  8
0
 10
157.616
 11
157.849
 20
1.672
 21
2.106
  0
LINE
  8
0
 10
157.849
 11
158.134
 20
2.106
 21
2.508
  0
LINE
  8
0
 10
158.134
 11
158.465
 20
2.508
 21
2.872
  0
LINE
  8
0
 10
158.465
 11
158.839
 20
2.872
 21
3.192
  0
LINE
  8
0
 10
158.839
 11
159.25
 20
3.192
 21
3.464
  0
LINE
  8
0
 10
159.25
 11
159.691
 20
3.464
 21
3.684
  0
LINE
  8
0
 10
159.691
 11
160.155
 20
3.684
 21
3.847
  0
LINE
  8
0
 10
160.155
 11
160.636
 20
3.847
 21
3.953
  0
LINE
  8
0
 10
160.636
 11
161.127
 20
3.953
 21
3.998
  0
LINE
  8
0
 10
161.127
 11
161.619
 20
3.998
 21
3.983
  0
LINE
  8
0
 10
161.619
 11
162.106
 20
3.983
 21
3.907
  0
LINE
  8
0
 10
162.106
 11
162.579
 20
3.907
 21
3.773
  0
LINE
  8
0
 10
162.579
 11
163.033
 20
3.773
 21
3.581
  0
LINE
  8
0
 10
163.033
 11
163.459
 20
3.581
 21
3.334
  0
LINE
  8
0
 10
163.459
 11
163.852
 20
3.334
 21
3.038
  0
LINE
  8
0
 10
163.852
 11
164.206
 20
3.038
 21
2.695
  0
LINE
  8
0
 10
164.206
 11
164.515
 20
2.695
 21
2.311
  0
LINE
  8
0
 10
164.515
 11
164.774
 20
2.311
 21
1.892
  0
LINE
  8
0
 10
164.774
 11
164.98
 20
1.892
 21
1.445
  0
LINE
  8
0
 10
164.98
 11
165.129
 20
1.445
 21
0.976
  0
LINE
  8
0
 10
165.129
 11
165.22
 20
0.976
 21
0.492
  0
LINE
  8
0
 10
165.22
 11
165.25
 20
0.492
 21
0
  0
LINE
  8
0
 10
165.25
 11
165.22
 20
0
 21
-0.492
  0
LINE
  8
0
 10
165.22
 11
165.129
 20
-0.492
 21
-0.976
  0
LINE
  8
0
 10
165.129
 11
164.98
 20
-0.976
 21
-1.445
  0
LINE
  8
0
 10
164.98
 11
164.774
 20
-1.445
 21
-1.892
  0
LINE
  8
0
 10
164.774
 11
164.515
 20
-1.892
 21
-2.311
  0
LINE
  8
0
 10
164.515
 11
164.206
 20
-2.311
 21
-2.695
  0
LINE
  8
0
 10
164.206
 11
163.852
 20
-2.695
 21
-3.038
  0
LINE
  8
0
 10
163.852
 11
163.459
 20
-3.038
 21
-3.334
  0
LINE
  8
0
 10
163.459
 11
163.033
 20
-3.334
 21
-3.581
  0
LINE
  8
0
 10
163.033
 11
162.579
 20
-3.581
 21
-3.773
  0
LINE
  8
0
 10
162.579
 11
162.106
 20
-3.773
 21
-3.907
  0
LINE
  8
0
 10
162.106
 11
161.619
 20
-3.907
 21
-3.983
  0
LINE
  8
0
 10
161.619
 11
161.127
 20
-3.983
 21
-3.998
  0
LINE
  8
0
 10
161.127
 11
160.636
 20
-3.998
 21
-3.953
  0
LINE
  8
0
 10
160.636
 11
160.155
 20
-3.953
 21
-3.847
  0
LINE
  8
0
 10
160.155
 11
159.691
 20
-3.847
 21
-3.684
  0
LINE
  8
0
 10
159.691
 11
159.25
 20
-3.684
 21
-3.464
  0
LINE
  8
0
 10
159.25
 11
158.839
 20
-3.464
 21
-3.192
  0
LINE
  8
0
 10
158.839
 11
158.465
 20
-3.192
 21
-2.872
  0
LINE
  8
0
 10
158.465
 11
158.134
 20
-2.872
 21
-2.508
  0
LINE
  8
0
 10
158.134
 11
157.849
 20
-2.508
 21
-2.106
  0
LINE
  8
0
 10
157.849
 11
157.616
 20
-2.106
 21
-1.672
  0
LINE
  8
0
 10
157.616
 11
157.438
 20
-1.672
 21
-1.213
  0
LINE
  8
0
 10
157.438
 11
157.318
 20
-1.213
 21
-0.735
  0
LINE
  8
0
 10
157.318
 11
157.258
 20
-0.735
 21
-0.246
  0
LINE
  8
0
 10
157.81
 11
157.865
 20
58.7
 21
59.19
  0
LINE
  8
0
 10
157.865
 11
158.028
 20
59.19
 21
59.655
  0
LINE
  8
0
 10
158.028
 11
158.29
 20
59.655
 21
60.072
  0
LINE
  8
0
 10
158.29
 11
158.638
 20
60.072
 21
60.42
  0
LINE
  8
0
 10
158.638
 11
159.055
 20
60.42
 21
60.682
  0
LINE
  8
0
 10
159.055
 11
159.52
 20
60.682
 21
60.845
  0
LINE
  8
0
 10
159.52
 11
160.01
 20
60.845
 21
60.9
  0
LINE
  8
0
 10
160.01
 11
160.5
 20
60.9
 21
60.845
  0
LINE
  8
0
 10
160.5
 11
160.965
 20
60.845
 21
60.682
  0
LINE
  8
0
 10
160.965
 11
161.382
 20
60.682
 21
60.42
  0
LINE
  8
0
 10
161.382
 11
161.73
 20
60.42
 21
60.072
  0
LINE
  8
0
 10
161.73
 11
161.992
 20
60.072
 21
59.655
  0
LINE
  8
0
 10
161.992
 11
162.155
 20
59.655
 21
59.19
  0
LINE
  8
0
 10
162.155
 11
162.21
 20
59.19
 21
58.7
  0
LINE
  8
0
 10
162.21
 11
162.155
 20
58.7
 21
58.21
  0
LINE
  8
0
 10
162.155
 11
161.992
 20
58.21
 21
57.745
  0
LINE
  8
0
 10
161.992
 11
161.73
 20
57.745
 21
57.328
  0
LINE
  8
0
 10
161.73
 11
161.382
 20
57.328
 21
56.98
  0
LINE
  8
0
 10
161.382
 11
160.965
 20
56.98
 21
56.718
  0
LINE
  8
0
 10
160.965
 11
160.5
 20
56.718
 21
56.555
  0
LINE
  8
0
 10
160.5
 11
160.01
 20
56.555
 21
56.5
  0
LINE
  8
0
 10
160.01
 11
159.52
 20
56.5
 21
56.555
  0
LINE
  8
0
 10
159.52
 11
159.055
 20
56.555
 21
56.718
  0
LINE
  8
0
 10
159.055
 11
158.638
 20
56.718
 21
56.98
  0
LINE
  8
0
 10
158.638
 11
158.29
 20
56.98
 21
57.328
  0
LINE
  8
0
 10
158.29
 11
158.028
 20
57.328
 21
57.745
  0
LINE
  8
0
 10
158.028
 11
157.865
 20
57.745
 21
58.21
  0
LINE
  8
0
 10
157.865
 11
157.81
 20
58.21
 21
58.7
  0
LINE
  8
0
 10
213.74
 11
213.795
 20
58.7
 21
59.19
  0
LINE
  8
0
 10
213.795
 11
213.958
 20
59.19
 21
59.655
  0
LINE
  8
0
 10
213.958
 11
214.22
 20
59.655
 21
60.072
  0
LINE
  8
0
 10
214.22
 11
214.568
 20
60.072
 21
60.42
  0
LINE
  8
0
 10
214.568
 11
214.985
 20
60.42
 21
60.682
  0
LINE
  8
0
 10
214.985
 11
215.45
 20
60.682
 21
60.845
  0
LINE
  8
0
 10
215.45
 11
215.94
 20
60.845
 21
60.9
  0
LINE
  8
0
 10
215.94
 11
216.43
 20
60.9
 21
60.845
  0
LINE
  8
0
 10
216.43
 11
216.895
 20
60.845
 21
60.682
  0
LINE
  8
0
 10
216.895
 11
217.312
 20
60.682
 21
60.42
  0
LINE
  8
0
 10
217.312
 11
217.66
 20
60.42
 21
60.072
  0
LINE
  8
0
 10
217.66
 11
217.922
 20
60.072
 21
59.655
  0
LINE
  8
0
 10
217.922
 11
218.085
 20
59.655
 21
59.19
  0
LINE
  8
0
 10
218.085
 11
218.14
 20
59.19
 21
58.7
  0
LINE
  8
0
 10
218.14
 11
218.085
 20
58.7
 21
58.21
  0
LINE
  8
0
 10
218.085
 11
217.922
 20
58.21
 21
57.745
  0
LINE
  8
0
 10
217.922
 11
217.66
 20
57.745
 21
57.328
  0
LINE
  8
0
 10
217.66
 11
217.312
 20
57.328
 21
56.98
  0
LINE
  8
0
 10
217.312
 11
216.895
 20
56.98
 21
56.718
  0
LINE
  8
0
 10
216.895
 11
216.43
 20
56.718
 21
56.555
  0
LINE
  8
0
 10
216.43
 11
215.94
 20
56.555
 21
56.5
  0
LINE
  8
0
 10
215.94
 11
215.45
 20
56.5
 21
56.555
  0
LINE
  8
0
 10
215.45
 11
214.985
 20
56.555
 21
56.718
  0
LINE
  8
0
 10
214.985
 11
214.568
 20
56.718
 21
56.98
  0
LINE
  8
0
 10
214.568
 11
214.22
 20
56.98
 21
57.328
  0
LINE
  8
0
 10
214.22
 11
213.958
 20
57.328
 21
57.745
  0
LINE
  8
0
 10
213.958
 11
213.795
 20
57.745
 21
58.21
  0
LINE
  8
0
 10
213.795
 11
213.74
 20
58.21
 21
58.7
  0
LINE
  8
0
 10
220.85
 11
220.905
 20
75.45
 21
75.94
  0
LINE
  8
0
 10
220.905
 11
221.068
 20
75.94
 21
76.405
  0
LINE
  8
0
 10
221.068
 11
221.33
 20
76.405
 21
76.822
  0
LINE
  8
0
 10
221.33
 11
221.678
 20
76.822
 21
77.17
  0
LINE
  8
0
 10
221.678
 11
222.095
 20
77.17
 21
77.432
  0
LINE
  8
0
 10
222.095
 11
222.56
 20
77.432
 21
77.595
  0
LINE
  8
0
 10
222.56
 11
223.05
 20
77.595
 21
77.65
  0
LINE
  8
0
 10
223.05
 11
223.54
 20
77.65
 21
77.595
  0
LINE
  8
0
 10
223.54
 11
224.005
 20
77.595
 21
77.432
  0
LINE
  8
0
 10
224.005
 11
224.422
 20
77.432
 21
77.17
  0
LINE
  8
0
 10
224.422
 11
224.77
 20
77.17
 21
76.822
  0
LINE
  8
0
 10
224.77
 11
225.032
 20
76.822
 21
76.405
  0
LINE
  8
0
 10
225.032
 11
225.195
 20
76.405
 21
75.94
  0
LINE
  8
0
 10
225.195
 11
225.25
 20
75.94
 21
75.45
  0
LINE
  8
0
 10
225.25
 11
225.195
 20
75.45
 21
74.96
  0
LINE
  8
0
 10
225.195
 11
225.032
 20
74.96
 21
74.495
  0
LINE
  8
0
 10
225.032
 11
224.77
 20
74.495
 21
74.078
  0
LINE
  8
0
 10
224.77
 11
224.422
 20
74.078
 21
73.73
  0
LINE
  8
0
 10
224.422
 11
224.005
 20
73.73
 21
73.468
  0
LINE
  8
0
 10
224.005
 11
223.54
 20
73.468
 21
73.305
  0
LINE
  8
0
 10
223.54
 11
223.05
 20
73.305
 21
73.25
  0
LINE
  8
0
 10
223.05
 11
222.56
 20
73.25
 21
73.305
  0
LINE
  8
0
 10
222.56
 11
222.095
 20
73.305
 21
73.468
  0
LINE
  8
0
 10
222.095
 11
221.678
 20
73.468
 21
73.73
  0
LINE
  8
0
 10
221.678
 11
221.33
 20
73.73
 21
74.078
  0
LINE
  8
0
 10
221.33
 11
221.068
 20
74.078
 21
74.495
  0
LINE
  8
0
 10
221.068
 11
220.905
 20
74.495
 21
74.96
  0
LINE
  8
0
 10
220.905
 11
220.85
 20
74.96
 21
75.45
  0
ENDSEC
  0
SECTION
  2
OBJECTS
  0
DICTIONARY
  0
ENDSEC
  0
EOF
